<svg id="svg" version="1.1" xmlns="http://www.w3.org/2000/svg" xmlns:xlink="http://www.w3.org/1999/xlink" width="400" height="547.1264367816092" viewBox="0, 0, 400,547.1264367816092"><g id="svgg"><path id="path0" d="M5.370 6.353 C 4.467 6.904,3.961 7.674,3.467 9.252 C 2.839 11.257,2.801 28.992,2.897 275.800 L 3.000 540.200 4.785 541.100 L 6.570 542.000 96.385 542.000 C 180.496 542.001,186.391 542.045,189.200 542.700 C 193.833 543.781,362.289 543.781,368.851 542.700 C 372.115 542.163,375.475 542.000,383.321 542.000 L 393.539 542.000 394.769 540.964 L 396.000 539.929 395.995 275.664 C 395.991 45.606,395.915 11.115,395.408 9.200 C 394.353 5.216,399.992 5.600,342.585 5.600 C 286.767 5.600,289.513 5.487,280.600 8.160 C 278.840 8.688,275.780 9.424,273.800 9.796 C 271.820 10.169,269.750 10.721,269.200 11.024 C 266.255 12.646,264.676 13.209,261.978 13.603 C 256.933 14.339,253.634 15.177,250.910 16.412 C 249.473 17.063,246.835 17.877,245.049 18.219 C 239.103 19.358,238.062 19.660,236.325 20.752 C 233.920 22.264,232.700 22.682,228.800 23.333 C 225.337 23.911,223.839 24.460,221.010 26.187 C 220.113 26.735,218.197 27.352,216.610 27.605 C 212.829 28.206,211.786 28.579,209.418 30.180 C 208.308 30.930,206.050 31.934,204.400 32.410 C 202.750 32.887,200.590 33.765,199.600 34.363 C 198.610 34.961,195.878 36.110,193.530 36.917 C 191.181 37.724,188.589 38.839,187.771 39.394 C 186.952 39.950,185.136 40.758,183.736 41.191 C 180.656 42.142,179.786 42.583,178.108 44.039 C 177.396 44.658,175.563 45.535,174.022 45.993 C 172.393 46.479,170.430 47.434,169.315 48.285 C 168.263 49.088,166.369 50.067,165.105 50.460 C 162.298 51.334,160.724 52.126,159.971 53.042 C 159.657 53.424,157.960 54.405,156.200 55.222 C 154.440 56.038,152.640 57.110,152.200 57.604 C 151.760 58.098,150.050 59.118,148.400 59.872 C 146.750 60.626,144.860 61.758,144.200 62.388 C 143.540 63.018,141.951 64.027,140.669 64.629 C 139.387 65.231,138.067 66.137,137.736 66.642 C 137.404 67.148,136.203 68.089,135.067 68.734 C 133.930 69.379,132.190 70.622,131.200 71.496 C 130.210 72.371,128.645 73.470,127.723 73.939 C 126.801 74.409,125.577 75.408,125.003 76.160 C 124.430 76.912,123.317 77.833,122.530 78.206 C 121.743 78.580,120.158 79.811,119.006 80.943 C 114.630 85.243,112.466 87.200,112.086 87.200 C 111.339 87.200,98.958 99.807,97.288 102.268 C 96.367 103.625,95.078 105.117,94.424 105.583 C 93.769 106.049,92.759 107.303,92.179 108.368 C 91.599 109.434,90.603 110.691,89.965 111.162 C 89.328 111.634,88.463 112.692,88.044 113.515 C 87.624 114.337,86.455 116.013,85.446 117.239 C 84.437 118.464,83.331 120.262,82.989 121.234 C 82.647 122.205,81.658 123.723,80.791 124.607 C 79.697 125.724,78.921 127.079,78.253 129.045 C 77.723 130.601,76.663 132.697,75.897 133.701 C 75.130 134.705,74.381 136.218,74.232 137.063 C 73.654 140.349,72.784 142.666,71.701 143.808 C 70.535 145.038,69.969 145.858,67.718 149.576 C 66.886 150.951,66.398 151.467,66.395 150.976 C 66.392 150.549,66.032 149.059,65.595 147.664 C 64.538 144.292,64.380 114.199,65.400 110.400 C 65.725 109.190,65.993 107.224,65.995 106.031 C 65.998 104.677,66.365 102.949,66.973 101.430 C 67.635 99.775,68.146 97.206,68.571 93.398 C 69.307 86.795,69.653 85.417,71.208 82.893 C 72.013 81.587,72.684 79.527,73.372 76.250 C 74.217 72.229,74.588 71.221,75.791 69.677 C 77.147 67.937,77.441 67.219,78.416 63.279 C 78.681 62.207,79.426 60.956,80.389 59.964 C 81.239 59.088,82.212 57.556,82.552 56.560 C 82.891 55.565,83.788 53.906,84.545 52.875 C 85.303 51.843,86.366 50.009,86.909 48.799 C 87.452 47.590,88.472 46.060,89.176 45.400 C 89.879 44.740,90.977 43.286,91.617 42.170 C 92.256 41.053,93.189 39.693,93.689 39.147 C 94.190 38.601,95.200 37.445,95.932 36.577 C 98.078 34.037,107.529 24.553,109.547 22.915 C 110.566 22.088,111.974 20.861,112.676 20.188 C 113.378 19.516,114.774 18.555,115.778 18.054 C 116.782 17.552,118.052 16.554,118.600 15.836 C 119.148 15.117,120.490 14.042,121.583 13.448 C 122.766 12.804,124.025 11.686,124.697 10.683 C 125.640 9.276,126.265 8.845,128.512 8.053 C 135.285 5.666,133.614 5.600,66.367 5.601 C 8.632 5.603,6.558 5.628,5.370 6.353 M293.083 13.620 C 295.358 15.040,295.137 17.404,292.600 18.796 C 291.940 19.158,291.030 20.162,290.578 21.027 C 290.094 21.954,288.950 23.131,287.793 23.893 C 286.713 24.605,285.593 25.638,285.304 26.189 C 285.007 26.755,283.469 27.910,281.762 28.846 C 279.646 30.008,278.456 30.961,277.775 32.040 C 277.241 32.885,276.277 33.850,275.632 34.183 C 274.987 34.517,273.951 35.544,273.330 36.465 C 272.708 37.387,271.660 38.437,271.000 38.800 C 270.340 39.163,269.292 40.213,268.670 41.135 C 268.049 42.056,267.027 43.076,266.400 43.400 C 265.773 43.724,264.746 44.754,264.119 45.688 C 263.491 46.623,262.597 47.577,262.132 47.809 C 260.818 48.464,260.039 49.211,259.497 50.334 C 259.224 50.901,258.298 51.841,257.440 52.422 C 256.582 53.004,255.404 54.181,254.823 55.037 C 254.242 55.893,253.388 56.782,252.926 57.012 C 251.439 57.754,250.947 58.347,249.570 61.060 C 248.731 62.711,247.759 64.001,247.009 64.456 C 246.344 64.860,245.349 66.041,244.798 67.081 C 244.224 68.164,243.284 69.234,242.598 69.586 C 241.193 70.306,240.748 70.900,240.187 72.799 C 239.884 73.829,239.329 74.444,238.087 75.129 C 236.996 75.731,236.400 76.336,236.400 76.843 C 236.400 78.321,235.204 80.484,233.407 82.256 C 232.418 83.231,231.508 84.518,231.387 85.115 C 230.993 87.048,230.213 88.185,228.794 88.898 C 227.474 89.560,227.380 89.748,226.937 92.614 C 226.409 96.031,225.619 97.511,223.996 98.124 C 222.939 98.523,222.843 98.770,222.239 102.647 C 221.441 107.771,221.155 108.515,219.352 110.168 L 217.897 111.500 217.398 120.250 C 217.124 125.063,216.720 129.450,216.501 130.000 C 216.224 130.694,216.267 132.039,216.641 134.400 C 216.938 136.270,217.328 140.629,217.509 144.087 L 217.838 150.373 219.477 151.887 C 220.565 152.891,221.244 153.938,221.497 155.000 C 221.707 155.880,222.084 157.450,222.335 158.488 C 222.657 159.821,223.329 160.938,224.623 162.288 C 225.807 163.523,226.622 164.820,226.925 165.953 C 227.286 167.302,227.686 167.845,228.660 168.309 C 229.917 168.909,230.413 169.577,231.189 171.719 C 231.436 172.401,232.108 173.053,232.906 173.386 C 234.364 173.996,235.224 174.879,235.893 176.453 C 236.138 177.032,237.028 177.842,237.870 178.253 C 238.868 178.740,239.660 179.532,240.147 180.530 C 240.558 181.372,241.368 182.261,241.947 182.506 C 243.452 183.144,244.800 184.427,244.800 185.221 C 244.800 186.112,245.422 186.552,247.544 187.159 C 249.015 187.580,249.382 187.900,249.896 189.207 C 250.434 190.578,250.716 190.802,252.352 191.154 C 255.549 191.844,257.138 192.718,258.174 194.359 C 258.984 195.642,259.500 195.992,261.171 196.393 C 262.696 196.759,263.491 197.242,264.423 198.369 C 265.427 199.582,266.155 199.990,268.328 200.557 C 271.425 201.365,272.046 201.753,272.909 203.424 C 273.490 204.547,273.796 204.687,276.652 205.131 C 280.127 205.671,281.418 206.332,282.099 207.921 C 282.354 208.515,282.586 209.045,282.615 209.100 C 282.644 209.156,284.612 209.474,286.988 209.807 C 291.943 210.503,293.555 211.138,294.522 212.776 C 295.243 213.996,295.732 214.167,299.800 214.614 C 302.754 214.939,304.632 215.692,306.200 217.179 C 307.530 218.441,308.151 218.613,313.502 219.201 C 317.856 219.680,319.931 220.422,321.342 222.005 C 322.496 223.300,323.219 223.466,329.000 223.763 C 333.892 224.014,336.633 224.794,338.277 226.401 C 339.462 227.560,339.771 227.644,344.263 228.032 C 349.699 228.501,352.808 229.322,354.479 230.728 C 356.006 232.013,355.915 232.070,349.650 233.768 C 346.708 234.565,343.018 235.825,341.450 236.568 C 337.928 238.237,338.192 238.163,331.400 239.409 C 327.325 240.156,325.037 240.807,323.000 241.798 C 321.177 242.685,318.696 243.440,315.892 243.961 C 313.343 244.435,310.320 245.324,308.492 246.137 C 305.315 247.548,303.527 248.028,298.509 248.816 C 296.497 249.131,295.097 249.625,293.909 250.437 C 291.995 251.745,289.576 252.525,285.323 253.205 C 283.295 253.529,281.760 254.082,280.123 255.079 C 278.333 256.169,276.699 256.718,273.000 257.473 C 270.360 258.012,267.660 258.794,267.000 259.210 C 264.337 260.890,263.548 261.204,260.113 261.954 C 258.144 262.384,255.112 263.213,253.375 263.796 C 250.499 264.761,250.001 264.818,247.808 264.427 C 246.484 264.191,243.783 263.808,241.806 263.576 C 237.628 263.086,234.990 262.056,234.358 260.668 C 233.793 259.428,232.426 258.801,230.281 258.798 C 226.882 258.793,224.297 257.617,223.583 255.750 C 223.366 255.182,222.758 254.806,221.751 254.617 C 219.594 254.212,216.509 252.554,215.954 251.501 C 215.334 250.323,214.951 250.082,212.807 249.524 C 211.695 249.235,210.328 248.426,209.207 247.393 C 208.213 246.477,206.333 245.294,205.029 244.764 C 203.320 244.069,202.442 243.434,201.883 242.490 C 200.603 240.324,202.110 240.400,160.326 240.399 C 116.515 240.399,118.652 240.531,117.836 237.767 C 117.513 236.672,117.222 236.480,115.236 236.053 C 111.965 235.351,110.463 234.581,109.905 233.319 C 109.307 231.968,108.453 231.230,107.469 231.213 C 104.143 231.155,103.190 223.098,106.201 220.500 L 107.245 219.600 142.091 219.600 C 181.264 219.600,179.009 219.774,177.686 216.861 C 177.321 216.057,176.274 214.576,175.359 213.568 C 174.137 212.222,173.574 211.170,173.238 209.602 C 172.907 208.058,172.348 207.000,171.218 205.773 C 170.314 204.793,169.459 203.345,169.191 202.339 C 168.345 199.176,169.217 199.413,157.957 199.276 C 143.377 199.098,140.007 199.364,138.152 200.838 L 136.690 202.000 112.805 202.000 L 88.920 202.000 87.160 200.807 C 86.192 200.151,85.019 199.611,84.554 199.607 C 83.138 199.595,81.734 198.155,81.245 196.214 C 80.869 194.721,80.553 194.307,79.427 193.837 C 76.314 192.536,75.431 185.058,78.151 183.027 C 79.250 182.206,79.576 182.198,121.529 182.000 L 163.800 181.800 163.682 177.278 C 163.560 172.604,163.436 172.090,161.792 169.400 C 161.059 168.202,160.812 167.228,160.807 165.524 C 160.803 164.148,160.602 163.119,160.300 162.924 C 160.025 162.746,140.990 162.510,118.000 162.400 C 76.745 162.203,76.182 162.189,74.802 161.379 C 72.002 159.734,72.271 156.255,75.330 154.543 C 75.752 154.307,76.085 153.120,76.372 150.832 C 76.880 146.781,77.463 145.785,79.698 145.149 C 80.634 144.882,81.760 144.357,82.200 143.982 C 84.078 142.381,83.573 142.400,123.984 142.400 L 163.220 142.400 163.560 141.500 C 163.748 141.005,164.036 139.430,164.201 138.000 C 164.635 134.233,165.394 132.051,166.760 130.641 C 167.671 129.702,167.992 128.962,168.082 127.600 L 168.200 125.800 132.400 125.587 C 104.540 125.422,96.256 125.259,95.049 124.854 C 93.301 124.268,91.600 122.759,91.600 121.795 C 91.600 120.263,92.566 117.538,93.445 116.589 C 93.970 116.022,94.402 115.343,94.404 115.079 C 94.415 113.758,96.459 110.354,97.678 109.626 C 98.405 109.192,99.554 108.064,100.231 107.119 C 102.298 104.235,99.841 104.412,137.767 104.406 C 160.327 104.402,172.978 104.253,174.589 103.973 L 177.044 103.545 177.686 100.144 C 178.346 96.648,178.969 95.545,180.775 94.681 C 182.004 94.092,182.830 89.863,182.050 88.150 L 181.617 87.200 157.986 87.200 C 129.128 87.200,130.086 87.352,129.134 82.612 L 128.667 80.286 130.652 78.392 C 132.119 76.993,133.078 76.423,134.319 76.214 C 135.557 76.005,136.000 75.742,136.000 75.219 C 136.000 74.001,137.550 72.446,139.044 72.165 C 140.100 71.967,140.696 71.516,141.425 70.361 C 143.370 67.279,141.704 67.459,167.732 67.519 C 195.232 67.583,196.061 67.531,196.434 65.702 C 196.768 64.061,197.471 63.214,199.043 62.556 C 200.089 62.119,200.324 61.764,200.522 60.318 C 200.910 57.488,201.873 55.690,203.578 54.614 C 204.820 53.830,205.259 53.225,205.686 51.712 C 206.133 50.124,206.491 49.661,207.800 48.980 C 208.978 48.366,209.441 47.839,209.635 46.890 C 209.965 45.276,210.583 44.366,213.357 41.409 C 214.591 40.094,215.600 38.797,215.600 38.528 C 215.600 38.258,216.339 37.444,217.243 36.719 C 218.147 35.993,219.308 34.567,219.824 33.550 C 220.947 31.336,221.067 31.282,226.373 30.576 C 230.228 30.063,230.654 29.917,231.973 28.657 C 233.869 26.846,239.274 25.600,245.239 25.600 C 245.654 25.600,246.464 25.072,247.040 24.426 C 248.546 22.736,250.574 22.073,255.686 21.600 C 262.005 21.015,262.655 20.857,264.044 19.559 C 265.639 18.069,268.375 17.280,272.932 16.994 C 279.140 16.606,279.978 16.432,280.928 15.333 C 283.185 12.721,290.087 11.748,293.083 13.620 M355.917 235.956 L 356.804 236.430 356.702 278.096 L 356.600 319.762 355.000 320.885 C 352.287 322.790,345.056 325.377,340.600 326.038 C 333.470 327.096,328.919 328.139,327.293 329.088 C 326.070 329.802,324.367 330.251,321.293 330.671 C 318.932 330.993,315.470 331.794,313.600 332.449 C 307.849 334.465,305.384 335.119,300.370 335.957 C 296.477 336.608,295.184 337.000,293.702 337.982 C 292.690 338.652,291.759 339.202,291.631 339.204 C 291.504 339.206,289.690 339.567,287.600 340.006 C 285.510 340.444,282.810 340.986,281.600 341.211 C 280.390 341.435,278.140 342.238,276.600 342.994 C 274.771 343.893,272.551 344.577,270.200 344.966 C 267.749 345.372,265.770 345.995,264.000 346.919 C 262.447 347.729,259.508 348.715,256.704 349.367 C 253.885 350.023,251.009 350.990,249.505 351.787 C 248.001 352.584,245.402 353.458,243.000 353.973 C 240.693 354.468,237.646 355.480,235.800 356.363 C 234.040 357.206,231.430 358.108,230.000 358.368 C 226.355 359.033,223.794 359.913,221.646 361.242 C 220.428 361.995,218.446 362.655,215.821 363.180 C 212.658 363.813,211.403 364.278,209.708 365.445 C 208.535 366.253,206.383 367.245,204.926 367.649 C 203.469 368.053,201.539 368.780,200.638 369.265 C 196.866 371.294,196.051 371.611,193.000 372.236 C 189.554 372.943,188.355 373.448,185.892 375.232 C 185.021 375.863,182.770 376.849,180.890 377.422 C 178.944 378.016,176.849 378.966,176.023 379.630 C 175.036 380.423,173.445 381.070,171.037 381.659 C 168.497 382.280,166.998 382.906,165.718 383.883 C 164.739 384.631,162.550 385.734,160.854 386.334 C 159.159 386.934,157.058 387.998,156.186 388.698 C 155.058 389.603,153.760 390.147,151.692 390.582 C 148.800 391.189,147.462 391.830,145.717 393.443 C 145.216 393.907,143.499 394.699,141.903 395.203 C 139.803 395.865,138.655 396.495,137.753 397.480 C 136.921 398.388,135.502 399.216,133.498 399.964 C 131.844 400.581,129.701 401.653,128.736 402.346 C 127.771 403.039,125.725 404.055,124.190 404.604 C 122.249 405.298,121.035 406.023,120.200 406.986 C 119.540 407.748,118.100 408.760,117.000 409.236 C 115.900 409.711,114.136 410.714,113.080 411.464 C 112.024 412.214,110.224 413.193,109.080 413.640 C 107.936 414.087,106.280 415.144,105.400 415.989 C 104.341 417.006,102.890 417.833,101.108 418.436 C 99.038 419.136,98.131 419.701,97.180 420.884 C 96.501 421.730,95.134 422.803,94.144 423.268 C 93.154 423.734,92.064 424.541,91.722 425.063 C 91.380 425.584,89.677 426.752,87.937 427.657 C 86.197 428.563,84.588 429.650,84.361 430.073 C 84.134 430.496,83.016 431.444,81.875 432.180 C 80.734 432.915,79.260 434.092,78.600 434.795 C 77.940 435.498,76.770 436.398,76.000 436.794 C 75.230 437.191,74.240 437.918,73.800 438.411 C 73.360 438.904,72.091 439.982,70.980 440.807 C 69.870 441.632,66.344 444.909,63.145 448.090 L 57.329 453.873 55.363 453.621 C 51.362 453.108,51.056 451.996,51.313 438.876 C 51.512 428.688,51.747 426.917,53.567 421.916 C 54.025 420.660,54.677 417.690,55.017 415.316 C 55.523 411.781,55.952 410.349,57.387 407.400 C 58.350 405.420,59.416 402.810,59.755 401.600 C 60.095 400.390,61.005 398.421,61.779 397.224 C 62.553 396.028,63.477 394.173,63.832 393.104 C 64.187 392.034,65.188 390.338,66.056 389.335 C 66.924 388.332,68.241 386.316,68.982 384.856 C 69.723 383.395,70.703 381.975,71.160 381.700 C 71.617 381.424,72.607 379.974,73.361 378.477 C 74.116 376.979,75.037 375.502,75.408 375.193 C 75.780 374.885,76.814 373.545,77.706 372.216 C 78.597 370.887,80.108 368.953,81.064 367.917 C 82.019 366.882,82.800 365.851,82.800 365.626 C 82.800 365.083,102.610 345.259,104.400 344.011 C 106.015 342.885,108.785 340.616,111.847 337.910 C 113.023 336.871,114.844 335.579,115.893 335.040 C 116.942 334.500,118.270 333.457,118.844 332.721 C 119.418 331.986,120.738 330.946,121.778 330.411 C 122.818 329.876,123.968 329.059,124.334 328.595 C 124.700 328.130,126.080 327.063,127.400 326.223 C 128.720 325.383,130.469 324.095,131.286 323.362 C 132.103 322.628,133.633 321.591,134.686 321.057 C 135.739 320.523,136.960 319.687,137.400 319.199 C 137.840 318.712,139.280 317.769,140.600 317.105 C 141.920 316.441,143.662 315.303,144.472 314.575 C 145.281 313.848,146.885 312.926,148.035 312.526 C 149.227 312.112,150.915 311.069,151.963 310.099 C 153.174 308.978,154.648 308.116,156.293 307.569 C 157.664 307.113,159.597 306.069,160.588 305.251 C 161.579 304.432,163.261 303.448,164.326 303.065 C 165.391 302.682,167.207 301.659,168.362 300.792 C 169.517 299.924,171.211 299.012,172.128 298.765 C 174.397 298.154,176.704 296.939,178.493 295.410 C 179.379 294.654,181.001 293.853,182.482 293.441 C 183.855 293.059,186.039 292.039,187.335 291.174 C 188.631 290.308,189.986 289.598,190.346 289.596 C 191.314 289.590,195.120 287.738,196.432 286.634 C 197.060 286.106,198.794 285.268,200.287 284.771 C 201.779 284.275,203.842 283.351,204.872 282.717 C 205.901 282.084,208.511 280.971,210.672 280.243 C 212.832 279.515,215.637 278.335,216.905 277.619 C 218.172 276.904,221.022 275.793,223.239 275.151 C 225.797 274.409,227.804 273.557,228.734 272.816 C 229.742 272.013,231.324 271.379,233.800 270.784 C 235.793 270.305,238.204 269.411,239.200 268.783 C 241.546 267.303,243.768 266.822,248.313 266.810 C 252.159 266.800,254.230 266.252,255.795 264.830 C 256.774 263.941,258.671 263.341,261.600 262.996 C 265.208 262.570,266.690 262.048,267.994 260.745 C 269.344 259.394,270.500 259.034,275.555 258.391 C 279.204 257.926,280.961 257.228,282.200 255.750 C 282.863 254.959,283.717 254.685,287.200 254.150 C 293.266 253.216,294.217 252.921,295.594 251.544 C 296.969 250.170,298.014 249.869,303.739 249.198 C 308.356 248.658,310.592 247.949,312.031 246.570 C 312.902 245.736,313.891 245.446,318.037 244.807 C 323.421 243.977,325.811 243.274,327.614 241.990 C 328.837 241.119,333.234 240.023,335.600 240.000 C 338.816 239.968,342.429 238.867,344.013 237.436 C 344.953 236.587,346.146 235.948,347.076 235.796 C 347.914 235.659,348.870 235.479,349.200 235.396 C 350.378 235.101,355.046 235.490,355.917 235.956 M252.708 358.001 C 255.535 359.724,255.136 363.001,251.934 364.370 C 250.822 364.846,250.364 365.344,250.037 366.433 C 249.543 368.083,248.697 368.936,247.022 369.474 C 246.227 369.729,245.746 370.216,245.545 370.969 C 245.138 372.490,244.163 373.484,242.559 374.013 C 241.478 374.370,241.134 374.758,240.800 376.001 C 240.520 377.039,239.857 377.963,238.780 378.816 C 237.898 379.515,236.925 380.562,236.618 381.143 C 236.311 381.724,235.138 383.157,234.013 384.327 C 232.887 385.498,231.531 387.439,230.999 388.641 C 230.238 390.360,229.731 390.953,228.623 391.416 C 227.638 391.828,227.141 392.335,226.971 393.102 C 226.370 395.820,225.817 396.958,224.356 398.495 C 223.495 399.400,222.612 400.829,222.395 401.670 C 222.178 402.512,221.816 403.909,221.591 404.776 C 221.365 405.646,220.477 407.109,219.606 408.043 C 218.395 409.341,217.977 410.159,217.805 411.567 C 216.921 418.812,216.104 421.586,214.285 423.522 C 213.444 424.417,213.409 424.774,213.405 432.567 L 213.400 440.680 214.692 441.769 C 216.085 442.943,216.472 444.037,217.181 448.800 C 217.427 450.450,217.713 452.350,217.817 453.021 C 217.923 453.702,218.709 454.996,219.595 455.945 C 221.044 457.500,221.569 458.661,222.178 461.656 C 222.297 462.237,223.311 463.650,224.434 464.796 C 225.556 465.942,226.723 467.477,227.028 468.206 C 227.333 468.935,228.382 470.188,229.360 470.989 C 230.544 471.959,231.316 472.998,231.669 474.098 C 232.080 475.377,232.459 475.819,233.343 476.052 C 234.942 476.474,235.944 477.493,236.223 478.980 C 236.428 480.072,236.703 480.315,238.186 480.712 C 239.426 481.043,240.275 481.632,241.201 482.802 C 241.911 483.697,243.184 484.784,244.032 485.216 C 244.879 485.648,246.534 486.927,247.710 488.056 C 248.886 489.186,250.647 490.406,251.623 490.766 C 252.774 491.192,253.679 491.874,254.199 492.710 C 254.770 493.627,255.484 494.125,256.683 494.442 C 257.738 494.721,259.155 495.613,260.483 496.835 C 261.762 498.013,263.234 498.951,264.200 499.206 C 266.953 499.931,267.624 500.360,268.214 501.772 C 268.827 503.239,269.114 503.385,272.200 503.804 C 275.284 504.223,276.753 504.989,277.388 506.509 C 277.925 507.794,278.076 507.868,281.206 508.376 C 284.500 508.911,286.800 510.160,286.800 511.412 C 286.800 512.236,287.315 512.416,291.442 513.036 C 295.727 513.680,297.258 514.319,299.000 516.190 C 300.073 517.342,300.518 517.510,303.193 517.773 C 306.874 518.134,308.524 518.792,309.448 520.267 C 309.838 520.890,310.198 521.461,310.247 521.535 C 310.296 521.609,312.196 521.928,314.468 522.243 C 319.801 522.981,321.096 523.410,322.800 525.000 C 324.084 526.199,324.532 526.345,328.200 526.763 C 333.913 527.415,335.451 527.893,336.718 529.410 C 337.951 530.888,338.495 531.037,344.740 531.607 C 349.811 532.071,351.601 532.660,353.491 534.490 C 354.751 535.709,354.903 535.747,359.891 536.069 C 369.893 536.714,372.806 539.601,365.308 541.438 C 362.302 542.175,359.426 542.200,277.800 542.200 L 193.400 542.200 190.703 541.059 C 188.166 539.985,185.683 538.396,184.462 537.063 C 184.166 536.741,183.201 535.759,182.318 534.882 C 180.306 532.884,179.516 532.094,177.518 530.082 C 176.641 529.199,175.626 528.218,175.262 527.903 C 174.898 527.588,174.400 526.986,174.157 526.565 C 173.726 525.822,172.566 525.794,133.557 525.600 C 89.187 525.379,91.669 525.539,90.309 522.815 C 89.779 521.753,89.221 521.314,87.909 520.930 C 86.737 520.586,85.256 519.545,83.200 517.618 C 81.550 516.071,79.884 514.703,79.498 514.576 C 76.779 513.682,77.776 510.338,81.625 507.445 L 84.079 505.600 121.430 505.600 L 158.782 505.600 159.404 504.651 C 160.500 502.978,159.067 493.784,157.644 493.363 C 157.070 493.192,137.070 492.951,113.200 492.827 L 69.800 492.600 68.200 491.725 C 65.016 489.985,63.342 488.018,62.809 485.389 C 62.452 483.629,61.974 482.631,60.992 481.600 C 59.154 479.670,58.304 475.817,59.359 474.206 C 61.012 471.684,58.440 471.820,108.800 471.600 L 154.600 471.400 154.908 464.600 C 155.078 460.860,155.450 456.585,155.736 455.100 C 156.022 453.615,156.243 452.359,156.228 452.310 C 156.213 452.260,138.650 452.125,117.200 452.010 C 74.340 451.779,77.269 451.960,74.692 449.383 C 73.325 448.016,73.328 447.961,74.875 446.449 C 75.576 445.763,76.611 444.347,77.175 443.301 C 78.065 441.651,78.621 441.189,81.387 439.800 C 83.410 438.785,84.794 437.807,85.176 437.124 C 86.403 434.929,84.910 435.015,125.200 434.800 C 145.770 434.690,162.801 434.469,163.047 434.309 C 163.293 434.149,163.620 432.889,163.773 431.509 C 164.245 427.249,164.817 425.615,166.433 423.917 C 167.961 422.311,168.798 420.588,168.802 419.040 C 168.804 418.578,169.077 417.678,169.410 417.040 C 170.296 415.340,171.106 415.416,149.667 415.200 C 128.715 414.989,128.740 414.991,127.421 413.108 C 125.927 410.976,127.228 408.390,130.166 407.650 C 131.324 407.359,132.751 406.502,134.218 405.218 C 135.981 403.676,136.894 403.176,138.341 402.964 C 140.994 402.574,141.921 402.155,143.021 400.848 C 145.237 398.214,145.187 398.221,164.575 398.000 L 182.150 397.800 182.493 396.400 C 182.876 394.839,184.456 393.200,185.578 393.200 C 186.097 393.200,186.387 392.797,186.570 391.817 C 187.042 389.301,188.385 386.879,190.030 385.576 C 190.921 384.871,191.917 383.625,192.244 382.807 C 192.642 381.812,193.328 381.065,194.319 380.548 C 195.312 380.030,196.050 379.225,196.560 378.107 C 197.424 376.209,198.923 375.413,202.461 374.971 C 204.141 374.761,204.905 374.412,206.023 373.346 C 207.726 371.720,208.920 371.323,214.307 370.583 C 218.252 370.042,218.472 369.958,219.907 368.471 C 221.456 366.865,222.581 366.505,228.287 365.790 C 229.799 365.601,230.735 365.203,231.687 364.348 C 233.862 362.391,237.807 361.200,242.110 361.200 C 242.292 361.200,243.038 360.548,243.768 359.752 C 245.918 357.404,250.317 356.543,252.708 358.001 " stroke="none" fill="#94c4e3" fill-rule="evenodd"></path><path id="path1" d="M0.000 273.400 L 0.000 546.800 200.000 546.800 L 400.000 546.800 400.000 273.400 L 400.000 0.000 200.000 0.000 L 0.000 0.000 0.000 273.400 M128.667 6.041 C 131.863 6.598,131.842 6.879,128.512 8.053 C 126.265 8.845,125.640 9.276,124.697 10.683 C 124.025 11.686,122.766 12.804,121.583 13.448 C 120.490 14.042,119.148 15.117,118.600 15.836 C 118.052 16.554,116.782 17.552,115.778 18.054 C 114.774 18.555,113.378 19.516,112.676 20.188 C 111.974 20.861,110.566 22.088,109.547 22.915 C 107.529 24.553,98.078 34.037,95.932 36.577 C 95.200 37.445,94.190 38.601,93.689 39.147 C 93.189 39.693,92.256 41.053,91.617 42.170 C 90.977 43.286,89.879 44.740,89.176 45.400 C 88.472 46.060,87.452 47.590,86.909 48.799 C 86.366 50.009,85.303 51.843,84.545 52.875 C 83.788 53.906,82.891 55.565,82.552 56.560 C 82.212 57.556,81.239 59.088,80.389 59.964 C 79.426 60.956,78.681 62.207,78.416 63.279 C 77.441 67.219,77.147 67.937,75.791 69.677 C 74.588 71.221,74.217 72.229,73.372 76.250 C 72.684 79.527,72.013 81.587,71.208 82.893 C 69.653 85.417,69.307 86.795,68.571 93.398 C 68.146 97.206,67.635 99.775,66.973 101.430 C 66.365 102.949,65.998 104.677,65.995 106.031 C 65.993 107.224,65.725 109.190,65.400 110.400 C 64.380 114.199,64.538 144.292,65.595 147.664 C 66.032 149.059,66.392 150.549,66.395 150.976 C 66.398 151.467,66.886 150.951,67.718 149.576 C 69.969 145.858,70.535 145.038,71.701 143.808 C 72.784 142.666,73.654 140.349,74.232 137.063 C 74.381 136.218,75.130 134.705,75.897 133.701 C 76.663 132.697,77.723 130.601,78.253 129.045 C 78.921 127.079,79.697 125.724,80.791 124.607 C 81.658 123.723,82.647 122.205,82.989 121.234 C 83.331 120.262,84.437 118.464,85.446 117.239 C 86.455 116.013,87.624 114.337,88.044 113.515 C 88.463 112.692,89.328 111.634,89.965 111.162 C 90.603 110.691,91.599 109.434,92.179 108.368 C 92.759 107.303,93.769 106.049,94.424 105.583 C 95.078 105.117,96.367 103.625,97.288 102.268 C 98.958 99.807,111.339 87.200,112.086 87.200 C 112.466 87.200,114.630 85.243,119.006 80.943 C 120.158 79.811,121.743 78.580,122.530 78.206 C 123.317 77.833,124.430 76.912,125.003 76.160 C 125.577 75.408,126.801 74.409,127.723 73.939 C 128.645 73.470,130.210 72.371,131.200 71.496 C 132.190 70.622,133.930 69.379,135.067 68.734 C 136.203 68.089,137.404 67.148,137.736 66.642 C 138.067 66.137,139.387 65.231,140.669 64.629 C 141.951 64.027,143.540 63.018,144.200 62.388 C 144.860 61.758,146.750 60.626,148.400 59.872 C 150.050 59.118,151.760 58.098,152.200 57.604 C 152.640 57.110,154.440 56.038,156.200 55.222 C 157.960 54.405,159.657 53.424,159.971 53.042 C 160.724 52.126,162.298 51.334,165.105 50.460 C 166.369 50.067,168.263 49.088,169.315 48.285 C 170.430 47.434,172.393 46.479,174.022 45.993 C 175.563 45.535,177.396 44.658,178.108 44.039 C 179.786 42.583,180.656 42.142,183.736 41.191 C 185.136 40.758,186.952 39.950,187.771 39.394 C 188.589 38.839,191.181 37.724,193.530 36.917 C 195.878 36.110,198.610 34.961,199.600 34.363 C 200.590 33.765,202.750 32.887,204.400 32.410 C 206.050 31.934,208.308 30.930,209.418 30.180 C 211.786 28.579,212.829 28.206,216.610 27.605 C 218.197 27.352,220.113 26.735,221.010 26.187 C 223.839 24.460,225.337 23.911,228.800 23.333 C 232.700 22.682,233.920 22.264,236.325 20.752 C 238.062 19.660,239.103 19.358,245.049 18.219 C 246.835 17.877,249.473 17.063,250.910 16.412 C 253.634 15.177,256.933 14.339,261.978 13.603 C 264.676 13.209,266.255 12.646,269.200 11.024 C 269.750 10.721,271.820 10.169,273.800 9.796 C 275.780 9.424,278.840 8.688,280.600 8.160 C 289.513 5.487,286.767 5.600,342.585 5.600 C 399.992 5.600,394.353 5.216,395.408 9.200 C 395.915 11.115,395.991 45.606,395.995 275.664 L 396.000 539.929 394.769 540.964 L 393.539 542.000 383.321 542.000 C 375.475 542.000,372.115 542.163,368.851 542.700 C 362.289 543.781,193.833 543.781,189.200 542.700 C 186.391 542.045,180.496 542.001,96.385 542.000 L 6.570 542.000 4.785 541.100 L 3.000 540.200 2.897 275.800 C 2.801 28.992,2.839 11.257,3.467 9.252 C 4.731 5.217,-1.918 5.603,66.367 5.601 C 108.130 5.600,126.897 5.733,128.667 6.041 M349.200 235.396 C 348.870 235.479,347.914 235.659,347.076 235.796 C 346.146 235.948,344.953 236.587,344.013 237.436 C 342.429 238.867,338.816 239.968,335.600 240.000 C 333.234 240.023,328.837 241.119,327.614 241.990 C 325.811 243.274,323.421 243.977,318.037 244.807 C 313.891 245.446,312.902 245.736,312.031 246.570 C 310.592 247.949,308.356 248.658,303.739 249.198 C 298.014 249.869,296.969 250.170,295.594 251.544 C 294.217 252.921,293.266 253.216,287.200 254.150 C 283.717 254.685,282.863 254.959,282.200 255.750 C 280.961 257.228,279.204 257.926,275.555 258.391 C 270.500 259.034,269.344 259.394,267.994 260.745 C 266.690 262.048,265.208 262.570,261.600 262.996 C 258.671 263.341,256.774 263.941,255.795 264.830 C 254.230 266.252,252.159 266.800,248.313 266.810 C 243.768 266.822,241.546 267.303,239.200 268.783 C 238.204 269.411,235.793 270.305,233.800 270.784 C 231.324 271.379,229.742 272.013,228.734 272.816 C 227.804 273.557,225.797 274.409,223.239 275.151 C 221.022 275.793,218.172 276.904,216.905 277.619 C 215.637 278.335,212.832 279.515,210.672 280.243 C 208.511 280.971,205.901 282.084,204.872 282.717 C 203.842 283.351,201.779 284.275,200.287 284.771 C 198.794 285.268,197.060 286.106,196.432 286.634 C 195.120 287.738,191.314 289.590,190.346 289.596 C 189.986 289.598,188.631 290.308,187.335 291.174 C 186.039 292.039,183.855 293.059,182.482 293.441 C 181.001 293.853,179.379 294.654,178.493 295.410 C 176.704 296.939,174.397 298.154,172.128 298.765 C 171.211 299.012,169.517 299.924,168.362 300.792 C 167.207 301.659,165.391 302.682,164.326 303.065 C 163.261 303.448,161.579 304.432,160.588 305.251 C 159.597 306.069,157.664 307.113,156.293 307.569 C 154.648 308.116,153.174 308.978,151.963 310.099 C 150.915 311.069,149.227 312.112,148.035 312.526 C 146.885 312.926,145.281 313.848,144.472 314.575 C 143.662 315.303,141.920 316.441,140.600 317.105 C 139.280 317.769,137.840 318.712,137.400 319.199 C 136.960 319.687,135.739 320.523,134.686 321.057 C 133.633 321.591,132.103 322.628,131.286 323.362 C 130.469 324.095,128.720 325.383,127.400 326.223 C 126.080 327.063,124.700 328.130,124.334 328.595 C 123.968 329.059,122.818 329.876,121.778 330.411 C 120.738 330.946,119.418 331.986,118.844 332.721 C 118.270 333.457,116.942 334.500,115.893 335.040 C 114.844 335.579,113.023 336.871,111.847 337.910 C 108.785 340.616,106.015 342.885,104.400 344.011 C 102.610 345.259,82.800 365.083,82.800 365.626 C 82.800 365.851,82.019 366.882,81.064 367.917 C 80.108 368.953,78.597 370.887,77.706 372.216 C 76.814 373.545,75.780 374.885,75.408 375.193 C 75.037 375.502,74.116 376.979,73.361 378.477 C 72.607 379.974,71.617 381.424,71.160 381.700 C 70.703 381.975,69.723 383.395,68.982 384.856 C 68.241 386.316,66.924 388.332,66.056 389.335 C 65.188 390.338,64.187 392.034,63.832 393.104 C 63.477 394.173,62.553 396.028,61.779 397.224 C 61.005 398.421,60.095 400.390,59.755 401.600 C 59.416 402.810,58.350 405.420,57.387 407.400 C 55.952 410.349,55.523 411.781,55.017 415.316 C 54.677 417.690,54.025 420.660,53.567 421.916 C 51.747 426.917,51.512 428.688,51.313 438.876 C 51.056 451.996,51.362 453.108,55.363 453.621 L 57.329 453.873 63.145 448.090 C 66.344 444.909,69.870 441.632,70.980 440.807 C 72.091 439.982,73.360 438.904,73.800 438.411 C 74.240 437.918,75.230 437.191,76.000 436.794 C 76.770 436.398,77.940 435.498,78.600 434.795 C 79.260 434.092,80.734 432.915,81.875 432.180 C 83.016 431.444,84.134 430.496,84.361 430.073 C 84.588 429.650,86.197 428.563,87.937 427.657 C 89.677 426.752,91.380 425.584,91.722 425.063 C 92.064 424.541,93.154 423.734,94.144 423.268 C 95.134 422.803,96.501 421.730,97.180 420.884 C 98.131 419.701,99.038 419.136,101.108 418.436 C 102.890 417.833,104.341 417.006,105.400 415.989 C 106.280 415.144,107.936 414.087,109.080 413.640 C 110.224 413.193,112.024 412.214,113.080 411.464 C 114.136 410.714,115.900 409.711,117.000 409.236 C 118.100 408.760,119.540 407.748,120.200 406.986 C 121.035 406.023,122.249 405.298,124.190 404.604 C 125.725 404.055,127.771 403.039,128.736 402.346 C 129.701 401.653,131.844 400.581,133.498 399.964 C 135.502 399.216,136.921 398.388,137.753 397.480 C 138.655 396.495,139.803 395.865,141.903 395.203 C 143.499 394.699,145.216 393.907,145.717 393.443 C 147.462 391.830,148.800 391.189,151.692 390.582 C 153.760 390.147,155.058 389.603,156.186 388.698 C 157.058 387.998,159.159 386.934,160.854 386.334 C 162.550 385.734,164.739 384.631,165.718 383.883 C 166.998 382.906,168.497 382.280,171.037 381.659 C 173.445 381.070,175.036 380.423,176.023 379.630 C 176.849 378.966,178.944 378.016,180.890 377.422 C 182.770 376.849,185.021 375.863,185.892 375.232 C 188.355 373.448,189.554 372.943,193.000 372.236 C 196.051 371.611,196.866 371.294,200.638 369.265 C 201.539 368.780,203.469 368.053,204.926 367.649 C 206.383 367.245,208.535 366.253,209.708 365.445 C 211.403 364.278,212.658 363.813,215.821 363.180 C 218.446 362.655,220.428 361.995,221.646 361.242 C 223.794 359.913,226.355 359.033,230.000 358.368 C 231.430 358.108,234.040 357.206,235.800 356.363 C 237.646 355.480,240.693 354.468,243.000 353.973 C 245.402 353.458,248.001 352.584,249.505 351.787 C 251.009 350.990,253.885 350.023,256.704 349.367 C 259.508 348.715,262.447 347.729,264.000 346.919 C 265.770 345.995,267.749 345.372,270.200 344.966 C 272.551 344.577,274.771 343.893,276.600 342.994 C 278.140 342.238,280.390 341.435,281.600 341.211 C 282.810 340.986,285.510 340.444,287.600 340.006 C 289.690 339.567,291.504 339.206,291.631 339.204 C 291.759 339.202,292.690 338.652,293.702 337.982 C 295.184 337.000,296.477 336.608,300.370 335.957 C 305.384 335.119,307.849 334.465,313.600 332.449 C 315.470 331.794,318.932 330.993,321.293 330.671 C 324.367 330.251,326.070 329.802,327.293 329.088 C 328.919 328.139,333.470 327.096,340.600 326.038 C 345.056 325.377,352.287 322.790,355.000 320.885 L 356.600 319.762 356.702 278.096 L 356.804 236.430 355.917 235.956 C 355.046 235.490,350.378 235.101,349.200 235.396 " stroke="none" fill="#f6f9fb" fill-rule="evenodd"></path><path id="path2" d="M277.303 20.022 C 276.370 20.207,274.919 20.910,274.079 21.585 C 272.093 23.180,270.893 23.510,264.400 24.240 C 261.267 24.593,258.664 25.089,258.200 25.422 C 257.760 25.737,256.939 26.366,256.377 26.819 C 255.382 27.619,253.848 27.943,245.005 29.222 C 242.451 29.591,241.549 29.913,240.510 30.825 C 239.005 32.147,237.572 32.584,231.562 33.554 C 227.997 34.130,226.987 34.450,226.095 35.285 C 225.493 35.848,224.451 36.585,223.781 36.923 C 223.062 37.285,222.118 38.351,221.483 39.519 C 220.766 40.836,219.982 41.676,219.148 42.022 C 218.291 42.377,217.657 43.073,217.151 44.218 C 216.397 45.921,215.754 46.638,214.311 47.384 C 213.868 47.613,213.170 48.693,212.760 49.785 C 212.324 50.943,211.485 52.183,210.745 52.762 C 209.989 53.353,208.934 54.930,208.134 56.660 C 207.277 58.514,206.302 59.939,205.440 60.597 C 204.525 61.295,203.947 62.173,203.652 63.314 C 203.352 64.475,202.590 65.615,201.208 66.974 C 200.104 68.060,199.200 69.090,199.200 69.264 C 199.200 69.729,197.130 70.719,194.296 71.607 C 191.025 72.633,154.132 72.834,151.320 71.842 C 149.691 71.268,147.079 72.160,143.600 74.479 C 143.050 74.846,142.092 75.271,141.471 75.424 C 140.833 75.581,140.193 76.091,140.001 76.598 C 139.586 77.689,137.740 79.200,136.823 79.200 C 135.534 79.200,134.561 80.231,135.164 80.957 C 135.644 81.535,138.246 81.600,161.069 81.600 C 188.796 81.600,188.185 81.550,189.162 83.908 C 189.976 85.874,188.515 90.682,186.828 91.585 C 186.075 91.988,185.772 92.721,184.781 96.532 C 184.460 97.763,183.714 99.068,182.722 100.132 C 181.760 101.163,180.939 102.579,180.572 103.838 C 179.772 106.587,179.479 106.895,175.881 108.773 L 172.762 110.400 138.881 110.440 C 101.624 110.484,103.497 110.371,101.804 112.669 C 101.142 113.568,100.106 114.605,99.502 114.973 C 98.205 115.764,97.724 117.277,98.341 118.629 L 98.783 119.600 133.778 119.600 L 168.772 119.600 170.134 120.795 C 172.756 123.098,172.063 135.156,168.994 140.644 C 168.393 141.720,167.649 143.445,167.341 144.478 C 166.194 148.333,170.181 147.997,125.246 148.025 C 96.300 148.043,85.056 148.178,83.004 148.533 L 80.209 149.017 79.891 151.208 C 79.716 152.414,79.624 154.570,79.686 156.000 L 79.800 158.600 121.400 158.800 C 167.391 159.021,164.727 158.854,166.099 161.600 C 166.678 162.759,166.801 164.136,166.812 169.600 C 166.820 173.230,166.991 177.460,167.192 179.000 C 167.613 182.223,166.961 184.215,165.200 185.091 C 164.422 185.478,154.889 185.590,122.324 185.594 C 98.340 185.597,80.353 185.752,80.228 185.955 C 80.107 186.151,80.592 186.756,81.306 187.301 C 82.545 188.246,83.330 189.940,84.380 193.932 C 85.077 196.581,84.284 196.540,128.800 196.254 C 172.538 195.974,169.994 195.820,172.879 198.924 C 174.825 201.019,175.057 201.459,176.195 205.200 C 176.598 206.525,177.409 207.964,178.233 208.818 C 179.020 209.633,179.899 211.162,180.301 212.415 C 180.844 214.109,181.328 214.806,182.472 215.546 C 183.281 216.069,184.122 216.970,184.340 217.549 C 187.745 226.580,190.390 225.980,147.087 225.991 C 116.290 225.999,112.207 226.072,110.887 226.635 L 109.400 227.270 112.339 228.735 C 114.262 229.694,115.476 230.579,115.850 231.297 C 116.264 232.090,116.920 232.519,118.216 232.846 C 119.203 233.094,120.413 233.722,120.905 234.242 L 121.800 235.186 158.646 235.193 C 194.031 235.200,195.530 235.230,196.446 235.948 C 196.972 236.361,198.745 236.919,200.400 237.192 C 204.339 237.841,206.877 238.946,207.724 240.379 C 208.172 241.138,209.040 241.743,210.293 242.170 C 211.333 242.524,212.908 243.518,213.792 244.377 C 214.747 245.306,216.503 246.379,218.117 247.020 C 219.970 247.756,221.156 248.521,221.845 249.424 C 222.448 250.214,223.370 250.861,224.128 251.026 C 226.417 251.525,229.440 253.071,230.323 254.194 C 231.028 255.089,231.764 255.403,234.277 255.877 C 238.010 256.582,238.656 256.881,240.200 258.617 C 242.701 261.430,258.251 261.423,260.465 258.608 C 261.737 256.991,263.152 256.482,268.341 255.776 C 273.058 255.133,273.232 255.074,274.695 253.611 C 276.291 252.016,275.910 252.126,284.542 250.787 C 286.810 250.436,287.455 250.158,288.276 249.182 C 289.541 247.680,292.151 246.912,297.528 246.460 C 301.584 246.120,301.677 246.089,302.798 244.729 C 304.242 242.977,305.924 242.472,311.768 242.035 L 316.373 241.692 318.218 240.067 C 320.292 238.242,321.440 237.925,328.600 237.198 C 332.656 236.786,333.097 236.657,334.244 235.551 C 335.574 234.268,338.831 233.079,342.300 232.609 C 345.412 232.188,344.564 231.767,339.510 231.225 C 332.719 230.497,330.811 230.044,328.391 228.585 C 326.516 227.454,325.458 227.155,321.391 226.602 C 315.004 225.735,313.939 225.420,312.050 223.841 C 310.681 222.698,309.947 222.430,307.121 222.038 C 301.368 221.242,300.063 220.825,298.598 219.317 C 297.408 218.091,296.794 217.837,293.460 217.192 C 289.419 216.409,287.846 215.777,286.651 214.456 C 285.833 213.553,284.578 213.085,281.157 212.410 C 279.450 212.073,278.422 211.547,276.857 210.212 C 275.290 208.874,274.255 208.346,272.501 207.988 C 269.949 207.468,268.235 206.564,266.911 205.042 C 266.387 204.439,265.100 203.767,263.717 203.374 C 262.201 202.943,260.847 202.203,259.800 201.234 C 258.920 200.420,257.210 199.331,256.000 198.814 C 254.790 198.297,253.170 197.204,252.400 196.385 C 251.630 195.565,250.351 194.688,249.559 194.436 C 248.078 193.964,246.710 192.741,246.270 191.494 C 246.133 191.106,245.521 190.607,244.910 190.386 C 242.530 189.523,241.607 188.736,233.539 180.690 C 225.689 172.862,224.068 170.876,223.462 168.351 C 223.307 167.705,222.767 167.118,222.059 166.824 C 220.773 166.292,220.342 165.609,219.246 162.370 C 218.831 161.143,217.997 159.613,217.393 158.970 C 215.859 157.337,215.381 156.018,214.578 151.200 C 214.110 148.390,213.573 146.537,212.955 145.600 C 209.669 140.621,209.836 119.244,213.185 116.214 C 214.042 115.438,214.640 113.049,214.991 109.000 C 215.351 104.842,215.909 103.192,217.424 101.804 C 218.439 100.874,218.937 99.926,219.432 97.984 C 220.232 94.848,220.892 93.504,222.107 92.535 C 223.081 91.760,223.774 90.287,224.217 88.054 C 224.372 87.272,225.202 85.948,226.198 84.894 C 227.140 83.896,228.143 82.342,228.427 81.440 C 229.287 78.703,229.908 77.733,231.345 76.885 C 232.291 76.327,232.810 75.667,233.007 74.770 C 233.164 74.053,234.052 72.641,234.980 71.633 C 235.908 70.625,237.360 68.664,238.206 67.276 C 239.052 65.887,240.116 64.553,240.572 64.310 C 241.660 63.731,242.285 62.924,243.051 61.108 C 243.406 60.267,244.272 59.250,245.034 58.779 C 245.846 58.277,246.695 57.248,247.154 56.212 C 247.749 54.865,248.252 54.361,249.416 53.941 C 250.586 53.518,251.074 53.026,251.647 51.690 C 252.224 50.344,252.744 49.824,254.090 49.247 C 255.426 48.674,255.918 48.186,256.341 47.016 C 256.758 45.859,257.266 45.349,258.576 44.769 C 259.880 44.193,260.412 43.660,260.883 42.462 C 261.352 41.269,261.886 40.732,263.166 40.167 C 264.441 39.605,265.014 39.031,265.579 37.755 C 266.149 36.467,266.664 35.956,267.816 35.541 C 268.969 35.124,269.475 34.623,270.015 33.364 C 270.559 32.097,271.133 31.532,272.559 30.861 C 273.571 30.385,274.400 29.747,274.400 29.442 C 274.400 28.498,275.835 27.059,277.249 26.587 C 278.107 26.300,279.018 25.517,279.744 24.441 C 280.374 23.509,281.364 22.566,281.944 22.345 C 286.517 20.607,283.075 18.884,277.303 20.022 M240.592 365.106 C 240.367 365.268,239.973 365.879,239.716 366.465 C 239.158 367.738,239.182 367.730,232.600 368.791 C 227.827 369.560,227.318 369.726,226.400 370.804 C 225.161 372.260,223.314 373.024,220.200 373.370 C 215.647 373.875,213.711 374.445,213.180 375.437 C 212.524 376.663,210.485 377.591,207.900 377.840 C 203.408 378.273,203.272 378.333,200.602 381.043 C 199.193 382.473,197.932 383.984,197.800 384.401 C 197.667 384.819,196.956 385.533,196.220 385.988 C 195.455 386.461,194.530 387.562,194.062 388.557 C 193.612 389.514,192.514 390.876,191.622 391.583 C 190.730 392.289,190.000 393.131,190.000 393.453 C 190.000 394.606,188.820 396.290,187.599 396.882 C 186.915 397.213,186.051 398.095,185.678 398.842 C 184.314 401.575,184.140 401.599,165.710 401.599 L 149.221 401.600 148.602 402.796 C 147.699 404.543,143.172 406.400,139.817 406.400 C 139.698 406.400,139.600 406.720,139.600 407.111 C 139.600 408.502,138.445 409.524,136.370 409.969 C 135.253 410.209,133.947 410.615,133.469 410.872 L 132.600 411.339 133.600 411.604 C 134.150 411.750,141.890 411.899,150.800 411.937 C 169.880 412.016,172.822 412.188,174.243 413.305 C 176.425 415.022,176.221 417.572,173.664 420.526 C 172.603 421.752,171.902 423.161,171.268 425.344 C 170.659 427.439,169.945 428.906,169.042 429.915 C 168.311 430.732,167.494 432.120,167.227 433.000 C 165.557 438.500,169.455 438.000,128.269 438.000 C 88.267 438.000,89.863 437.916,88.754 440.090 C 88.135 441.303,87.497 441.853,85.975 442.486 C 84.742 442.998,84.000 443.554,84.000 443.964 C 84.000 445.084,82.824 446.371,81.483 446.718 C 80.778 446.901,80.143 447.354,80.071 447.725 C 79.950 448.355,82.607 448.400,119.540 448.400 L 159.139 448.400 160.356 449.424 C 162.249 451.017,162.391 459.724,160.607 464.780 C 160.273 465.727,160.000 467.534,160.000 468.796 C 160.000 470.407,159.781 471.377,159.268 472.046 C 158.866 472.571,158.430 473.293,158.300 473.650 C 158.170 474.008,157.230 474.863,156.212 475.550 L 154.360 476.800 112.280 476.782 C 76.679 476.768,69.954 476.676,68.600 476.188 C 66.432 475.407,66.540 475.348,65.997 477.614 C 65.558 479.442,65.649 481.685,66.266 484.276 C 66.704 486.117,67.324 486.144,114.071 486.379 C 157.802 486.599,157.945 486.603,159.071 487.438 C 160.581 488.557,161.868 490.916,162.197 493.163 C 162.817 497.403,163.236 498.684,164.165 499.181 C 166.040 500.185,167.611 506.938,166.466 509.076 C 165.298 511.260,166.470 511.198,125.540 511.223 C 104.783 511.236,87.095 511.371,86.233 511.524 C 84.103 511.903,83.997 512.645,85.962 513.431 C 87.110 513.891,87.850 514.556,88.492 515.706 C 89.161 516.903,89.818 517.473,90.988 517.875 C 91.862 518.174,93.032 518.844,93.588 519.364 C 96.372 521.963,93.386 521.778,136.400 522.010 C 180.610 522.249,178.360 522.060,180.171 525.692 C 180.414 526.179,181.377 527.091,182.312 527.719 C 183.246 528.346,184.276 529.373,184.600 530.000 C 184.924 530.627,185.944 531.649,186.865 532.270 C 187.787 532.892,188.834 533.940,189.192 534.600 C 189.551 535.260,190.681 536.248,191.705 536.795 C 192.728 537.341,193.798 538.241,194.082 538.795 C 194.366 539.348,194.779 539.932,194.999 540.094 C 195.523 540.478,356.291 540.411,357.600 540.026 C 358.427 539.784,358.219 539.682,356.400 539.438 C 346.500 538.109,343.524 537.309,342.953 535.822 C 342.749 535.291,340.764 534.844,334.866 534.001 C 331.491 533.519,329.424 532.747,328.000 531.438 C 326.871 530.399,324.570 529.748,320.902 529.430 C 318.043 529.181,315.841 528.368,314.400 527.027 C 313.328 526.029,311.673 525.423,308.805 524.977 C 306.024 524.544,303.916 523.674,302.601 522.416 C 301.653 521.508,300.659 521.120,297.880 520.574 C 294.571 519.924,290.800 518.124,290.800 517.195 C 290.800 517.014,289.113 516.481,287.051 516.012 C 283.799 515.271,283.031 514.926,281.252 513.407 C 279.705 512.087,278.642 511.541,276.922 511.184 C 274.634 510.709,271.600 509.125,271.600 508.405 C 271.600 507.866,269.690 506.960,267.854 506.627 C 266.828 506.441,265.685 505.765,264.454 504.616 C 263.216 503.460,261.880 502.673,260.432 502.244 C 257.709 501.438,256.576 500.701,255.822 499.243 C 255.390 498.406,254.822 498.018,253.733 497.814 C 251.527 497.400,249.341 496.161,248.310 494.740 C 247.809 494.050,246.464 493.069,245.317 492.556 C 243.911 491.928,243.026 491.223,242.594 490.389 C 242.184 489.595,241.325 488.882,240.197 488.399 C 239.015 487.892,238.103 487.113,237.414 486.022 C 236.851 485.130,236.098 484.400,235.742 484.400 C 234.917 484.400,232.405 481.759,232.386 480.872 C 232.377 480.483,231.660 479.863,230.686 479.400 C 229.586 478.878,228.706 478.067,228.153 477.068 C 227.688 476.226,226.736 475.189,226.038 474.764 C 225.286 474.307,224.466 473.287,224.026 472.260 C 223.556 471.164,222.781 470.232,221.916 469.722 C 220.844 469.089,220.349 468.363,219.621 466.357 C 219.111 464.951,218.001 462.970,217.156 461.956 C 215.910 460.461,215.447 459.399,214.712 456.356 C 214.057 453.641,213.553 452.396,212.895 451.865 C 210.699 450.093,210.009 445.445,210.004 432.400 C 209.998 419.704,210.732 414.809,212.945 412.756 C 213.745 412.014,214.122 411.044,214.611 408.470 C 215.419 404.208,215.751 403.372,217.332 401.623 C 218.141 400.727,218.978 399.082,219.555 397.256 C 220.330 394.799,220.699 394.197,221.840 393.524 C 222.588 393.082,223.200 392.457,223.200 392.135 C 223.200 390.870,225.463 387.027,226.877 385.890 C 227.787 385.159,228.584 384.048,228.917 383.045 C 229.292 381.917,229.953 381.067,231.018 380.342 C 231.957 379.703,232.847 378.636,233.267 377.648 C 233.669 376.703,234.500 375.684,235.235 375.237 C 235.934 374.812,236.888 373.774,237.353 372.932 C 237.906 371.933,238.786 371.122,239.886 370.600 C 241.143 370.003,241.575 369.563,241.586 368.869 C 241.604 367.680,243.656 365.612,244.869 365.560 C 245.795 365.520,245.795 365.519,244.800 365.200 C 243.502 364.784,241.113 364.731,240.592 365.106 " stroke="none" fill="#063e7e" fill-rule="evenodd"></path><path id="path3" d="M286.161 16.102 C 285.363 16.730,283.427 17.232,278.678 18.045 C 274.014 18.843,271.530 19.483,269.547 20.396 C 267.731 21.234,264.988 21.985,261.312 22.651 C 258.280 23.201,254.720 24.109,253.400 24.669 C 250.581 25.866,246.712 26.917,242.050 27.753 C 240.041 28.114,237.558 28.916,235.850 29.755 C 234.101 30.615,231.393 31.481,228.843 31.997 C 223.577 33.063,222.794 33.485,220.926 36.267 C 220.087 37.517,218.796 39.094,218.058 39.770 C 217.320 40.447,216.156 41.810,215.470 42.800 C 214.785 43.790,213.729 45.017,213.123 45.527 C 212.517 46.036,211.539 47.339,210.950 48.420 C 210.362 49.502,209.459 50.663,208.943 51.000 C 208.428 51.338,207.567 52.482,207.029 53.542 C 206.492 54.603,205.385 56.344,204.570 57.412 C 203.755 58.480,202.674 60.264,202.168 61.377 C 201.661 62.490,200.021 64.685,198.524 66.255 L 195.800 69.109 191.200 69.398 C 188.670 69.557,177.870 69.642,167.200 69.588 C 156.530 69.533,147.207 69.514,146.483 69.545 C 145.532 69.585,144.642 70.081,143.283 71.329 C 142.247 72.280,140.744 73.453,139.941 73.936 C 139.139 74.419,138.191 75.260,137.834 75.804 C 137.477 76.348,136.282 77.252,135.178 77.811 C 131.908 79.468,131.666 81.476,134.526 83.220 C 135.752 83.968,136.753 83.997,161.051 83.999 C 188.621 84.000,187.773 83.926,186.527 86.221 C 185.005 89.023,184.437 90.364,183.650 93.019 C 183.112 94.834,182.338 96.374,181.479 97.339 C 180.688 98.229,179.788 99.947,179.268 101.562 C 177.550 106.896,180.392 106.530,138.710 106.785 L 103.620 107.000 100.636 109.964 C 96.891 113.685,95.568 116.355,95.892 119.539 C 96.294 123.492,93.283 123.197,133.264 123.199 L 167.929 123.200 168.964 124.431 C 169.534 125.108,170.000 125.992,170.000 126.396 C 170.000 128.321,168.699 133.563,167.629 135.945 C 166.973 137.405,166.051 139.950,165.579 141.600 C 165.106 143.250,164.440 144.915,164.098 145.300 C 163.514 145.958,161.093 146.000,124.005 146.000 C 95.960 146.000,83.873 146.133,82.254 146.458 C 79.534 147.004,78.000 148.489,78.000 150.576 C 78.000 152.523,77.283 155.951,76.583 157.355 C 76.016 158.491,76.024 158.630,76.684 159.136 C 78.895 160.832,78.074 160.800,119.367 160.800 C 166.573 160.800,164.400 160.586,164.400 165.233 C 164.400 166.503,164.567 168.860,164.770 170.471 C 164.974 172.082,165.237 175.265,165.356 177.545 L 165.572 181.690 164.417 182.845 L 163.262 184.000 121.631 184.000 C 80.533 184.000,79.990 184.010,79.200 184.800 C 77.906 186.094,78.447 189.109,80.369 191.311 C 80.988 192.020,81.970 193.542,82.550 194.693 C 84.854 199.258,83.606 199.196,152.772 198.182 C 169.148 197.942,169.572 197.989,170.665 200.156 C 171.009 200.840,171.721 201.860,172.245 202.422 C 172.770 202.984,173.719 204.869,174.355 206.612 C 174.990 208.354,176.047 210.420,176.703 211.202 C 177.360 211.984,178.351 213.518,178.905 214.612 C 179.460 215.705,180.293 216.943,180.757 217.362 C 181.431 217.971,181.600 218.592,181.600 220.460 L 181.600 222.796 144.700 222.898 L 107.800 223.000 107.021 225.263 C 106.098 227.944,106.283 228.322,109.260 229.830 C 110.311 230.363,111.786 231.339,112.539 232.000 C 113.292 232.661,114.905 233.659,116.123 234.216 C 117.341 234.774,118.987 235.899,119.780 236.715 L 121.222 238.200 160.311 238.410 C 203.799 238.644,201.271 238.475,204.653 241.365 C 205.504 242.091,207.010 243.091,208.000 243.586 C 208.990 244.081,210.342 245.000,211.004 245.629 C 211.666 246.257,213.553 247.426,215.197 248.225 C 216.841 249.025,218.792 250.212,219.532 250.863 C 220.273 251.513,221.856 252.477,223.050 253.005 C 224.244 253.533,226.009 254.532,226.973 255.224 C 227.959 255.932,230.011 256.824,231.663 257.264 C 234.809 258.100,236.182 258.736,238.755 260.548 C 240.093 261.490,241.130 261.793,244.545 262.238 C 250.501 263.014,250.482 263.015,256.218 261.687 C 261.470 260.472,263.144 259.873,265.458 258.385 C 266.158 257.934,268.640 257.212,271.058 256.756 C 274.339 256.137,276.084 255.561,278.200 254.398 C 280.159 253.321,282.063 252.661,284.539 252.198 C 288.568 251.445,291.071 250.641,292.000 249.800 C 293.002 248.893,295.692 248.080,299.294 247.594 C 301.616 247.282,303.641 246.672,306.099 245.546 C 308.598 244.401,310.886 243.718,314.099 243.158 C 317.413 242.581,319.444 241.964,321.800 240.820 C 324.208 239.652,326.040 239.103,329.200 238.607 C 334.790 237.728,336.121 237.360,339.249 235.825 C 340.706 235.110,343.721 234.025,345.949 233.414 C 348.177 232.803,350.000 232.136,350.000 231.932 C 350.000 231.378,346.776 230.021,345.400 229.996 C 342.425 229.943,335.597 228.429,332.804 227.203 C 330.895 226.364,328.429 225.684,326.004 225.326 C 320.998 224.588,319.602 224.204,315.879 222.535 C 314.162 221.765,311.012 220.789,308.879 220.364 C 306.278 219.847,304.011 219.082,302.000 218.042 C 300.350 217.189,297.832 216.193,296.405 215.829 C 294.977 215.465,292.509 214.454,290.919 213.581 C 289.330 212.709,286.807 211.723,285.314 211.389 C 281.892 210.625,281.214 210.333,279.549 208.904 C 278.132 207.687,276.890 207.115,274.137 206.413 C 273.222 206.180,271.607 205.273,270.548 204.397 C 269.474 203.510,267.536 202.444,266.166 201.989 C 264.816 201.539,263.011 200.574,262.155 199.843 C 261.300 199.112,259.790 198.107,258.800 197.609 C 257.810 197.111,256.263 196.106,255.362 195.376 C 254.462 194.646,252.715 193.571,251.481 192.986 C 250.235 192.397,248.773 191.316,248.195 190.558 C 247.622 189.807,246.489 188.850,245.677 188.431 C 242.948 187.024,226.869 170.492,225.416 167.600 C 225.029 166.830,224.034 165.480,223.204 164.600 C 222.204 163.540,221.400 162.094,220.820 160.315 C 220.339 158.839,219.477 156.949,218.905 156.115 C 217.313 153.795,216.452 151.174,215.810 146.690 C 215.488 144.441,214.854 141.340,214.402 139.800 C 212.488 133.291,212.312 131.021,213.515 128.400 C 213.993 127.359,214.419 125.419,214.526 123.800 C 214.628 122.260,215.010 119.560,215.376 117.800 C 215.742 116.040,216.295 113.269,216.606 111.643 C 216.917 110.017,217.878 107.227,218.741 105.443 C 219.605 103.659,220.603 101.177,220.959 99.926 C 221.316 98.675,222.259 96.798,223.055 95.755 C 223.851 94.712,224.911 92.612,225.410 91.089 C 226.000 89.287,226.807 87.808,227.716 86.859 C 228.486 86.057,229.739 84.034,230.502 82.364 C 231.265 80.694,232.168 79.221,232.510 79.090 C 232.852 78.959,233.787 77.733,234.589 76.365 C 235.390 74.998,236.490 73.529,237.034 73.102 C 237.578 72.674,238.369 71.645,238.792 70.815 C 239.216 69.985,240.436 68.337,241.504 67.153 C 242.572 65.969,243.873 64.370,244.396 63.600 C 244.918 62.830,245.988 61.467,246.773 60.572 C 247.558 59.676,248.508 58.370,248.884 57.668 C 249.260 56.966,250.185 56.028,250.939 55.583 C 251.694 55.138,252.769 54.081,253.329 53.236 C 253.888 52.390,254.974 51.311,255.741 50.836 C 256.508 50.362,257.507 49.346,257.960 48.579 C 258.412 47.811,259.397 46.821,260.147 46.378 C 260.898 45.935,261.969 44.881,262.529 44.036 C 263.088 43.190,264.174 42.111,264.941 41.636 C 265.708 41.162,266.707 40.146,267.160 39.379 C 267.612 38.611,268.611 37.612,269.379 37.160 C 270.146 36.707,271.162 35.708,271.636 34.941 C 272.111 34.174,273.156 33.111,273.959 32.580 C 274.763 32.048,275.731 31.087,276.110 30.444 C 276.490 29.802,277.655 28.781,278.700 28.175 C 279.745 27.570,281.232 26.428,282.005 25.637 C 282.777 24.847,284.247 23.529,285.271 22.708 C 286.450 21.763,287.229 20.778,287.395 20.021 C 287.540 19.364,288.081 18.203,288.598 17.442 L 289.538 16.056 288.388 15.656 C 287.438 15.325,287.051 15.402,286.161 16.102 M283.696 20.154 C 284.522 20.781,283.851 21.620,281.944 22.345 C 281.364 22.566,280.374 23.509,279.744 24.441 C 279.018 25.517,278.107 26.300,277.249 26.587 C 275.835 27.059,274.400 28.498,274.400 29.442 C 274.400 29.747,273.571 30.385,272.559 30.861 C 271.133 31.532,270.559 32.097,270.015 33.364 C 269.475 34.623,268.969 35.124,267.816 35.541 C 266.664 35.956,266.149 36.467,265.579 37.755 C 265.014 39.031,264.441 39.605,263.166 40.167 C 261.886 40.732,261.352 41.269,260.883 42.462 C 260.412 43.660,259.880 44.193,258.576 44.769 C 257.266 45.349,256.758 45.859,256.341 47.016 C 255.918 48.186,255.426 48.674,254.090 49.247 C 252.744 49.824,252.224 50.344,251.647 51.690 C 251.074 53.026,250.586 53.518,249.416 53.941 C 248.252 54.361,247.749 54.865,247.154 56.212 C 246.695 57.248,245.846 58.277,245.034 58.779 C 244.272 59.250,243.406 60.267,243.051 61.108 C 242.285 62.924,241.660 63.731,240.572 64.310 C 240.116 64.553,239.052 65.887,238.206 67.276 C 237.360 68.664,235.908 70.625,234.980 71.633 C 234.052 72.641,233.164 74.053,233.007 74.770 C 232.810 75.667,232.291 76.327,231.345 76.885 C 229.908 77.733,229.287 78.703,228.427 81.440 C 228.143 82.342,227.140 83.896,226.198 84.894 C 225.202 85.948,224.372 87.272,224.217 88.054 C 223.774 90.287,223.081 91.760,222.107 92.535 C 220.892 93.504,220.232 94.848,219.432 97.984 C 218.937 99.926,218.439 100.874,217.424 101.804 C 215.909 103.192,215.351 104.842,214.991 109.000 C 214.640 113.049,214.042 115.438,213.185 116.214 C 209.836 119.244,209.669 140.621,212.955 145.600 C 213.573 146.537,214.110 148.390,214.578 151.200 C 215.381 156.018,215.859 157.337,217.393 158.970 C 217.997 159.613,218.831 161.143,219.246 162.370 C 220.342 165.609,220.773 166.292,222.059 166.824 C 222.767 167.118,223.307 167.705,223.462 168.351 C 224.068 170.876,225.689 172.862,233.539 180.690 C 241.607 188.736,242.530 189.523,244.910 190.386 C 245.521 190.607,246.133 191.106,246.270 191.494 C 246.710 192.741,248.078 193.964,249.559 194.436 C 250.351 194.688,251.630 195.565,252.400 196.385 C 253.170 197.204,254.790 198.297,256.000 198.814 C 257.210 199.331,258.920 200.420,259.800 201.234 C 260.847 202.203,262.201 202.943,263.717 203.374 C 265.100 203.767,266.387 204.439,266.911 205.042 C 268.235 206.564,269.949 207.468,272.501 207.988 C 274.255 208.346,275.290 208.874,276.857 210.212 C 278.422 211.547,279.450 212.073,281.157 212.410 C 284.578 213.085,285.833 213.553,286.651 214.456 C 287.846 215.777,289.419 216.409,293.460 217.192 C 296.794 217.837,297.408 218.091,298.598 219.317 C 300.063 220.825,301.368 221.242,307.121 222.038 C 309.947 222.430,310.681 222.698,312.050 223.841 C 313.939 225.420,315.004 225.735,321.391 226.602 C 325.458 227.155,326.516 227.454,328.391 228.585 C 330.811 230.044,332.719 230.497,339.510 231.225 C 344.564 231.767,345.412 232.188,342.300 232.609 C 338.831 233.079,335.574 234.268,334.244 235.551 C 333.097 236.657,332.656 236.786,328.600 237.198 C 321.440 237.925,320.292 238.242,318.218 240.067 L 316.373 241.692 311.768 242.035 C 305.924 242.472,304.242 242.977,302.798 244.729 C 301.677 246.089,301.584 246.120,297.528 246.460 C 292.151 246.912,289.541 247.680,288.276 249.182 C 287.455 250.158,286.810 250.436,284.542 250.787 C 275.910 252.126,276.291 252.016,274.695 253.611 C 273.232 255.074,273.058 255.133,268.341 255.776 C 263.152 256.482,261.737 256.991,260.465 258.608 C 258.251 261.423,242.701 261.430,240.200 258.617 C 238.656 256.881,238.010 256.582,234.277 255.877 C 231.764 255.403,231.028 255.089,230.323 254.194 C 229.440 253.071,226.417 251.525,224.128 251.026 C 223.370 250.861,222.448 250.214,221.845 249.424 C 221.156 248.521,219.970 247.756,218.117 247.020 C 216.503 246.379,214.747 245.306,213.792 244.377 C 212.908 243.518,211.333 242.524,210.293 242.170 C 209.040 241.743,208.172 241.138,207.724 240.379 C 206.877 238.946,204.339 237.841,200.400 237.192 C 198.745 236.919,196.972 236.361,196.446 235.948 C 195.530 235.230,194.031 235.200,158.646 235.193 L 121.800 235.186 120.905 234.242 C 120.413 233.722,119.203 233.094,118.216 232.846 C 116.920 232.519,116.264 232.090,115.850 231.297 C 115.476 230.579,114.262 229.694,112.339 228.735 L 109.400 227.270 110.887 226.635 C 112.207 226.072,116.290 225.999,147.087 225.991 C 190.390 225.980,187.745 226.580,184.340 217.549 C 184.122 216.970,183.281 216.069,182.472 215.546 C 181.328 214.806,180.844 214.109,180.301 212.415 C 179.899 211.162,179.020 209.633,178.233 208.818 C 177.409 207.964,176.598 206.525,176.195 205.200 C 175.057 201.459,174.825 201.019,172.879 198.924 C 169.994 195.820,172.538 195.974,128.800 196.254 C 84.284 196.540,85.077 196.581,84.380 193.932 C 83.330 189.940,82.545 188.246,81.306 187.301 C 80.592 186.756,80.107 186.151,80.228 185.955 C 80.353 185.752,98.340 185.597,122.324 185.594 C 154.889 185.590,164.422 185.478,165.200 185.091 C 166.961 184.215,167.613 182.223,167.192 179.000 C 166.991 177.460,166.820 173.230,166.812 169.600 C 166.801 164.136,166.678 162.759,166.099 161.600 C 164.727 158.854,167.391 159.021,121.400 158.800 L 79.800 158.600 79.686 156.000 C 79.624 154.570,79.716 152.414,79.891 151.208 L 80.209 149.017 83.004 148.533 C 85.056 148.178,96.300 148.043,125.246 148.025 C 170.181 147.997,166.194 148.333,167.341 144.478 C 167.649 143.445,168.393 141.720,168.994 140.644 C 172.063 135.156,172.756 123.098,170.134 120.795 L 168.772 119.600 133.778 119.600 L 98.783 119.600 98.341 118.629 C 97.724 117.277,98.205 115.764,99.502 114.973 C 100.106 114.605,101.142 113.568,101.804 112.669 C 103.497 110.371,101.624 110.484,138.881 110.440 L 172.762 110.400 175.881 108.773 C 179.479 106.895,179.772 106.587,180.572 103.838 C 180.939 102.579,181.760 101.163,182.722 100.132 C 183.714 99.068,184.460 97.763,184.781 96.532 C 185.772 92.721,186.075 91.988,186.828 91.585 C 188.515 90.682,189.976 85.874,189.162 83.908 C 188.185 81.550,188.796 81.600,161.069 81.600 C 138.246 81.600,135.644 81.535,135.164 80.957 C 134.561 80.231,135.534 79.200,136.823 79.200 C 137.740 79.200,139.586 77.689,140.001 76.598 C 140.193 76.091,140.833 75.581,141.471 75.424 C 142.092 75.271,143.050 74.846,143.600 74.479 C 147.079 72.160,149.691 71.268,151.320 71.842 C 154.132 72.834,191.025 72.633,194.296 71.607 C 197.130 70.719,199.200 69.729,199.200 69.264 C 199.200 69.090,200.104 68.060,201.208 66.974 C 202.590 65.615,203.352 64.475,203.652 63.314 C 203.947 62.173,204.525 61.295,205.440 60.597 C 206.302 59.939,207.277 58.514,208.134 56.660 C 208.934 54.930,209.989 53.353,210.745 52.762 C 211.485 52.183,212.324 50.943,212.760 49.785 C 213.170 48.693,213.868 47.613,214.311 47.384 C 215.754 46.638,216.397 45.921,217.151 44.218 C 217.657 43.073,218.291 42.377,219.148 42.022 C 219.982 41.676,220.766 40.836,221.483 39.519 C 222.118 38.351,223.062 37.285,223.781 36.923 C 224.451 36.585,225.493 35.848,226.095 35.285 C 226.987 34.450,227.997 34.130,231.562 33.554 C 237.572 32.584,239.005 32.147,240.510 30.825 C 241.549 29.913,242.451 29.591,245.005 29.222 C 253.848 27.943,255.382 27.619,256.377 26.819 C 256.939 26.366,257.760 25.737,258.200 25.422 C 258.664 25.089,261.267 24.593,264.400 24.240 C 270.893 23.510,272.093 23.180,274.079 21.585 C 276.297 19.802,282.097 18.940,283.696 20.154 M249.402 360.549 C 248.679 361.078,248.685 361.110,249.565 361.389 C 250.566 361.706,251.449 361.127,251.022 360.435 C 250.667 359.861,250.308 359.886,249.402 360.549 M242.065 362.822 C 240.117 363.259,237.655 364.172,236.142 365.017 C 234.366 366.011,232.346 366.708,229.701 367.240 C 227.582 367.666,225.297 368.371,224.624 368.806 C 222.052 370.469,219.292 371.545,216.400 372.012 C 213.319 372.509,212.219 372.933,209.868 374.528 C 209.123 375.034,207.453 375.674,206.157 375.950 C 200.834 377.087,200.307 377.387,196.852 381.263 C 195.073 383.258,193.003 385.815,192.253 386.945 C 191.502 388.075,190.493 389.356,190.011 389.792 C 189.529 390.227,188.873 391.217,188.555 391.992 C 188.236 392.766,187.216 394.147,186.288 395.059 C 185.359 395.972,184.040 397.367,183.357 398.159 L 182.113 399.600 165.837 399.600 C 148.043 399.600,148.434 399.553,145.800 402.008 C 145.072 402.687,143.448 403.466,141.674 403.988 C 139.722 404.563,138.253 405.296,137.263 406.191 C 136.446 406.928,134.585 408.010,133.126 408.594 C 129.483 410.052,128.759 410.879,129.983 412.181 C 131.254 413.534,132.200 413.605,153.489 413.923 C 171.827 414.198,171.985 414.207,172.858 415.080 L 173.738 415.960 172.288 417.822 C 171.490 418.845,170.441 420.879,169.957 422.342 C 169.472 423.804,168.381 425.990,167.531 427.200 C 166.445 428.747,165.849 430.141,165.523 431.896 C 165.207 433.604,164.757 434.677,164.098 435.296 L 163.136 436.200 126.268 436.400 C 86.473 436.616,88.441 436.496,86.789 438.815 C 86.312 439.485,85.085 440.424,84.061 440.903 C 80.554 442.545,76.570 447.359,77.646 448.655 C 79.125 450.438,78.247 450.399,117.880 450.410 C 163.750 450.421,160.533 449.953,159.004 456.400 C 157.177 464.104,156.790 466.255,156.795 468.669 C 156.799 470.747,156.636 471.334,155.764 472.369 L 154.729 473.600 110.264 473.609 C 62.984 473.618,62.400 473.641,62.400 475.481 C 62.400 475.786,62.984 478.575,63.999 483.112 C 64.628 485.926,65.871 487.300,68.727 488.341 C 71.078 489.199,71.147 489.200,112.441 489.207 L 153.800 489.213 156.308 490.129 C 157.687 490.632,159.088 491.433,159.420 491.907 C 159.853 492.525,161.600 499.185,161.600 500.217 C 161.600 500.257,162.140 500.969,162.800 501.800 C 164.105 503.443,164.532 507.308,163.520 508.320 C 163.154 508.686,154.120 508.806,125.420 508.824 C 104.729 508.837,86.939 508.989,85.886 509.163 C 84.001 509.473,81.600 511.175,81.600 512.202 C 81.600 512.763,88.231 518.880,89.600 519.581 C 90.150 519.863,91.373 520.837,92.317 521.747 L 94.034 523.400 133.717 523.600 C 180.485 523.836,174.067 522.798,182.759 531.530 C 189.457 538.259,191.043 539.605,193.697 540.810 C 195.362 541.565,197.199 541.583,275.400 541.588 C 352.978 541.594,359.585 541.502,363.686 540.362 L 365.400 539.885 363.606 539.086 C 362.619 538.647,360.099 538.037,358.006 537.732 C 353.421 537.062,350.475 536.254,347.943 534.971 C 346.903 534.444,343.747 533.554,340.930 532.994 C 337.415 532.294,334.922 531.537,332.983 530.579 C 331.227 529.711,328.416 528.814,325.554 528.207 C 320.208 527.075,319.873 526.965,317.969 525.721 C 317.182 525.206,314.829 524.362,312.740 523.845 C 308.870 522.886,307.788 522.450,305.980 521.119 C 305.418 520.705,303.078 519.824,300.780 519.159 C 298.172 518.405,295.848 517.437,294.600 516.586 C 292.994 515.489,288.397 514.000,286.617 514.000 C 286.546 514.000,285.616 513.280,284.552 512.401 C 282.664 510.841,281.893 510.482,278.600 509.632 C 277.720 509.405,276.159 508.522,275.131 507.671 C 273.934 506.680,272.370 505.873,270.786 505.428 C 269.062 504.944,267.795 504.259,266.615 503.172 C 265.599 502.235,263.817 501.197,262.161 500.578 C 260.418 499.926,258.810 498.973,257.800 497.992 C 256.920 497.137,255.480 496.143,254.600 495.783 C 253.720 495.423,252.010 494.364,250.800 493.429 C 249.590 492.494,247.790 491.258,246.800 490.681 C 245.810 490.105,244.775 489.268,244.500 488.821 C 244.224 488.375,243.234 487.533,242.300 486.951 C 240.486 485.821,239.550 484.970,233.600 479.038 C 227.893 473.348,226.141 471.432,225.477 470.157 C 225.146 469.521,224.265 468.460,223.520 467.800 C 222.687 467.062,221.724 465.522,221.018 463.800 C 220.386 462.260,219.324 460.293,218.658 459.428 C 217.943 458.501,217.003 456.370,216.363 454.228 C 215.767 452.233,214.817 449.700,214.252 448.600 C 210.746 441.765,210.709 423.952,214.186 416.443 C 214.960 414.769,215.936 411.900,216.354 410.066 C 216.880 407.760,217.550 406.095,218.529 404.666 C 219.307 403.530,220.415 401.340,220.991 399.800 C 221.567 398.260,222.559 396.460,223.194 395.800 C 223.830 395.140,224.700 393.781,225.126 392.781 C 225.553 391.780,226.650 390.097,227.565 389.041 C 228.479 387.984,229.668 386.249,230.208 385.185 C 230.747 384.120,231.812 382.774,232.573 382.193 C 233.335 381.612,234.348 380.476,234.824 379.668 C 235.300 378.861,236.397 377.480,237.262 376.600 C 238.127 375.720,241.017 372.790,243.685 370.089 L 248.536 365.178 248.168 363.689 C 247.714 361.850,246.907 361.735,242.065 362.822 M244.800 365.200 C 245.795 365.519,245.795 365.520,244.869 365.560 C 243.656 365.612,241.604 367.680,241.586 368.869 C 241.575 369.563,241.143 370.003,239.886 370.600 C 238.786 371.122,237.906 371.933,237.353 372.932 C 236.888 373.774,235.934 374.812,235.235 375.237 C 234.500 375.684,233.669 376.703,233.267 377.648 C 232.847 378.636,231.957 379.703,231.018 380.342 C 229.953 381.067,229.292 381.917,228.917 383.045 C 228.584 384.048,227.787 385.159,226.877 385.890 C 225.463 387.027,223.200 390.870,223.200 392.135 C 223.200 392.457,222.588 393.082,221.840 393.524 C 220.699 394.197,220.330 394.799,219.555 397.256 C 218.978 399.082,218.141 400.727,217.332 401.623 C 215.751 403.372,215.419 404.208,214.611 408.470 C 214.122 411.044,213.745 412.014,212.945 412.756 C 210.732 414.809,209.998 419.704,210.004 432.400 C 210.009 445.445,210.699 450.093,212.895 451.865 C 213.553 452.396,214.057 453.641,214.712 456.356 C 215.447 459.399,215.910 460.461,217.156 461.956 C 218.001 462.970,219.111 464.951,219.621 466.357 C 220.349 468.363,220.844 469.089,221.916 469.722 C 222.781 470.232,223.556 471.164,224.026 472.260 C 224.466 473.287,225.286 474.307,226.038 474.764 C 226.736 475.189,227.688 476.226,228.153 477.068 C 228.706 478.067,229.586 478.878,230.686 479.400 C 231.660 479.863,232.377 480.483,232.386 480.872 C 232.405 481.759,234.917 484.400,235.742 484.400 C 236.098 484.400,236.851 485.130,237.414 486.022 C 238.103 487.113,239.015 487.892,240.197 488.399 C 241.325 488.882,242.184 489.595,242.594 490.389 C 243.026 491.223,243.911 491.928,245.317 492.556 C 246.464 493.069,247.809 494.050,248.310 494.740 C 249.341 496.161,251.527 497.400,253.733 497.814 C 254.822 498.018,255.390 498.406,255.822 499.243 C 256.576 500.701,257.709 501.438,260.432 502.244 C 261.880 502.673,263.216 503.460,264.454 504.616 C 265.685 505.765,266.828 506.441,267.854 506.627 C 269.690 506.960,271.600 507.866,271.600 508.405 C 271.600 509.125,274.634 510.709,276.922 511.184 C 278.642 511.541,279.705 512.087,281.252 513.407 C 283.031 514.926,283.799 515.271,287.051 516.012 C 289.113 516.481,290.800 517.014,290.800 517.195 C 290.800 518.124,294.571 519.924,297.880 520.574 C 300.659 521.120,301.653 521.508,302.601 522.416 C 303.916 523.674,306.024 524.544,308.805 524.977 C 311.673 525.423,313.328 526.029,314.400 527.027 C 315.841 528.368,318.043 529.181,320.902 529.430 C 324.570 529.748,326.871 530.399,328.000 531.438 C 329.424 532.747,331.491 533.519,334.866 534.001 C 340.764 534.844,342.749 535.291,342.953 535.822 C 343.524 537.309,346.500 538.109,356.400 539.438 C 358.219 539.682,358.427 539.784,357.600 540.026 C 356.291 540.411,195.523 540.478,194.999 540.094 C 194.779 539.932,194.366 539.348,194.082 538.795 C 193.798 538.241,192.728 537.341,191.705 536.795 C 190.681 536.248,189.551 535.260,189.192 534.600 C 188.834 533.940,187.787 532.892,186.865 532.270 C 185.944 531.649,184.924 530.627,184.600 530.000 C 184.276 529.373,183.246 528.346,182.312 527.719 C 181.377 527.091,180.414 526.179,180.171 525.692 C 178.360 522.060,180.610 522.249,136.400 522.010 C 93.386 521.778,96.372 521.963,93.588 519.364 C 93.032 518.844,91.862 518.174,90.988 517.875 C 89.818 517.473,89.161 516.903,88.492 515.706 C 87.850 514.556,87.110 513.891,85.962 513.431 C 83.997 512.645,84.103 511.903,86.233 511.524 C 87.095 511.371,104.783 511.236,125.540 511.223 C 166.470 511.198,165.298 511.260,166.466 509.076 C 167.611 506.938,166.040 500.185,164.165 499.181 C 163.236 498.684,162.817 497.403,162.197 493.163 C 161.868 490.916,160.581 488.557,159.071 487.438 C 157.945 486.603,157.802 486.599,114.071 486.379 C 67.324 486.144,66.704 486.117,66.266 484.276 C 65.649 481.685,65.558 479.442,65.997 477.614 C 66.540 475.348,66.432 475.407,68.600 476.188 C 69.954 476.676,76.679 476.768,112.280 476.782 L 154.360 476.800 156.212 475.550 C 157.230 474.863,158.170 474.008,158.300 473.650 C 158.430 473.293,158.866 472.571,159.268 472.046 C 159.781 471.377,160.000 470.407,160.000 468.796 C 160.000 467.534,160.273 465.727,160.607 464.780 C 162.391 459.724,162.249 451.017,160.356 449.424 L 159.139 448.400 119.540 448.400 C 82.607 448.400,79.950 448.355,80.071 447.725 C 80.143 447.354,80.778 446.901,81.483 446.718 C 82.824 446.371,84.000 445.084,84.000 443.964 C 84.000 443.554,84.742 442.998,85.975 442.486 C 87.497 441.853,88.135 441.303,88.754 440.090 C 89.863 437.916,88.267 438.000,128.269 438.000 C 169.455 438.000,165.557 438.500,167.227 433.000 C 167.494 432.120,168.311 430.732,169.042 429.915 C 169.945 428.906,170.659 427.439,171.268 425.344 C 171.902 423.161,172.603 421.752,173.664 420.526 C 176.221 417.572,176.425 415.022,174.243 413.305 C 172.822 412.188,169.880 412.016,150.800 411.937 C 141.890 411.899,134.150 411.750,133.600 411.604 L 132.600 411.339 133.469 410.872 C 133.947 410.615,135.253 410.209,136.370 409.969 C 138.445 409.524,139.600 408.502,139.600 407.111 C 139.600 406.720,139.698 406.400,139.817 406.400 C 143.172 406.400,147.699 404.543,148.602 402.796 L 149.221 401.600 165.710 401.599 C 184.140 401.599,184.314 401.575,185.678 398.842 C 186.051 398.095,186.915 397.213,187.599 396.882 C 188.820 396.290,190.000 394.606,190.000 393.453 C 190.000 393.131,190.730 392.289,191.622 391.583 C 192.514 390.876,193.612 389.514,194.062 388.557 C 194.530 387.562,195.455 386.461,196.220 385.988 C 196.956 385.533,197.667 384.819,197.800 384.401 C 197.932 383.984,199.193 382.473,200.602 381.043 C 203.272 378.333,203.408 378.273,207.900 377.840 C 210.485 377.591,212.524 376.663,213.180 375.437 C 213.711 374.445,215.647 373.875,220.200 373.370 C 223.314 373.024,225.161 372.260,226.400 370.804 C 227.318 369.726,227.827 369.560,232.600 368.791 C 239.182 367.730,239.158 367.738,239.716 366.465 C 240.465 364.759,242.129 364.345,244.800 365.200 " stroke="none" fill="#346ca4" fill-rule="evenodd"></path><path id="path4" d="M285.728 12.863 C 283.634 13.221,282.048 14.037,280.928 15.333 C 279.978 16.432,279.140 16.606,272.932 16.994 C 268.375 17.280,265.639 18.069,264.044 19.559 C 262.655 20.857,262.005 21.015,255.686 21.600 C 250.574 22.073,248.546 22.736,247.040 24.426 C 246.464 25.072,245.654 25.600,245.239 25.600 C 239.274 25.600,233.869 26.846,231.973 28.657 C 230.654 29.917,230.228 30.063,226.373 30.576 C 221.067 31.282,220.947 31.336,219.824 33.550 C 219.308 34.567,218.147 35.993,217.243 36.719 C 216.339 37.444,215.600 38.258,215.600 38.528 C 215.600 38.797,214.591 40.094,213.357 41.409 C 210.583 44.366,209.965 45.276,209.635 46.890 C 209.441 47.839,208.978 48.366,207.800 48.980 C 206.491 49.661,206.133 50.124,205.686 51.712 C 205.259 53.225,204.820 53.830,203.578 54.614 C 201.873 55.690,200.910 57.488,200.522 60.318 C 200.324 61.764,200.089 62.119,199.043 62.556 C 197.471 63.214,196.768 64.061,196.434 65.702 C 196.061 67.531,195.232 67.583,167.732 67.519 C 141.704 67.459,143.370 67.279,141.425 70.361 C 140.696 71.516,140.100 71.967,139.044 72.165 C 137.550 72.446,136.000 74.001,136.000 75.219 C 136.000 75.742,135.557 76.005,134.319 76.214 C 133.078 76.423,132.119 76.993,130.652 78.392 L 128.667 80.286 129.134 82.612 C 130.086 87.352,129.128 87.200,157.986 87.200 L 181.617 87.200 182.050 88.150 C 182.830 89.863,182.004 94.092,180.775 94.681 C 178.969 95.545,178.346 96.648,177.686 100.144 L 177.044 103.545 174.589 103.973 C 172.978 104.253,160.327 104.402,137.767 104.406 C 99.841 104.412,102.298 104.235,100.231 107.119 C 99.554 108.064,98.405 109.192,97.678 109.626 C 96.459 110.354,94.415 113.758,94.404 115.079 C 94.402 115.343,93.970 116.022,93.445 116.589 C 92.566 117.538,91.600 120.263,91.600 121.795 C 91.600 122.759,93.301 124.268,95.049 124.854 C 96.256 125.259,104.540 125.422,132.400 125.587 L 168.200 125.800 168.082 127.600 C 167.992 128.962,167.671 129.702,166.760 130.641 C 165.394 132.051,164.635 134.233,164.201 138.000 C 164.036 139.430,163.748 141.005,163.560 141.500 L 163.220 142.400 123.984 142.400 C 83.573 142.400,84.078 142.381,82.200 143.982 C 81.760 144.357,80.634 144.882,79.698 145.149 C 77.463 145.785,76.880 146.781,76.372 150.832 C 76.085 153.120,75.752 154.307,75.330 154.543 C 72.271 156.255,72.002 159.734,74.802 161.379 C 76.182 162.189,76.745 162.203,118.000 162.400 C 140.990 162.510,160.025 162.746,160.300 162.924 C 160.602 163.119,160.803 164.148,160.807 165.524 C 160.812 167.228,161.059 168.202,161.792 169.400 C 163.436 172.090,163.560 172.604,163.682 177.278 L 163.800 181.800 121.529 182.000 C 79.576 182.198,79.250 182.206,78.151 183.027 C 75.431 185.058,76.314 192.536,79.427 193.837 C 80.553 194.307,80.869 194.721,81.245 196.214 C 81.734 198.155,83.138 199.595,84.554 199.607 C 85.019 199.611,86.192 200.151,87.160 200.807 L 88.920 202.000 112.805 202.000 L 136.690 202.000 138.152 200.838 C 140.007 199.364,143.377 199.098,157.957 199.276 C 169.217 199.413,168.345 199.176,169.191 202.339 C 169.459 203.345,170.314 204.793,171.218 205.773 C 172.348 207.000,172.907 208.058,173.238 209.602 C 173.574 211.170,174.137 212.222,175.359 213.568 C 176.274 214.576,177.321 216.057,177.686 216.861 C 179.009 219.774,181.264 219.600,142.091 219.600 L 107.245 219.600 106.201 220.500 C 103.190 223.098,104.143 231.155,107.469 231.213 C 108.453 231.230,109.307 231.968,109.905 233.319 C 110.463 234.581,111.965 235.351,115.236 236.053 C 117.222 236.480,117.513 236.672,117.836 237.767 C 118.652 240.531,116.515 240.399,160.326 240.399 C 202.110 240.400,200.603 240.324,201.883 242.490 C 202.442 243.434,203.320 244.069,205.029 244.764 C 206.333 245.294,208.213 246.477,209.207 247.393 C 210.328 248.426,211.695 249.235,212.807 249.524 C 214.951 250.082,215.334 250.323,215.954 251.501 C 216.509 252.554,219.594 254.212,221.751 254.617 C 222.758 254.806,223.366 255.182,223.583 255.750 C 224.297 257.617,226.882 258.793,230.281 258.798 C 232.426 258.801,233.793 259.428,234.358 260.668 C 234.990 262.056,237.628 263.086,241.806 263.576 C 243.783 263.808,246.484 264.191,247.808 264.427 C 250.001 264.818,250.499 264.761,253.375 263.796 C 255.112 263.213,258.144 262.384,260.113 261.954 C 263.548 261.204,264.337 260.890,267.000 259.210 C 267.660 258.794,270.360 258.012,273.000 257.473 C 276.699 256.718,278.333 256.169,280.123 255.079 C 281.760 254.082,283.295 253.529,285.323 253.205 C 289.576 252.525,291.995 251.745,293.909 250.437 C 295.097 249.625,296.497 249.131,298.509 248.816 C 303.527 248.028,305.315 247.548,308.492 246.137 C 310.320 245.324,313.343 244.435,315.892 243.961 C 318.696 243.440,321.177 242.685,323.000 241.798 C 325.037 240.807,327.325 240.156,331.400 239.409 C 338.192 238.163,337.928 238.237,341.450 236.568 C 343.018 235.825,346.708 234.565,349.650 233.768 C 355.915 232.070,356.006 232.013,354.479 230.728 C 352.808 229.322,349.699 228.501,344.263 228.032 C 339.771 227.644,339.462 227.560,338.277 226.401 C 336.633 224.794,333.892 224.014,329.000 223.763 C 323.219 223.466,322.496 223.300,321.342 222.005 C 319.931 220.422,317.856 219.680,313.502 219.201 C 308.151 218.613,307.530 218.441,306.200 217.179 C 304.632 215.692,302.754 214.939,299.800 214.614 C 295.732 214.167,295.243 213.996,294.522 212.776 C 293.555 211.138,291.943 210.503,286.988 209.807 C 284.612 209.474,282.644 209.156,282.615 209.100 C 282.586 209.045,282.354 208.515,282.099 207.921 C 281.418 206.332,280.127 205.671,276.652 205.131 C 273.796 204.687,273.490 204.547,272.909 203.424 C 272.046 201.753,271.425 201.365,268.328 200.557 C 266.155 199.990,265.427 199.582,264.423 198.369 C 263.491 197.242,262.696 196.759,261.171 196.393 C 259.500 195.992,258.984 195.642,258.174 194.359 C 257.138 192.718,255.549 191.844,252.352 191.154 C 250.716 190.802,250.434 190.578,249.896 189.207 C 249.382 187.900,249.015 187.580,247.544 187.159 C 245.422 186.552,244.800 186.112,244.800 185.221 C 244.800 184.427,243.452 183.144,241.947 182.506 C 241.368 182.261,240.558 181.372,240.147 180.530 C 239.660 179.532,238.868 178.740,237.870 178.253 C 237.028 177.842,236.138 177.032,235.893 176.453 C 235.224 174.879,234.364 173.996,232.906 173.386 C 232.108 173.053,231.436 172.401,231.189 171.719 C 230.413 169.577,229.917 168.909,228.660 168.309 C 227.686 167.845,227.286 167.302,226.925 165.953 C 226.622 164.820,225.807 163.523,224.623 162.288 C 223.329 160.938,222.657 159.821,222.335 158.488 C 222.084 157.450,221.707 155.880,221.497 155.000 C 221.244 153.938,220.565 152.891,219.477 151.887 L 217.838 150.373 217.509 144.087 C 217.328 140.629,216.938 136.270,216.641 134.400 C 216.267 132.039,216.224 130.694,216.501 130.000 C 216.720 129.450,217.124 125.063,217.398 120.250 L 217.897 111.500 219.352 110.168 C 221.155 108.515,221.441 107.771,222.239 102.647 C 222.843 98.770,222.939 98.523,223.996 98.124 C 225.619 97.511,226.409 96.031,226.937 92.614 C 227.380 89.748,227.474 89.560,228.794 88.898 C 230.213 88.185,230.993 87.048,231.387 85.115 C 231.508 84.518,232.418 83.231,233.407 82.256 C 235.204 80.484,236.400 78.321,236.400 76.843 C 236.400 76.336,236.996 75.731,238.087 75.129 C 239.329 74.444,239.884 73.829,240.187 72.799 C 240.748 70.900,241.193 70.306,242.598 69.586 C 243.284 69.234,244.224 68.164,244.798 67.081 C 245.349 66.041,246.344 64.860,247.009 64.456 C 247.759 64.001,248.731 62.711,249.570 61.060 C 250.947 58.347,251.439 57.754,252.926 57.012 C 253.388 56.782,254.242 55.893,254.823 55.037 C 255.404 54.181,256.582 53.004,257.440 52.422 C 258.298 51.841,259.224 50.901,259.497 50.334 C 260.039 49.211,260.818 48.464,262.132 47.809 C 262.597 47.577,263.491 46.623,264.119 45.688 C 264.746 44.754,265.773 43.724,266.400 43.400 C 267.027 43.076,268.049 42.056,268.670 41.135 C 269.292 40.213,270.340 39.163,271.000 38.800 C 271.660 38.437,272.708 37.387,273.330 36.465 C 273.951 35.544,274.987 34.517,275.632 34.183 C 276.277 33.850,277.241 32.885,277.775 32.040 C 278.456 30.961,279.646 30.008,281.762 28.846 C 283.469 27.910,285.007 26.755,285.304 26.189 C 285.593 25.638,286.713 24.605,287.793 23.893 C 288.950 23.131,290.094 21.954,290.578 21.027 C 291.030 20.162,291.940 19.158,292.600 18.796 C 297.759 15.966,292.772 11.661,285.728 12.863 M288.598 17.442 C 288.081 18.203,287.540 19.364,287.395 20.021 C 287.229 20.778,286.450 21.763,285.271 22.708 C 284.247 23.529,282.777 24.847,282.005 25.637 C 281.232 26.428,279.745 27.570,278.700 28.175 C 277.655 28.781,276.490 29.802,276.110 30.444 C 275.731 31.087,274.763 32.048,273.959 32.580 C 273.156 33.111,272.111 34.174,271.636 34.941 C 271.162 35.708,270.146 36.707,269.379 37.160 C 268.611 37.612,267.612 38.611,267.160 39.379 C 266.707 40.146,265.708 41.162,264.941 41.636 C 264.174 42.111,263.088 43.190,262.529 44.036 C 261.969 44.881,260.898 45.935,260.147 46.378 C 259.397 46.821,258.412 47.811,257.960 48.579 C 257.507 49.346,256.508 50.362,255.741 50.836 C 254.974 51.311,253.888 52.390,253.329 53.236 C 252.769 54.081,251.694 55.138,250.939 55.583 C 250.185 56.028,249.260 56.966,248.884 57.668 C 248.508 58.370,247.558 59.676,246.773 60.572 C 245.988 61.467,244.918 62.830,244.396 63.600 C 243.873 64.370,242.572 65.969,241.504 67.153 C 240.436 68.337,239.216 69.985,238.792 70.815 C 238.369 71.645,237.578 72.674,237.034 73.102 C 236.490 73.529,235.390 74.998,234.589 76.365 C 233.787 77.733,232.852 78.959,232.510 79.090 C 232.168 79.221,231.265 80.694,230.502 82.364 C 229.739 84.034,228.486 86.057,227.716 86.859 C 226.807 87.808,226.000 89.287,225.410 91.089 C 224.911 92.612,223.851 94.712,223.055 95.755 C 222.259 96.798,221.316 98.675,220.959 99.926 C 220.603 101.177,219.605 103.659,218.741 105.443 C 217.878 107.227,216.917 110.017,216.606 111.643 C 216.295 113.269,215.742 116.040,215.376 117.800 C 215.010 119.560,214.628 122.260,214.526 123.800 C 214.419 125.419,213.993 127.359,213.515 128.400 C 212.312 131.021,212.488 133.291,214.402 139.800 C 214.854 141.340,215.488 144.441,215.810 146.690 C 216.452 151.174,217.313 153.795,218.905 156.115 C 219.477 156.949,220.339 158.839,220.820 160.315 C 221.400 162.094,222.204 163.540,223.204 164.600 C 224.034 165.480,225.029 166.830,225.416 167.600 C 226.869 170.492,242.948 187.024,245.677 188.431 C 246.489 188.850,247.622 189.807,248.195 190.558 C 248.773 191.316,250.235 192.397,251.481 192.986 C 252.715 193.571,254.462 194.646,255.362 195.376 C 256.263 196.106,257.810 197.111,258.800 197.609 C 259.790 198.107,261.300 199.112,262.155 199.843 C 263.011 200.574,264.816 201.539,266.166 201.989 C 267.536 202.444,269.474 203.510,270.548 204.397 C 271.607 205.273,273.222 206.180,274.137 206.413 C 276.890 207.115,278.132 207.687,279.549 208.904 C 281.214 210.333,281.892 210.625,285.314 211.389 C 286.807 211.723,289.330 212.709,290.919 213.581 C 292.509 214.454,294.977 215.465,296.405 215.829 C 297.832 216.193,300.350 217.189,302.000 218.042 C 304.011 219.082,306.278 219.847,308.879 220.364 C 311.012 220.789,314.162 221.765,315.879 222.535 C 319.602 224.204,320.998 224.588,326.004 225.326 C 328.429 225.684,330.895 226.364,332.804 227.203 C 335.597 228.429,342.425 229.943,345.400 229.996 C 346.776 230.021,350.000 231.378,350.000 231.932 C 350.000 232.136,348.177 232.803,345.949 233.414 C 343.721 234.025,340.706 235.110,339.249 235.825 C 336.121 237.360,334.790 237.728,329.200 238.607 C 326.040 239.103,324.208 239.652,321.800 240.820 C 319.444 241.964,317.413 242.581,314.099 243.158 C 310.886 243.718,308.598 244.401,306.099 245.546 C 303.641 246.672,301.616 247.282,299.294 247.594 C 295.692 248.080,293.002 248.893,292.000 249.800 C 291.071 250.641,288.568 251.445,284.539 252.198 C 282.063 252.661,280.159 253.321,278.200 254.398 C 276.084 255.561,274.339 256.137,271.058 256.756 C 268.640 257.212,266.158 257.934,265.458 258.385 C 263.144 259.873,261.470 260.472,256.218 261.687 C 250.482 263.015,250.501 263.014,244.545 262.238 C 241.130 261.793,240.093 261.490,238.755 260.548 C 236.182 258.736,234.809 258.100,231.663 257.264 C 230.011 256.824,227.959 255.932,226.973 255.224 C 226.009 254.532,224.244 253.533,223.050 253.005 C 221.856 252.477,220.273 251.513,219.532 250.863 C 218.792 250.212,216.841 249.025,215.197 248.225 C 213.553 247.426,211.666 246.257,211.004 245.629 C 210.342 245.000,208.990 244.081,208.000 243.586 C 207.010 243.091,205.504 242.091,204.653 241.365 C 201.271 238.475,203.799 238.644,160.311 238.410 L 121.222 238.200 119.780 236.715 C 118.987 235.899,117.341 234.774,116.123 234.216 C 114.905 233.659,113.292 232.661,112.539 232.000 C 111.786 231.339,110.311 230.363,109.260 229.830 C 106.283 228.322,106.098 227.944,107.021 225.263 L 107.800 223.000 144.700 222.898 L 181.600 222.796 181.600 220.460 C 181.600 218.592,181.431 217.971,180.757 217.362 C 180.293 216.943,179.460 215.705,178.905 214.612 C 178.351 213.518,177.360 211.984,176.703 211.202 C 176.047 210.420,174.990 208.354,174.355 206.612 C 173.719 204.869,172.770 202.984,172.245 202.422 C 171.721 201.860,171.009 200.840,170.665 200.156 C 169.572 197.989,169.148 197.942,152.772 198.182 C 83.606 199.196,84.854 199.258,82.550 194.693 C 81.970 193.542,80.988 192.020,80.369 191.311 C 78.447 189.109,77.906 186.094,79.200 184.800 C 79.990 184.010,80.533 184.000,121.631 184.000 L 163.262 184.000 164.417 182.845 L 165.572 181.690 165.356 177.545 C 165.237 175.265,164.974 172.082,164.770 170.471 C 164.567 168.860,164.400 166.503,164.400 165.233 C 164.400 160.586,166.573 160.800,119.367 160.800 C 78.074 160.800,78.895 160.832,76.684 159.136 C 76.024 158.630,76.016 158.491,76.583 157.355 C 77.283 155.951,78.000 152.523,78.000 150.576 C 78.000 148.489,79.534 147.004,82.254 146.458 C 83.873 146.133,95.960 146.000,124.005 146.000 C 161.093 146.000,163.514 145.958,164.098 145.300 C 164.440 144.915,165.106 143.250,165.579 141.600 C 166.051 139.950,166.973 137.405,167.629 135.945 C 168.699 133.563,170.000 128.321,170.000 126.396 C 170.000 125.992,169.534 125.108,168.964 124.431 L 167.929 123.200 133.264 123.199 C 93.283 123.197,96.294 123.492,95.892 119.539 C 95.568 116.355,96.891 113.685,100.636 109.964 L 103.620 107.000 138.710 106.785 C 180.392 106.530,177.550 106.896,179.268 101.562 C 179.788 99.947,180.688 98.229,181.479 97.339 C 182.338 96.374,183.112 94.834,183.650 93.019 C 184.437 90.364,185.005 89.023,186.527 86.221 C 187.773 83.926,188.621 84.000,161.051 83.999 C 136.753 83.997,135.752 83.968,134.526 83.220 C 131.666 81.476,131.908 79.468,135.178 77.811 C 136.282 77.252,137.477 76.348,137.834 75.804 C 138.191 75.260,139.139 74.419,139.941 73.936 C 140.744 73.453,142.247 72.280,143.283 71.329 C 144.642 70.081,145.532 69.585,146.483 69.545 C 147.207 69.514,156.530 69.533,167.200 69.588 C 177.870 69.642,188.670 69.557,191.200 69.398 L 195.800 69.109 198.524 66.255 C 200.021 64.685,201.661 62.490,202.168 61.377 C 202.674 60.264,203.755 58.480,204.570 57.412 C 205.385 56.344,206.492 54.603,207.029 53.542 C 207.567 52.482,208.428 51.338,208.943 51.000 C 209.459 50.663,210.362 49.502,210.950 48.420 C 211.539 47.339,212.517 46.036,213.123 45.527 C 213.729 45.017,214.785 43.790,215.470 42.800 C 216.156 41.810,217.320 40.447,218.058 39.770 C 218.796 39.094,220.087 37.517,220.926 36.267 C 222.794 33.485,223.577 33.063,228.843 31.997 C 231.393 31.481,234.101 30.615,235.850 29.755 C 237.558 28.916,240.041 28.114,242.050 27.753 C 246.712 26.917,250.581 25.866,253.400 24.669 C 254.720 24.109,258.280 23.201,261.312 22.651 C 264.988 21.985,267.731 21.234,269.547 20.396 C 271.530 19.483,274.014 18.843,278.678 18.045 C 283.427 17.232,285.363 16.730,286.161 16.102 C 287.051 15.402,287.438 15.325,288.388 15.656 L 289.538 16.056 288.598 17.442 M247.047 357.779 C 245.727 358.133,244.665 358.772,243.768 359.752 C 243.038 360.548,242.292 361.200,242.110 361.200 C 237.807 361.200,233.862 362.391,231.687 364.348 C 230.735 365.203,229.799 365.601,228.287 365.790 C 222.581 366.505,221.456 366.865,219.907 368.471 C 218.472 369.958,218.252 370.042,214.307 370.583 C 208.920 371.323,207.726 371.720,206.023 373.346 C 204.905 374.412,204.141 374.761,202.461 374.971 C 198.923 375.413,197.424 376.209,196.560 378.107 C 196.050 379.225,195.312 380.030,194.319 380.548 C 193.328 381.065,192.642 381.812,192.244 382.807 C 191.917 383.625,190.921 384.871,190.030 385.576 C 188.385 386.879,187.042 389.301,186.570 391.817 C 186.387 392.797,186.097 393.200,185.578 393.200 C 184.456 393.200,182.876 394.839,182.493 396.400 L 182.150 397.800 164.575 398.000 C 145.187 398.221,145.237 398.214,143.021 400.848 C 141.921 402.155,140.994 402.574,138.341 402.964 C 136.894 403.176,135.981 403.676,134.218 405.218 C 132.751 406.502,131.324 407.359,130.166 407.650 C 127.228 408.390,125.927 410.976,127.421 413.108 C 128.740 414.991,128.715 414.989,149.667 415.200 C 171.106 415.416,170.296 415.340,169.410 417.040 C 169.077 417.678,168.804 418.578,168.802 419.040 C 168.798 420.588,167.961 422.311,166.433 423.917 C 164.817 425.615,164.245 427.249,163.773 431.509 C 163.620 432.889,163.293 434.149,163.047 434.309 C 162.801 434.469,145.770 434.690,125.200 434.800 C 84.910 435.015,86.403 434.929,85.176 437.124 C 84.794 437.807,83.410 438.785,81.387 439.800 C 78.621 441.189,78.065 441.651,77.175 443.301 C 76.611 444.347,75.576 445.763,74.875 446.449 C 73.328 447.961,73.325 448.016,74.692 449.383 C 77.269 451.960,74.340 451.779,117.200 452.010 C 138.650 452.125,156.213 452.260,156.228 452.310 C 156.243 452.359,156.022 453.615,155.736 455.100 C 155.450 456.585,155.078 460.860,154.908 464.600 L 154.600 471.400 108.800 471.600 C 58.440 471.820,61.012 471.684,59.359 474.206 C 58.304 475.817,59.154 479.670,60.992 481.600 C 61.974 482.631,62.452 483.629,62.809 485.389 C 63.342 488.018,65.016 489.985,68.200 491.725 L 69.800 492.600 113.200 492.827 C 137.070 492.951,157.070 493.192,157.644 493.363 C 159.067 493.784,160.500 502.978,159.404 504.651 L 158.782 505.600 121.430 505.600 L 84.079 505.600 81.625 507.445 C 77.776 510.338,76.779 513.682,79.498 514.576 C 79.884 514.703,81.550 516.071,83.200 517.618 C 85.256 519.545,86.737 520.586,87.909 520.930 C 89.221 521.314,89.779 521.753,90.309 522.815 C 91.669 525.539,89.187 525.379,133.557 525.600 C 172.566 525.794,173.726 525.822,174.157 526.565 C 174.400 526.986,174.898 527.588,175.262 527.903 C 175.626 528.218,176.641 529.199,177.518 530.082 C 179.516 532.094,180.306 532.884,182.318 534.882 C 183.201 535.759,184.166 536.741,184.462 537.063 C 185.683 538.396,188.166 539.985,190.703 541.059 L 193.400 542.200 277.800 542.200 C 359.426 542.200,362.302 542.175,365.308 541.438 C 372.806 539.601,369.893 536.714,359.891 536.069 C 354.903 535.747,354.751 535.709,353.491 534.490 C 351.601 532.660,349.811 532.071,344.740 531.607 C 338.495 531.037,337.951 530.888,336.718 529.410 C 335.451 527.893,333.913 527.415,328.200 526.763 C 324.532 526.345,324.084 526.199,322.800 525.000 C 321.096 523.410,319.801 522.981,314.468 522.243 C 312.196 521.928,310.296 521.609,310.247 521.535 C 310.198 521.461,309.838 520.890,309.448 520.267 C 308.524 518.792,306.874 518.134,303.193 517.773 C 300.518 517.510,300.073 517.342,299.000 516.190 C 297.258 514.319,295.727 513.680,291.442 513.036 C 287.315 512.416,286.800 512.236,286.800 511.412 C 286.800 510.160,284.500 508.911,281.206 508.376 C 278.076 507.868,277.925 507.794,277.388 506.509 C 276.753 504.989,275.284 504.223,272.200 503.804 C 269.114 503.385,268.827 503.239,268.214 501.772 C 267.624 500.360,266.953 499.931,264.200 499.206 C 263.234 498.951,261.762 498.013,260.483 496.835 C 259.155 495.613,257.738 494.721,256.683 494.442 C 255.484 494.125,254.770 493.627,254.199 492.710 C 253.679 491.874,252.774 491.192,251.623 490.766 C 250.647 490.406,248.886 489.186,247.710 488.056 C 246.534 486.927,244.879 485.648,244.032 485.216 C 243.184 484.784,241.911 483.697,241.201 482.802 C 240.275 481.632,239.426 481.043,238.186 480.712 C 236.703 480.315,236.428 480.072,236.223 478.980 C 235.944 477.493,234.942 476.474,233.343 476.052 C 232.459 475.819,232.080 475.377,231.669 474.098 C 231.316 472.998,230.544 471.959,229.360 470.989 C 228.382 470.188,227.333 468.935,227.028 468.206 C 226.723 467.477,225.556 465.942,224.434 464.796 C 223.311 463.650,222.297 462.237,222.178 461.656 C 221.569 458.661,221.044 457.500,219.595 455.945 C 218.709 454.996,217.923 453.702,217.817 453.021 C 217.713 452.350,217.427 450.450,217.181 448.800 C 216.472 444.037,216.085 442.943,214.692 441.769 L 213.400 440.680 213.405 432.567 C 213.409 424.774,213.444 424.417,214.285 423.522 C 216.104 421.586,216.921 418.812,217.805 411.567 C 217.977 410.159,218.395 409.341,219.606 408.043 C 220.477 407.109,221.365 405.646,221.591 404.776 C 221.816 403.909,222.178 402.512,222.395 401.670 C 222.612 400.829,223.495 399.400,224.356 398.495 C 225.817 396.958,226.370 395.820,226.971 393.102 C 227.141 392.335,227.638 391.828,228.623 391.416 C 229.731 390.953,230.238 390.360,230.999 388.641 C 231.531 387.439,232.887 385.498,234.013 384.327 C 235.138 383.157,236.311 381.724,236.618 381.143 C 236.925 380.562,237.898 379.515,238.780 378.816 C 239.857 377.963,240.520 377.039,240.800 376.001 C 241.134 374.758,241.478 374.370,242.559 374.013 C 244.163 373.484,245.138 372.490,245.545 370.969 C 245.746 370.216,246.227 369.729,247.022 369.474 C 248.697 368.936,249.543 368.083,250.037 366.433 C 250.364 365.344,250.822 364.846,251.934 364.370 C 258.006 361.774,253.716 355.987,247.047 357.779 M251.022 360.435 C 251.449 361.127,250.566 361.706,249.565 361.389 C 248.685 361.110,248.679 361.078,249.402 360.549 C 250.308 359.886,250.667 359.861,251.022 360.435 M248.168 363.689 L 248.536 365.178 243.685 370.089 C 241.017 372.790,238.127 375.720,237.262 376.600 C 236.397 377.480,235.300 378.861,234.824 379.668 C 234.348 380.476,233.335 381.612,232.573 382.193 C 231.812 382.774,230.747 384.120,230.208 385.185 C 229.668 386.249,228.479 387.984,227.565 389.041 C 226.650 390.097,225.553 391.780,225.126 392.781 C 224.700 393.781,223.830 395.140,223.194 395.800 C 222.559 396.460,221.567 398.260,220.991 399.800 C 220.415 401.340,219.307 403.530,218.529 404.666 C 217.550 406.095,216.880 407.760,216.354 410.066 C 215.936 411.900,214.960 414.769,214.186 416.443 C 210.709 423.952,210.746 441.765,214.252 448.600 C 214.817 449.700,215.767 452.233,216.363 454.228 C 217.003 456.370,217.943 458.501,218.658 459.428 C 219.324 460.293,220.386 462.260,221.018 463.800 C 221.724 465.522,222.687 467.062,223.520 467.800 C 224.265 468.460,225.146 469.521,225.477 470.157 C 226.141 471.432,227.893 473.348,233.600 479.038 C 239.550 484.970,240.486 485.821,242.300 486.951 C 243.234 487.533,244.224 488.375,244.500 488.821 C 244.775 489.268,245.810 490.105,246.800 490.681 C 247.790 491.258,249.590 492.494,250.800 493.429 C 252.010 494.364,253.720 495.423,254.600 495.783 C 255.480 496.143,256.920 497.137,257.800 497.992 C 258.810 498.973,260.418 499.926,262.161 500.578 C 263.817 501.197,265.599 502.235,266.615 503.172 C 267.795 504.259,269.062 504.944,270.786 505.428 C 272.370 505.873,273.934 506.680,275.131 507.671 C 276.159 508.522,277.720 509.405,278.600 509.632 C 281.893 510.482,282.664 510.841,284.552 512.401 C 285.616 513.280,286.546 514.000,286.617 514.000 C 288.397 514.000,292.994 515.489,294.600 516.586 C 295.848 517.437,298.172 518.405,300.780 519.159 C 303.078 519.824,305.418 520.705,305.980 521.119 C 307.788 522.450,308.870 522.886,312.740 523.845 C 314.829 524.362,317.182 525.206,317.969 525.721 C 319.873 526.965,320.208 527.075,325.554 528.207 C 328.416 528.814,331.227 529.711,332.983 530.579 C 334.922 531.537,337.415 532.294,340.930 532.994 C 343.747 533.554,346.903 534.444,347.943 534.971 C 350.475 536.254,353.421 537.062,358.006 537.732 C 360.099 538.037,362.619 538.647,363.606 539.086 L 365.400 539.885 363.686 540.362 C 359.585 541.502,352.978 541.594,275.400 541.588 C 197.199 541.583,195.362 541.565,193.697 540.810 C 191.043 539.605,189.457 538.259,182.759 531.530 C 174.067 522.798,180.485 523.836,133.717 523.600 L 94.034 523.400 92.317 521.747 C 91.373 520.837,90.150 519.863,89.600 519.581 C 88.231 518.880,81.600 512.763,81.600 512.202 C 81.600 511.175,84.001 509.473,85.886 509.163 C 86.939 508.989,104.729 508.837,125.420 508.824 C 154.120 508.806,163.154 508.686,163.520 508.320 C 164.532 507.308,164.105 503.443,162.800 501.800 C 162.140 500.969,161.600 500.257,161.600 500.217 C 161.600 499.185,159.853 492.525,159.420 491.907 C 159.088 491.433,157.687 490.632,156.308 490.129 L 153.800 489.213 112.441 489.207 C 71.147 489.200,71.078 489.199,68.727 488.341 C 65.871 487.300,64.628 485.926,63.999 483.112 C 62.984 478.575,62.400 475.786,62.400 475.481 C 62.400 473.641,62.984 473.618,110.264 473.609 L 154.729 473.600 155.764 472.369 C 156.636 471.334,156.799 470.747,156.795 468.669 C 156.790 466.255,157.177 464.104,159.004 456.400 C 160.533 449.953,163.750 450.421,117.880 450.410 C 78.247 450.399,79.125 450.438,77.646 448.655 C 76.570 447.359,80.554 442.545,84.061 440.903 C 85.085 440.424,86.312 439.485,86.789 438.815 C 88.441 436.496,86.473 436.616,126.268 436.400 L 163.136 436.200 164.098 435.296 C 164.757 434.677,165.207 433.604,165.523 431.896 C 165.849 430.141,166.445 428.747,167.531 427.200 C 168.381 425.990,169.472 423.804,169.957 422.342 C 170.441 420.879,171.490 418.845,172.288 417.822 L 173.738 415.960 172.858 415.080 C 171.985 414.207,171.827 414.198,153.489 413.923 C 132.200 413.605,131.254 413.534,129.983 412.181 C 128.759 410.879,129.483 410.052,133.126 408.594 C 134.585 408.010,136.446 406.928,137.263 406.191 C 138.253 405.296,139.722 404.563,141.674 403.988 C 143.448 403.466,145.072 402.687,145.800 402.008 C 148.434 399.553,148.043 399.600,165.837 399.600 L 182.113 399.600 183.357 398.159 C 184.040 397.367,185.359 395.972,186.288 395.059 C 187.216 394.147,188.236 392.766,188.555 391.992 C 188.873 391.217,189.529 390.227,190.011 389.792 C 190.493 389.356,191.502 388.075,192.253 386.945 C 193.003 385.815,195.073 383.258,196.852 381.263 C 200.307 377.387,200.834 377.087,206.157 375.950 C 207.453 375.674,209.123 375.034,209.868 374.528 C 212.219 372.933,213.319 372.509,216.400 372.012 C 219.292 371.545,222.052 370.469,224.624 368.806 C 225.297 368.371,227.582 367.666,229.701 367.240 C 232.346 366.708,234.366 366.011,236.142 365.017 C 241.506 362.018,247.589 361.346,248.168 363.689 " stroke="none" fill="#6ca4cc" fill-rule="evenodd"></path></g></svg>