<?xml version="1.0" encoding="utf-8"?>
<!-- Generator: Adobe Illustrator 26.1.0, SVG Export Plug-In . SVG Version: 6.00 Build 0)  -->
<svg version="1.1" id="Layer_1" xmlns="http://www.w3.org/2000/svg" xmlns:xlink="http://www.w3.org/1999/xlink" x="0px" y="0px"
	 viewBox="0 0 186 55" style="enable-background:new 0 0 186 55;" xml:space="preserve">
<style type="text/css">
	.st0{fill:#34439A;}
	.st1{fill:url(#SVGID_1_);}
	.st2{fill:url(#SVGID_00000075864099085917034660000014900417109196741780_);}
	.st3{fill:url(#SVGID_00000097499116398822691810000014030206499810784656_);}
	.st4{fill:url(#SVGID_00000034773544853687957470000007926674651732013493_);}
	.st5{fill:url(#SVGID_00000143579548971455637330000010611687993665552522_);}
	.st6{opacity:0.8;}
	.st7{fill:#767C88;}
	.st8{fill:none;stroke:#D2D3D4;stroke-width:0.6752;stroke-miterlimit:10;}
</style>
<g>
	<g>
		<g>
			<path class="st0" d="M19.4,23.57h-3.35C15.14,21.86,13.53,21,11.49,21c-3.38,0-5.82,2.4-5.82,6.14c0,3.74,2.45,6.17,5.82,6.17
				c3.08,0,5.02-1.86,5.43-4.72h-6.39v-2.23h9.37v2.18c-0.51,3.94-3.84,7.29-8.42,7.29c-4.8,0-8.69-3.57-8.69-8.69
				c0-5.09,3.89-8.69,8.69-8.69C15.04,18.45,18.1,20.24,19.4,23.57z"/>
		</g>
		<g>
			<path class="st0" d="M27.84,35.9c-3.87,0-6.73-2.74-6.73-6.97c0-4.23,2.74-6.95,6.73-6.95c3.84,0,6.56,2.67,6.56,6.63
				c0,0.47-0.02,0.91-0.1,1.37H24c0.2,2.23,1.79,3.57,3.84,3.57c1.71,0,2.67-0.83,3.18-1.88h3.01C33.27,34.02,31.15,35.9,27.84,35.9
				z M24.02,27.73h7.46c-0.05-2.08-1.69-3.4-3.77-3.4C25.83,24.33,24.32,25.6,24.02,27.73z"/>
		</g>
		<g>
			<path class="st0" d="M45.65,28.15c0-2.47-1.35-3.74-3.38-3.74c-2.06,0-3.4,1.27-3.4,3.74v7.54h-2.79l0-13.48h2.79v1.54
				c0.91-1.1,2.4-1.76,4.01-1.76c3.16,0,5.53,1.98,5.53,5.75l0,7.95h-2.77L45.65,28.15z"/>
		</g>
		<g>
			<path class="st0" d="M56.43,35.9c-3.87,0-6.73-2.74-6.73-6.97s2.74-6.95,6.73-6.95c3.84,0,6.56,2.67,6.56,6.63
				c0,0.47-0.02,0.91-0.1,1.37h-10.3c0.2,2.23,1.79,3.57,3.84,3.57c1.71,0,2.67-0.83,3.18-1.88h3.01
				C61.86,34.02,59.73,35.9,56.43,35.9z M52.61,27.73h7.46c-0.05-2.08-1.69-3.4-3.77-3.4C54.42,24.33,52.9,25.6,52.61,27.73z"/>
		</g>
		<polygon class="st0" points="79.57,37.26 76.75,32.87 74.04,37.26 72.19,37.26 75.89,31.52 72.23,25.78 74.18,25.78 76.96,30.12 
			79.65,25.78 81.48,25.78 77.82,31.46 81.52,37.26 		"/>
		<g>
			<path class="st0" d="M69.81,20c3.81,0,6.02,1.87,6.98,4.58c0.24,0.68,0.5,1.51,0.67,2.12l1.14-1.75
				c-0.87-3.7-3.95-6.37-8.79-6.37h-5.07l0,17.11h5.07c0.66,0,1.29-0.05,1.89-0.13l1.12-1.72c-0.87,0.28-1.88,0.43-3.01,0.43h-3.35
				V20H69.81z"/>
		</g>
	</g>
</g>
<g>
	<g>
		<linearGradient id="SVGID_1_" gradientUnits="userSpaceOnUse" x1="104.9695" y1="30.1148" x2="110.695" y2="49.4119">
			<stop  offset="0" style="stop-color:#E8E7E7"/>
			<stop  offset="0.2366" style="stop-color:#929292"/>
			<stop  offset="0.2912" style="stop-color:#B6B5B5"/>
			<stop  offset="0.3449" style="stop-color:#D1D1D1"/>
			<stop  offset="0.392" style="stop-color:#E2E1E1"/>
			<stop  offset="0.4275" style="stop-color:#E8E7E7"/>
			<stop  offset="0.6278" style="stop-color:#E8E7E7"/>
			<stop  offset="0.6605" style="stop-color:#E2E1E1"/>
			<stop  offset="0.7049" style="stop-color:#D0CFCF"/>
			<stop  offset="0.7559" style="stop-color:#B4B3B3"/>
			<stop  offset="0.7841" style="stop-color:#A1A0A0"/>
			<stop  offset="0.8739" style="stop-color:#828383"/>
			<stop  offset="1" style="stop-color:#E8E7E7"/>
		</linearGradient>
		<path class="st1" d="M108.29,27.65h-7.2c-0.09,0-0.16-0.05-0.16-0.14v-1.84c0-0.09,0.07-0.16,0.16-0.16h9.92v-3.01h-9.92
			c-1.75,0-3.18,1.43-3.18,3.18v1.84c0,1.75,1.43,3.18,3.18,3.18h7.2c0.09,0,0.16,0.05,0.16,0.14v1.84c0,0.09-0.07,0.16-0.16,0.16
			h-9.92v3.02h9.92c1.77,0,3.18-1.43,3.18-3.18v-1.84C111.47,29.07,110.06,27.65,108.29,27.65z"/>
		
			<linearGradient id="SVGID_00000179637097402720095790000005643403413595243395_" gradientUnits="userSpaceOnUse" x1="119.31" y1="25.8599" x2="125.0355" y2="45.1571">
			<stop  offset="0" style="stop-color:#E8E7E7"/>
			<stop  offset="0.2366" style="stop-color:#929292"/>
			<stop  offset="0.2912" style="stop-color:#B6B5B5"/>
			<stop  offset="0.3449" style="stop-color:#D1D1D1"/>
			<stop  offset="0.392" style="stop-color:#E2E1E1"/>
			<stop  offset="0.4275" style="stop-color:#E8E7E7"/>
			<stop  offset="0.6278" style="stop-color:#E8E7E7"/>
			<stop  offset="0.6605" style="stop-color:#E2E1E1"/>
			<stop  offset="0.7049" style="stop-color:#D0CFCF"/>
			<stop  offset="0.7559" style="stop-color:#B4B3B3"/>
			<stop  offset="0.7841" style="stop-color:#A1A0A0"/>
			<stop  offset="0.8739" style="stop-color:#828383"/>
			<stop  offset="1" style="stop-color:#E8E7E7"/>
		</linearGradient>
		<path style="fill:url(#SVGID_00000179637097402720095790000005643403413595243395_);" d="M123.89,22.49l-7.2,0
			c-1.75,0-3.18,1.43-3.18,3.18v7c0,1.75,1.43,3.18,3.18,3.18h10.38v-3.01h-9.92c-0.09,0-0.16-0.07-0.16-0.16v-1.98h10.08l0-5.02
			C127.07,23.92,125.64,22.49,123.89,22.49z M123.59,27.65h-6.6v-1.98c0-0.09,0.07-0.16,0.16-0.16h6.28c0.09,0,0.16,0.07,0.16,0.16
			V27.65z"/>
		
			<linearGradient id="SVGID_00000083053955209793978190000000914013057256100539_" gradientUnits="userSpaceOnUse" x1="154.0902" y1="15.5405" x2="159.8157" y2="34.8377">
			<stop  offset="0" style="stop-color:#E8E7E7"/>
			<stop  offset="0.2366" style="stop-color:#929292"/>
			<stop  offset="0.2912" style="stop-color:#B6B5B5"/>
			<stop  offset="0.3449" style="stop-color:#D1D1D1"/>
			<stop  offset="0.392" style="stop-color:#E2E1E1"/>
			<stop  offset="0.4275" style="stop-color:#E8E7E7"/>
			<stop  offset="0.6278" style="stop-color:#E8E7E7"/>
			<stop  offset="0.6605" style="stop-color:#E2E1E1"/>
			<stop  offset="0.7049" style="stop-color:#D0CFCF"/>
			<stop  offset="0.7559" style="stop-color:#B4B3B3"/>
			<stop  offset="0.7841" style="stop-color:#A1A0A0"/>
			<stop  offset="0.8739" style="stop-color:#828383"/>
			<stop  offset="1" style="stop-color:#E8E7E7"/>
		</linearGradient>
		<path style="fill:url(#SVGID_00000083053955209793978190000000914013057256100539_);" d="M161.74,22.49h-10.38v3.02h9.92
			c0.09,0,0.16,0.07,0.16,0.16v1.98h-10.08v5.02c0,1.75,1.43,3.18,3.18,3.18h7.2c1.75,0,3.18-1.43,3.18-3.18l0-7
			C164.91,23.92,163.48,22.49,161.74,22.49z M161.43,32.67c0,0.09-0.07,0.16-0.16,0.16H155c-0.09,0-0.16-0.07-0.16-0.16v-1.98h6.6
			V32.67z"/>
		
			<linearGradient id="SVGID_00000121246610038083949990000005225334329427954092_" gradientUnits="userSpaceOnUse" x1="136.3296" y1="20.8102" x2="142.0551" y2="40.1073">
			<stop  offset="0" style="stop-color:#E8E7E7"/>
			<stop  offset="0.2366" style="stop-color:#929292"/>
			<stop  offset="0.2912" style="stop-color:#B6B5B5"/>
			<stop  offset="0.3449" style="stop-color:#D1D1D1"/>
			<stop  offset="0.392" style="stop-color:#E2E1E1"/>
			<stop  offset="0.4275" style="stop-color:#E8E7E7"/>
			<stop  offset="0.6278" style="stop-color:#E8E7E7"/>
			<stop  offset="0.6605" style="stop-color:#E2E1E1"/>
			<stop  offset="0.7049" style="stop-color:#D0CFCF"/>
			<stop  offset="0.7559" style="stop-color:#B4B3B3"/>
			<stop  offset="0.7841" style="stop-color:#A1A0A0"/>
			<stop  offset="0.8739" style="stop-color:#828383"/>
			<stop  offset="1" style="stop-color:#E8E7E7"/>
		</linearGradient>
		<path style="fill:url(#SVGID_00000121246610038083949990000005225334329427954092_);" d="M145.9,22.49h-3.94
			c-0.68,0-1.35,0.23-1.88,0.66l-0.56,0.45l-0.42-0.37c-0.55-0.48-1.25-0.74-1.98-0.74h-7.77v13.35h3.48V25.67
			c0-0.09,0.07-0.16,0.16-0.16h4.33c0.07,0,0.14,0.07,0.14,0.16v10.17h3.5v-10.2c0-0.08,0.06-0.14,0.14-0.14h4.33
			c0.11,0,0.18,0.07,0.18,0.16v10.17h3.46V25.67C149.08,23.92,147.65,22.49,145.9,22.49z"/>
		
			<linearGradient id="SVGID_00000050634392291574233250000002946143764766829234_" gradientUnits="userSpaceOnUse" x1="169.5043" y1="10.9671" x2="175.2299" y2="30.2642">
			<stop  offset="0" style="stop-color:#E8E7E7"/>
			<stop  offset="0.2366" style="stop-color:#929292"/>
			<stop  offset="0.2912" style="stop-color:#B6B5B5"/>
			<stop  offset="0.3449" style="stop-color:#D1D1D1"/>
			<stop  offset="0.392" style="stop-color:#E2E1E1"/>
			<stop  offset="0.4275" style="stop-color:#E8E7E7"/>
			<stop  offset="0.6278" style="stop-color:#E8E7E7"/>
			<stop  offset="0.6605" style="stop-color:#E2E1E1"/>
			<stop  offset="0.7049" style="stop-color:#D0CFCF"/>
			<stop  offset="0.7559" style="stop-color:#B4B3B3"/>
			<stop  offset="0.7841" style="stop-color:#A1A0A0"/>
			<stop  offset="0.8739" style="stop-color:#828383"/>
			<stop  offset="1" style="stop-color:#E8E7E7"/>
		</linearGradient>
		<path style="fill:url(#SVGID_00000050634392291574233250000002946143764766829234_);" d="M180.48,28.97V18.64l-2.83,0
			l-10.61,10.52v2.83l9.96,0.03v3.82h3.48v-3.85h2.68v-3.02H180.48z M177,29.01l-5.38-0.03l5.38-5.6V29.01z"/>
	</g>
	<g class="st6">
		<path class="st7" d="M108.29,27.65h-7.2c-0.09,0-0.16-0.05-0.16-0.14v-1.84c0-0.09,0.07-0.16,0.16-0.16h9.92v-3.01h-9.92
			c-1.75,0-3.18,1.43-3.18,3.18v1.84c0,1.75,1.43,3.18,3.18,3.18h7.2c0.09,0,0.16,0.05,0.16,0.14v1.84c0,0.09-0.07,0.16-0.16,0.16
			h-9.92v3.02h9.92c1.77,0,3.18-1.43,3.18-3.18v-1.84C111.47,29.07,110.06,27.65,108.29,27.65z"/>
		<path class="st7" d="M123.89,22.49l-7.2,0c-1.75,0-3.18,1.43-3.18,3.18v7c0,1.75,1.43,3.18,3.18,3.18h10.38v-3.01h-9.92
			c-0.09,0-0.16-0.07-0.16-0.16v-1.98h10.08l0-5.02C127.07,23.92,125.64,22.49,123.89,22.49z M123.59,27.65h-6.6v-1.98
			c0-0.09,0.07-0.16,0.16-0.16h6.28c0.09,0,0.16,0.07,0.16,0.16V27.65z"/>
		<path class="st7" d="M161.74,22.49h-10.38v3.02h9.92c0.09,0,0.16,0.07,0.16,0.16v1.98h-10.08v5.02c0,1.75,1.43,3.18,3.18,3.18h7.2
			c1.75,0,3.18-1.43,3.18-3.18l0-7C164.91,23.92,163.48,22.49,161.74,22.49z M161.43,32.67c0,0.09-0.07,0.16-0.16,0.16H155
			c-0.09,0-0.16-0.07-0.16-0.16v-1.98h6.6V32.67z"/>
		<path class="st7" d="M145.9,22.49h-3.94c-0.68,0-1.35,0.23-1.88,0.66l-0.56,0.45l-0.42-0.37c-0.55-0.48-1.25-0.74-1.98-0.74h-7.77
			v13.35h3.48V25.67c0-0.09,0.07-0.16,0.16-0.16h4.33c0.07,0,0.14,0.07,0.14,0.16v10.17h3.5v-10.2c0-0.08,0.06-0.14,0.14-0.14h4.33
			c0.11,0,0.18,0.07,0.18,0.16v10.17h3.46V25.67C149.08,23.92,147.65,22.49,145.9,22.49z"/>
		<path class="st7" d="M180.48,28.97V18.64l-2.83,0l-10.61,10.52v2.83l9.96,0.03v3.82h3.48v-3.85h2.68v-3.02H180.48z M177,29.01
			l-5.38-0.03l5.38-5.6V29.01z"/>
	</g>
</g>
<line class="st8" x1="89.55" y1="18.45" x2="89.55" y2="37.26"/>
</svg>
