<?xml version="1.0" encoding="utf-8"?>
<!-- Generator: Adobe Illustrator 26.0.1, SVG Export Plug-In . SVG Version: 6.00 Build 0)  -->
<svg version="1.1" id="Layer_1" xmlns="http://www.w3.org/2000/svg" xmlns:xlink="http://www.w3.org/1999/xlink" x="0px" y="0px"
	 viewBox="0 0 64 64" style="enable-background:new 0 0 64 64;" xml:space="preserve">
<style type="text/css">
	.st0{fill-rule:evenodd;clip-rule:evenodd;fill:#1564BF;}
</style>
<path class="st0" d="M56.1,13.1l-20.2-12c-2.4-1.4-5.4-1.4-7.8,0l-20.2,12C5.5,14.5,4,17.2,4,20v24c0,2.8,1.5,5.5,3.9,6.9l20.2,12
	c2.4,1.4,5.4,1.4,7.8,0l20.2-12c2.4-1.5,3.9-4.1,3.9-6.9V20C60,17.2,58.5,14.5,56.1,13.1L56.1,13.1z M40.5,50.5v1.7
	c0,0.2-0.1,0.4-0.3,0.5l-1,0.6c-0.2,0.1-0.3,0-0.3-0.2v-1.7c-0.7,0.4-1.6,0.4-2.3,0.2c-0.1-0.1-0.2-0.2-0.1-0.4l0.4-1.6
	c0-0.1,0.1-0.2,0.2-0.3c0,0,0.1-0.1,0.1-0.1c0.1,0,0.1,0,0.2,0c0.7,0.2,1.5,0.1,2.1-0.3c0.9-0.5,1.5-1.4,1.6-2.4
	c0-0.9-0.5-1.2-1.6-1.2c-1.5,0-2.8-0.3-2.9-2.4c0-1.9,0.9-3.6,2.4-4.8v-1.7c0-0.2,0.1-0.4,0.3-0.5l1-0.6c0.2-0.1,0.3,0,0.3,0.2v1.7
	c0.6-0.3,1.3-0.4,1.9-0.2c0.1,0.1,0.2,0.3,0.1,0.4l-0.3,1.5c0,0.1-0.1,0.2-0.2,0.3c0,0-0.1,0.1-0.1,0.1s-0.1,0-0.1,0
	c-0.6-0.1-1.3,0-1.9,0.3c-0.8,0.4-1.4,1.2-1.4,2.1c0,0.8,0.4,1,1.8,1.1c1.9,0,2.7,0.8,2.7,2.7C42.9,47.4,42,49.3,40.5,50.5
	L40.5,50.5z M51,47.6c0,0.1,0,0.3-0.2,0.4l-5.1,3.1c0,0-0.1,0-0.2,0S45.5,51,45.6,51v-1.3c0-0.1,0.1-0.3,0.2-0.3l5-3
	c0,0,0.1,0,0.2,0s0.1,0.1,0.1,0.2L51,47.6L51,47.6z M54.6,18.1L35.5,29.9c-2.4,1.4-4.1,3-4.1,5.8v23.6c0,1.7,0.7,2.8,1.8,3.2
	c-0.3,0.1-0.7,0.1-1.1,0.1c-1.1,0-2.2-0.3-3.2-0.9l-20.2-12c-2-1.2-3.2-3.4-3.2-5.7V20c0-2.3,1.2-4.5,3.2-5.7l20.2-12
	c2-1.2,4.4-1.2,6.4,0l20.2,12c1.7,1,2.8,2.7,3.1,4.6C57.8,17.5,56.3,17.1,54.6,18.1L54.6,18.1L54.6,18.1z"/>
</svg>
