<?xml version="1.0" encoding="utf-8"?>
<!-- Generator: Adobe Illustrator 26.0.1, SVG Export Plug-In . SVG Version: 6.00 Build 0)  -->
<svg version="1.1" id="Layer_1" xmlns="http://www.w3.org/2000/svg" xmlns:xlink="http://www.w3.org/1999/xlink" x="0px" y="0px"
	 viewBox="0 0 2222 2500" style="enable-background:new 0 0 2222 2500;" xml:space="preserve">
<style type="text/css">
	.st0{fill:#328BF0;}
	.st1{fill:#1564BF;}
	.st2{fill:#FFFFFF;}
</style>
<path class="st0" d="M2221.9,743.7c0-42-9-79.2-27.2-111c-17.8-31.4-44.6-57.6-80.4-78.4c-295.8-170.7-591.9-340.9-887.6-511.8
	c-79.7-46.1-157-44.4-236.2,2.3c-117.7,69.5-707.2,407.6-882.9,509.4C35.3,596.1,0.1,660.3,0.1,743.7C0,1087,0.1,1430.3,0,1773.7
	c0,41.1,8.6,77.5,26,108.9c17.8,32.3,44.9,59.3,81.6,80.5C283.2,2065,872.8,2403,990.5,2472.6c79.2,46.8,156.5,48.4,236.2,2.3
	c295.7-170.9,591.8-341.1,887.7-511.8c36.7-21.2,63.8-48.3,81.6-80.5c17.3-31.4,26-67.8,26-108.9
	C2222,1773.6,2222,1087.1,2221.9,743.7"/>
<path class="st1" d="M1224.7,44.7c-79.6-46-156.8-44.3-235.8,2.3c-117.5,69.3-706.1,406.5-881.4,508.1
	C35.3,596.9,0.1,660.9,0.1,744.1C0,1086.5,0.1,1429,0,1771.4c0,41,8.6,77.3,25.9,108.6c17.8,32.2,44.9,59.1,81.5,80.3
	c58.3,33.7,116.6,67.3,175,100.9L1906.3,437.4C1679.1,306.5,1451.8,175.8,1224.7,44.7"/>
<path class="st2" d="M1340.6,1102.2l345.8,2.4c0-144.1-145.8-496.9-563.9-496.9C856.1,607.7,498,777.1,498,1264
	c0,486.9,351.1,645.7,624.5,645.7c442.8,0,548.6-306.4,548.6-479.6l-329.9-18.9c0,0,8.8,200.3-220.5,200.3
	c-211.7,0-247-259.3-247-347.5c0-134.1,47.7-349.3,247-349.3C1320.1,914.7,1340.6,1102.2,1340.6,1102.2"/>
</svg>
