<?xml version="1.0" encoding="utf-8"?>
<!-- Generator: Adobe Illustrator 26.0.1, SVG Export Plug-In . SVG Version: 6.00 Build 0)  -->
<svg version="1.1" id="Layer_1" xmlns="http://www.w3.org/2000/svg" xmlns:xlink="http://www.w3.org/1999/xlink" x="0px" y="0px"
	 viewBox="0 0 1200 1200" style="enable-background:new 0 0 1200 1200;" xml:space="preserve">
<style type="text/css">
	.st0{fill:#1564BF;}
</style>
<g transform="translate(0.000000,1200.000000) scale(0.100000,-0.100000)">
	<path class="st0" d="M5600,11970c-1182-89-2265-491-3184-1182c-433-326-878-771-1204-1204C681,8877,312,8054,136,7180
		C47,6737,14,6360,23,5880c7-368,26-574,83-910c169-994,612-1967,1253-2750C2412,933,3885,159,5537,25c214-17,682-20,888-5
		c1163,86,2257,494,3173,1184c242,183,391,314,638,560c302,302,497,535,716,856c600,876,951,1890,1028,2965c13,182,13,651,0,830
		c-139,1883-1119,3551-2695,4588c-451,296-922,522-1440,690c-423,137-808,215-1315,268C6394,11975,5749,11981,5600,11970z
		 M7443,10410c64-8,117-17,117-22s-238-451-528-991c-291-540-570-1060-621-1155s-101-177-112-182c-11-7-65-8-141-4
		c-230,12-563-28-833-100c-71-19-131-33-133-31c-4,4,634,2374,641,2381c25,25,458,92,767,118C6701,10432,7333,10422,7443,10410z
		 M8351,10231c473-139,924-349,1347-627c78-51,142-98,142-103c0-8-204-181-1305-1105c-308-259-636-535-728-613
		c-92-79-174-143-181-143s-78,34-158,75c-252,130-451,205-696,261c-67,16-121,33-119,38c6,17,1552,2255,1558,2256
		C8214,10270,8277,10252,8351,10231z M5360,10178c0-19-391-2269-401-2308c-9-33-17-39-176-117c-243-118-454-260-685-460l-106-92
		l-6,57c-4,31-24,275-46,542c-42,520-116,1400-126,1490l-5,55l123,91c388,286,797,511,1219,669c68,26,140,53,159,60
		C5344,10179,5360,10183,5360,10178z M3540,8520c56-250,151-673,211-939s109-491,109-501c0-9-34-59-76-111c-107-133-278-394-349-532
		c-33-64-62-117-65-117s-184,358-403,796l-398,796l27,47c73,127,403,584,499,691c169,188,329,350,336,338
		C3435,8981,3484,8770,3540,8520z M6440,7916c575-78,1170-367,1664-808l49-43l-439-301c-242-166-745-510-1119-766
		c-374-255-772-527-885-605c-113-77-286-195-385-262c-208-142-240-171-230-210c4-14,31-143,61-286c30-142,56-260,58-262
		s72,10,156,27c84,16,155,29,156,27c11-11,614-1290,610-1294c-3-3-80,4-173,16c-422,52-470,56-798,56c-290,0-332-3-449-24
		c-242-43-403-111-507-213c-49-48-63-57-78-49c-10,6-60,54-111,108c-857,905-1051,2205-493,3305c409,808,1176,1385,2070,1557
		c89,17,171,28,338,45C6011,7942,6335,7930,6440,7916z M2810,6816c254-340,468-629,475-642c11-22,6-45-40-187
		c-52-158-105-370-105-418c-1-58-15-55-97,17c-43,39-287,255-543,480c-256,226-472,419-480,428c-13,16-11,31,14,130
		c42,163,119,398,193,586c76,193,102,246,113,234C2344,7439,2556,7157,2810,6816z M8564,6760c31-190,96-597,146-904
		c49-308,90-569,90-582c0-12-7-25-16-28c-17-6-525-107-1979-392c-489-95-1025-200-1190-233c-165-32-303-56-306-53c-4,4-26,78-49,165
		c-42,155-43,159-24,177c10,10,748,518,1639,1129c1505,1033,1620,1110,1627,1089C8506,7115,8534,6950,8564,6760z M2493,5713
		c309-190,572-355,585-366c22-20,22-23,22-291c0-149,5-309,10-355c5-47,9-86,7-87c-5-4-1228,423-1238,433c-17,17-5,629,15,807
		c17,154,26,206,33,206C1930,6060,2185,5904,2493,5713z M2340,4561c726-150,785-163,805-176c13-8,26-37,38-81c9-38,38-135,64-216
		c25-82,44-150,42-152s-280-6-617-8l-613-3l-9,35c-51,190-89,374-136,658c-5,30-3,32,18,27C1945,4642,2128,4604,2340,4561z
		 M6200,4214c227-228,389-376,626-570c246-201,398-347,527-509c283-353,494-754,623-1185c52-174,52-230,0-336
		c-74-152-292-337-544-463c-153-77-196-92-215-78c-13,10-1474,3162-1492,3217c-4,14,16,21,127,42C6063,4373,6032,4383,6200,4214z
		 M3447,3615c41-77,92-168,114-202l38-61l-525-281c-290-155-529-281-533-281c-25,0-331,642-331,696c0,7,67,28,178,54
		c97,23,341,82,542,131c201,48,382,87,403,86l39-2L3447,3615z M5536,3025c426-44,566-63,580-77c19-20,325-688,331-723
		c4-25-21-77-142-295c-81-146-149-267-151-269c-3-3-105,12-227,33c-502,85-753,115-1145,136c-349,19-679-10-926-81
		c-55-15-101-27-103-25c-2,1,71,173,161,382c90,208,189,442,221,519s71,159,87,183c91,134,329,213,743,246
		C5063,3062,5300,3050,5536,3025z"/>
	<path class="st0" d="M5215,7449c-335-173-714-457-959-720c-316-339-523-700-621-1082c-156-612-64-1240,287-1942
		c83-167,126-242,143-248c17-7,205,83,205,97c0,6-46,88-101,181c-378,639-495,1170-389,1770c65,371,263,784,538,1125
		c216,268,559,575,867,778C5333,7505,5338,7512,5215,7449z"/>
	<path class="st0" d="M4970,2914c-269-33-498-83-535-118c-24-21-353-696-340-696c2,0,104,140,227,311c123,172,232,318,243,325
		c30,19,290,92,429,120c67,13,182,27,256,31c107,6,127,9,95,15C5298,2911,5020,2920,4970,2914z"/>
</g>
</svg>
