<?xml version="1.0" standalone="no"?>
<!DOCTYPE svg PUBLIC "-//W3C//DTD SVG 20010904//EN"
 "http://www.w3.org/TR/2001/REC-SVG-20010904/DTD/svg10.dtd">
<svg version="1.0" xmlns="http://www.w3.org/2000/svg"
 width="234.000000pt" height="211.000000pt" viewBox="0 0 234.000000 211.000000"
 preserveAspectRatio="xMidYMid meet">

<g transform="translate(0.000000,211.000000) scale(0.100000,-0.100000)"
fill="#000000" stroke="none">
<path d="M258 2099 c-28 -16 -22 -59 15 -97 l32 -34 -49 -43 c-48 -43 -49 -44
-36 -75 11 -28 11 -34 -7 -58 -11 -14 -35 -30 -54 -35 -19 -5 -40 -13 -46 -19
-16 -13 -17 -54 -2 -64 6 -4 -5 -16 -28 -29 -45 -27 -75 -74 -76 -118 0 -18
11 -61 25 -97 15 -36 43 -130 63 -210 43 -174 71 -250 141 -392 236 -473 556
-715 1029 -778 234 -31 566 -21 710 23 39 11 97 22 130 23 33 1 80 8 105 14
25 7 62 17 83 22 42 10 52 25 43 63 -6 24 -10 25 -82 25 -41 0 -84 4 -94 10
-12 7 -27 5 -49 -6 -24 -12 -38 -13 -68 -5 -21 6 -61 11 -89 11 -28 0 -54 3
-57 6 -4 4 7 24 23 44 17 21 30 45 30 53 0 38 -50 33 -100 -9 -24 -21 -28 -29
-18 -36 10 -8 9 -9 -3 -5 -10 3 -26 -5 -40 -19 -27 -29 -44 -27 -189 18 -182
57 -348 163 -458 291 -139 161 -178 224 -221 352 -40 120 -58 231 -75 465 -19
255 -14 266 117 220 63 -22 76 -24 96 -11 37 24 -40 81 -174 127 -44 15 -92
36 -107 46 -15 10 -43 25 -62 33 -20 9 -36 21 -36 29 0 15 -41 36 -73 37 -12
0 -38 5 -57 12 -29 10 -36 18 -40 47 l-5 35 -70 5 -70 5 3 52 c2 44 -1 54 -20
67 -25 18 -65 20 -90 5z m70 -11 c23 -23 13 -35 -28 -34 -45 1 -46 2 -23 28
19 21 34 23 51 6z m95 -155 c-7 -2 -19 -2 -25 0 -7 3 -2 5 12 5 14 0 19 -2 13
-5z m54 -74 c18 -7 20 -13 14 -35 -4 -15 -12 -29 -17 -31 -16 -5 -64 47 -64
69 0 20 7 20 67 -3z m-72 -39 c4 -6 -10 -10 -34 -10 -21 0 -48 -2 -58 -5 -10
-3 -4 1 12 9 35 18 71 20 80 6z m181 -55 c11 -34 11 -35 -7 -19 -18 16 -19 16
-19 -10 0 -42 -27 -44 -60 -5 -22 25 -29 29 -30 17 0 -15 -7 -17 -45 -12 -24
4 -65 1 -91 -5 -25 -7 -48 -10 -50 -8 -4 4 250 74 276 76 9 1 20 -13 26 -34z
m278 -51 c14 -14 14 -18 1 -44 -9 -17 -28 -36 -43 -43 -42 -22 -152 -46 -251
-56 -54 -6 -106 -18 -133 -31 -23 -12 -64 -30 -90 -41 -41 -16 -48 -16 -48 -4
0 17 -4 18 -49 9 -17 -4 -31 -13 -31 -20 0 -15 -27 -18 -54 -8 -26 10 -40 43
-25 60 15 19 6 28 -21 19 -24 -8 -40 -42 -40 -88 l-1 -32 -14 25 c-29 51 -8
94 58 119 45 17 67 14 67 -10 0 -26 62 -54 88 -40 16 9 16 10 -1 17 -11 4 -16
13 -12 24 4 11 -1 20 -12 24 -15 6 -16 9 -3 15 8 5 33 12 55 16 22 3 92 22
156 41 63 19 137 37 162 40 44 6 47 5 47 -15 0 -25 26 -39 42 -23 9 9 7 17 -6
31 -17 19 -17 20 21 24 88 9 122 7 137 -9z m-674 -24 c-8 -5 -19 -10 -25 -10
-5 0 -3 5 5 10 8 5 20 10 25 10 6 0 3 -5 -5 -10z m850 -61 c0 -6 -7 -6 -20 1
-11 6 -20 15 -20 21 0 6 7 6 20 -1 11 -6 20 -15 20 -21z m-225 -92 c3 -18 6
-59 6 -92 0 -160 3 -215 12 -215 5 0 7 -17 4 -40 -3 -22 -1 -43 4 -46 14 -8
11 -34 -5 -34 -15 0 -26 -21 -26 -48 0 -13 4 -11 16 6 20 29 30 22 38 -30 4
-24 18 -80 32 -126 23 -76 24 -83 9 -98 -15 -15 -14 -18 14 -35 17 -10 31 -26
31 -34 0 -9 5 -13 10 -10 16 10 39 -13 78 -75 19 -30 52 -74 74 -97 21 -24 38
-51 38 -61 0 -41 109 -122 205 -152 22 -7 56 -27 75 -46 36 -34 77 -54 111
-54 11 0 26 -6 34 -13 7 -7 38 -19 69 -26 59 -13 71 -25 34 -34 -28 -8 -117
14 -195 47 -70 29 -138 34 -171 10 -24 -16 -30 -7 -9 16 6 8 0 5 -14 -8 -32
-28 -40 -28 -70 4 -13 14 -31 23 -40 21 -29 -8 -49 11 -45 43 4 33 1 34 -82
44 -64 7 -113 56 -56 56 19 0 25 -4 20 -15 -6 -17 29 -35 70 -35 35 0 30 13
-26 69 -48 48 -89 72 -275 156 -33 15 -55 29 -48 32 6 2 34 -8 62 -23 41 -21
54 -24 66 -14 26 22 -16 84 -65 95 -15 3 -38 17 -50 30 l-23 24 27 10 c36 14
33 40 -10 87 -19 21 -33 31 -30 21 3 -11 8 -31 11 -45 l5 -27 -13 27 c-29 61
-77 89 -77 46 -1 -20 -2 -21 -10 -6 -6 9 -18 14 -29 11 -22 -6 -28 2 -36 48
-4 20 -21 50 -43 72 l-37 38 29 -11 c40 -15 56 1 36 37 -25 43 -44 49 -71 24
l-24 -22 -3 46 c-3 39 -6 45 -17 35 -9 -8 -12 -22 -8 -41 5 -25 3 -29 -18 -29
-22 0 -21 -2 14 -38 29 -30 34 -41 25 -50 -21 -21 -36 -13 -48 23 -6 19 -21
43 -33 52 -13 11 -21 27 -19 39 2 14 -6 27 -23 38 -24 16 -24 18 -9 41 19 29
49 33 63 8 6 -12 5 -20 -6 -28 -18 -13 -1 -65 22 -65 11 0 15 11 15 44 0 52
-26 90 -63 91 -14 1 -33 7 -41 14 -19 16 -21 41 -3 41 7 0 17 10 22 23 6 13
21 23 37 25 44 5 54 26 33 72 -21 46 -17 54 30 57 43 2 75 19 75 38 0 10 10
15 30 15 16 0 33 7 37 15 7 12 16 13 43 5 48 -14 59 -12 36 5 -11 8 -17 17
-14 20 3 3 35 12 73 20 37 7 69 16 72 19 12 12 33 -9 38 -37z m-460 -147 c0
-9 -11 -16 -30 -17 -25 -2 -27 -1 -10 6 19 9 19 9 -5 20 -24 10 -23 10 10 8
23 -1 35 -7 35 -17z m-113 -22 c-9 -9 -15 -9 -24 0 -9 9 -7 12 12 12 19 0 21
-3 12 -12z m8 -98 c0 -13 -11 -13 -30 0 -12 8 -11 10 8 10 12 0 22 -4 22 -10z
m-90 -41 c0 -6 -4 -7 -10 -4 -5 3 -10 11 -10 16 0 6 5 7 10 4 6 -3 10 -11 10
-16z m78 3 c2 -7 -2 -10 -12 -6 -9 3 -16 11 -16 16 0 13 23 5 28 -10z m-23
-168 c2 -17 14 -59 28 -93 18 -45 21 -58 9 -49 -14 12 -81 146 -103 208 -9 24
-8 23 17 -5 18 -21 24 -24 19 -10 -17 47 -14 57 6 21 12 -22 23 -54 24 -72z
m132 -40 c-3 -3 -12 -4 -19 -1 -8 3 -5 6 6 6 11 1 17 -2 13 -5z m177 -80 c3
-9 6 -24 6 -33 0 -10 14 -35 30 -56 17 -21 28 -40 25 -43 -8 -8 -147 60 -162
78 -22 27 -16 43 15 36 82 -21 83 -21 72 8 -5 14 -6 26 -1 26 5 0 12 -7 15
-16z m-263 -79 c15 -34 44 -81 64 -105 20 -23 40 -51 45 -60 5 -10 19 -29 31
-42 12 -13 29 -44 38 -69 11 -28 26 -49 43 -57 15 -7 36 -28 48 -47 12 -19 26
-35 31 -35 6 0 21 -13 35 -29 13 -16 45 -41 69 -56 25 -14 45 -32 45 -40 0 -8
-2 -15 -5 -15 -48 0 -232 171 -280 261 -16 30 -60 101 -98 156 -66 99 -129
221 -106 207 6 -4 24 -35 40 -69z m359 -99 c33 -12 33 -13 13 -20 -24 -8 -31
-26 -10 -26 9 0 9 -2 -1 -9 -10 -6 -6 -16 18 -42 27 -30 64 -89 55 -89 -8 0
-155 82 -155 87 0 2 10 2 23 -2 22 -6 22 -6 2 12 -39 36 -47 60 -28 83 20 23
34 24 83 6z m159 -222 c14 -12 -19 -1 -35 12 -18 14 -18 14 6 3 14 -6 27 -13
29 -15z m-75 -24 c69 -22 81 -34 43 -44 -45 -11 -138 28 -123 52 9 15 2 16 80
-8z m132 -22 c33 -15 43 -23 31 -26 -15 -3 -87 33 -87 44 0 7 5 5 56 -18z m60
13 c5 -5 18 -11 29 -14 19 -4 19 -5 -1 -6 -12 0 -37 6 -55 14 -32 13 -32 14
-8 15 14 0 29 -4 35 -9z m-6 -71 c8 -5 11 -10 5 -10 -5 0 -17 5 -25 10 -8 5
-10 10 -5 10 6 0 17 -5 25 -10z m0 -55 c16 -9 19 -14 9 -15 -8 0 -24 7 -35 15
-24 18 -7 19 26 0z m85 -75 c3 -5 2 -10 -4 -10 -5 0 -13 5 -16 10 -3 6 -2 10
4 10 5 0 13 -4 16 -10z m132 -16 c-3 -3 -12 -4 -19 -1 -8 3 -5 6 6 6 11 1 17
-2 13 -5z m-206 -85 c45 -22 88 -38 96 -35 8 3 12 2 9 -2 -8 -13 150 -69 224
-81 36 -5 148 -13 250 -17 194 -7 222 -22 45 -23 -121 -1 -404 39 -495 69 -74
25 -230 96 -230 105 0 3 23 -6 51 -20 59 -31 99 -46 99 -40 0 3 -35 23 -77 44
-43 22 -72 40 -65 41 7 0 49 -18 93 -41z m9 31 c0 -5 -4 -10 -10 -10 -5 0 -10
5 -10 10 0 6 5 10 10 10 6 0 10 -4 10 -10z m518 -46 c-2 -14 -12 -19 -36 -19
-39 0 -40 7 -5 35 29 22 47 15 41 -16z m516 -1 c56 -11 -4 -20 -98 -15 -81 4
-88 6 -70 19 19 14 84 12 168 -4z m-477 -10 c-9 -9 -19 -14 -23 -11 -10 10 6
28 24 28 15 0 15 -1 -1 -17z m786 0 c-13 -2 -35 -2 -50 0 -16 2 -5 4 22 4 28
0 40 -2 28 -4z m-723 -13 c0 -5 -5 -10 -11 -10 -5 0 -7 5 -4 10 3 6 8 10 11
10 2 0 4 -4 4 -10z m-55 -10 c-3 -5 -12 -10 -18 -10 -7 0 -6 4 3 10 19 12 23
12 15 0z m-320 -20 c73 -16 100 -35 35 -25 -25 4 -63 16 -85 26 -22 11 -33 18
-25 15 8 -2 42 -9 75 -16z m465 6 c0 -2 -7 -7 -16 -10 -8 -3 -12 -2 -9 4 6 10
25 14 25 6z"/>
<path d="M740 1685 c-19 -23 -8 -26 19 -4 16 13 18 19 8 19 -8 0 -20 -7 -27
-15z"/>
<path d="M459 1640 l-24 -20 36 15 c20 7 45 12 57 9 11 -3 29 -1 39 5 14 8 8
10 -33 11 -38 0 -58 -6 -75 -20z"/>
<path d="M385 1609 c-10 -15 0 -21 27 -17 l23 3 -22 13 c-15 8 -24 9 -28 1z"/>
<path d="M340 1580 c-17 -10 -16 -12 28 -34 26 -13 32 -14 32 -3 0 13 -30 47
-41 47 -2 0 -11 -4 -19 -10z"/>
<path d="M756 1458 c-9 -35 -7 -86 3 -93 14 -8 41 36 40 65 -2 23 -2 23 -6 3
-2 -13 -8 -23 -13 -23 -5 0 -5 13 0 29 8 28 5 41 -11 41 -3 0 -9 -10 -13 -22z"/>
<path d="M488 1354 c4 -22 36 -54 53 -54 16 0 -5 39 -30 58 l-28 20 5 -24z"/>
<path d="M540 1370 c0 -5 5 -10 11 -10 5 0 7 5 4 10 -3 6 -8 10 -11 10 -2 0
-4 -4 -4 -10z"/>
<path d="M442 1280 c3 -17 72 -54 90 -48 7 3 -6 17 -27 32 -31 22 -34 27 -15
21 61 -16 65 -16 39 -1 -34 20 -91 17 -87 -4z"/>
<path d="M428 1240 c33 -30 52 -38 52 -21 0 10 -62 51 -76 51 -5 0 6 -14 24
-30z"/>
<path d="M403 1228 c7 -21 -3 -24 -21 -6 -7 7 -12 8 -12 2 0 -6 14 -23 30 -39
22 -21 33 -26 41 -18 16 16 7 44 -21 62 -22 15 -24 15 -17 -1z"/>
<path d="M490 1180 c0 -5 5 -10 11 -10 5 0 7 5 4 10 -3 6 -8 10 -11 10 -2 0
-4 -4 -4 -10z"/>
<path d="M717 1174 c-22 -23 4 -134 32 -134 12 0 21 39 10 46 -5 3 -6 16 -3
30 4 15 2 24 -5 24 -7 0 -15 9 -19 20 -4 12 -11 18 -15 14z"/>
<path d="M791 1164 c0 -11 3 -14 6 -6 3 7 2 16 -1 19 -3 4 -6 -2 -5 -13z"/>
<path d="M811 1154 c0 -11 3 -14 6 -6 3 7 2 16 -1 19 -3 4 -6 -2 -5 -13z"/>
<path d="M530 1153 c0 -7 9 -37 21 -67 18 -50 23 -55 49 -53 15 1 26 4 24 6
-2 2 1 10 7 17 8 9 1 23 -27 54 -41 45 -50 46 -35 6 15 -38 5 -32 -18 12 -11
20 -20 32 -21 25z"/>
<path d="M510 1101 c0 -6 5 -13 10 -16 6 -3 10 1 10 9 0 9 -4 16 -10 16 -5 0
-10 -4 -10 -9z"/>
<path d="M870 868 c0 -7 5 -20 10 -28 8 -12 10 -9 10 13 0 15 -4 27 -10 27 -5
0 -10 -6 -10 -12z"/>
<path d="M985 660 c3 -5 8 -10 11 -10 2 0 4 5 4 10 0 6 -5 10 -11 10 -5 0 -7
-4 -4 -10z"/>
<path d="M1040 587 c0 -15 31 -67 40 -67 6 0 10 4 10 9 0 12 -49 69 -50 58z"/>
</g>
</svg>
