<?xml version="1.0" encoding="utf-8"?>
<!-- Generator: Adobe Illustrator 26.0.1, SVG Export Plug-In . SVG Version: 6.00 Build 0)  -->
<svg version="1.1" id="Layer_1" xmlns="http://www.w3.org/2000/svg" xmlns:xlink="http://www.w3.org/1999/xlink" x="0px" y="0px"
	 viewBox="0 0 234 210" style="enable-background:new 0 0 234 210;" xml:space="preserve">
<style type="text/css">
	.st0{fill:#1564BF;}
</style>
<g transform="translate(0.000000,210.000000) scale(0.100000,-0.100000)">
	<path class="st0" d="M262,2084c-30-20-28-40,8-81c17-18,30-39,30-45s-20-28-44-50c-41-37-43-41-33-68c16-42-3-75-50-90
		c-55-18-75-38-68-70c5-22,0-32-30-54c-60-46-92-130-62-165c23-26,45-92,87-261c95-380,295-710,545-905c215-167,411-236,750-266
		c207-18,483,3,620,46c28,9,70,15,95,15c47-1,158,23,200,43c29,15,37,41,20,62c-9,11-34,15-89,15c-42,0-82,4-90,9c-9,6-23,4-38-6
		c-21-14-32-14-74-5c-28,7-70,12-94,12s-46,4-49,8c-3,5,8,28,25,50c34,47,31,62-11,62c-21,0-45-15-89-56l-60-56l-58,12
		c-216,45-431,168-564,322c-217,253-261,373-294,810c-17,222-14,248,33,248c16,0,57-9,91-20c62-19,91-18,91,4c0,31-76,76-190,115
		c-76,26-166,75-196,107c-13,13-44,27-80,34c-69,14-84,24-84,55c0,33-19,44-85,47l-60,3v51c0,28-6,58-14,67
		C334,2104,291,2105,262,2084z M334,2065c4-12-3-15-29-15s-33,3-29,15c4,8,16,15,29,15S330,2073,334,2065z M456,1850
		c22-8,29-17,29-35c0-26-4-29-30-19c-17,7-51,64-37,64C423,1860,440,1855,456,1850z M575,1770c-3-5-12-7-20-3c-17,6-20-8-5-23
		c13-13,2-44-15-44c-7,0-20,11-29,25c-17,26-42,33-48,14c-3-8-13-9-28-4c-21,7-16,10,40,25C546,1780,584,1784,575,1770z M866,1695
		c20-50-71-94-242-120c-110-16-166-27-194-38c-9-4-22,3-32,17c-16,22-16,23,9,18c20-4,24-1,21,14c-4,24-58,33-58,10c0-9-4-16-10-16
		c-5,0-7,7-4,15c4,8,1,15-4,15c-13,0-17-7-26-42c-5-23-3-28,12-28c10,0,26-6,36-13c17-13,15-15-23-30c-48-20-54-21-46-7
		c4,6-14,10-45,10c-42,0-51-3-47-15c9-23-10-27-43-10c-32,17-40,42-15,51c25,10,17,24-14,24c-40,0-61-24-62-68c0-33-1-35-11-15
		c-18,37-2,69,42,87c50,20,70,20,70,2c0-22,40-46,77-46c35,0,47,25,17,37c-13,5-13,7-2,15c10,7,9,11-6,19c-16,10-1,16,90,39
		c60,15,110,26,112,25c2-2-6-6-17-10c-12-3-21-13-21-21c0-17,17-19,22-3c2,6,26,13,53,14c28,2,56,4,63,4c6,1,12,8,12,16
		c0,10-11,15-37,16c-38,1-38,1,12,13c111,28,113,28,107,0c-4-21-1-24,28-24c26,0,31,3,30,23c-1,12-2,25-1,30c1,4,33,7,71,7
		C844,1710,862,1706,866,1695z M796,1540c16,0,20-75,4-85c-5-3-10,1-10,9c0,9-6,16-14,16c-16,0-36-50-36-92c0-31,24-48,43-29
		c6,6,17,11,25,11c12,0,14-15,10-80c-3-43-1-77,4-74c4,3,8-6,8-21c0-22-3-25-25-19c-22,5-25,3-25-19c0-14,6-27,13-30
		c7-2,12-21,11-50c0-26,3-47,8-47s6-9,3-20c-4-14-2-20,8-20c9,0,18-6,20-12c4-10,7-10,14,0c6,8,13-5,23-40c7-29,15-60,17-68
		c4-13,4-13-6,0c-17,25-34-1-22-33c11-29,31-36,31-11c0,8,5,12,11,9c7-5,5-13-5-24c-20-22-21-41-2-41c9,0,12-8,8-25
		c-5-28,14-35,21-7c3,11,7,7,12-15c8-34,25-45,25-17c0,25,26,0,67-66c19-30,50-71,68-90s35-47,39-62c9-41,97-113,170-139
		c36-13,62-27,59-32s0-7,8-5c8,3,31-10,51-28c35-32,102-59,120-48c4,3,8,1,8-4c0-12,39-29,84-37c38-8,50-25,16-25
		c-29,0-119,25-174,49c-63,28-127,37-154,22c-18-10-21-9-16,4c9,23-10,18-36-10l-24-25l-32,31c-18,17-37,28-42,25c-16-10-41,4-35,20
		c3,8-1,14-8,14c-10,0-10,3-1,12c20,20,14,28-20,29c-24,1-27,3-10,6c12,2,22,6,22,8s-26,29-57,61c-40,39-85,70-147,100
		c-50,25-80,44-68,44c17,0,22,6,22,24c0,31-46,86-70,86s-82,49-59,50c30,0,43,26,29,59c-15,37-71,91-77,74c-4-10-10-9-26,2
		c-29,20-37,19-37-7c-1-20-2-21-11-6c-5,10-16,15-25,11c-19-7-34,13-34,46c0,14-12,38-27,53c-26,27-26,28-5,28c11,0,25,6,29,13
		c12,21,44,29,60,15c12-10,14-9,12,7c-2,11,0,25,4,31c8,14-69,104-89,104c-8,0-14,5-14,12c0,6-3,8-7,5c-3-4-14,0-24,9s-25,14-33,11
		c-9-4-18-2-21,3c-4,6,4,10,16,10c19,0,20,2,8,17s-12,16,4,10c69-26,88-15,40,23c-20,15-22,18-6,11c12-6,30-11,40-11c17,1,17,2-1,15
		c-11,9-14,15-7,15c22,0,1,40-46,87c-25,24-48,41-52,37c-3-4,0-9,7-11c6-3,15-22,18-44c4-21,10-39,13-39c4,0,16-7,27-16
		c18-14,18-15-4-4c-13,6-37,8-53,5c-24-6-29-11-23-27c5-17,3-18-14-9c-28,15-35,14-28-5c3-8,2-12-4-9c-14,9-12-9,3-24
		c10-11,8-11-10-2c-25,13-30,3-10-18c10-11,8-11-10-2c-12,6-27,10-34,9c-6-2-16,4-21,13c-14,21,26,69,57,69c12,0,30,9,41,21
		c18,20,18,22,1,51c-25,44-22,58,13,58c34,0,90,25,90,40c0,6,11,10,25,10c13,0,28,7,33,15c7,13,16,14,50,7c41-10,70,2,38,14
		c-26,10-8,22,42,30c26,3,54,10,62,15c8,4,16,4,18-2C780,1544,788,1540,796,1540z M360,1380c0-5-4-10-9-10c-6,0-13,5-16,10
		c-3,6,1,10,9,10C353,1390,360,1386,360,1380z M240,1360c0-5-5-10-11-10c-5,0-7,5-4,10c3,6,8,10,11,10C238,1370,240,1366,240,1360z
		 M369,1157c6-8,7-17,2-23c-5-5-11-17-13-28c-3-18-4-18-26,0c-21,18-22,20-7,42C343,1173,353,1175,369,1157z M505,1150
		c16,0,30-33,16-38c-6-2-11-8-11-14c0-10-46-58-56-58c-2,0-4,9-4,21c0,13,8,23,20,26c33,9,20,38-15,37c-46-1-50,19-7,31
		c20,6,39,7,40,3C490,1154,498,1150,505,1150z M840,1121c0-5-7-11-14-14c-10-4-13-1-9,9C823,1131,840,1135,840,1121z M417,1063
		c-3-10-5-2-5,17s2,27,5,18C419,1088,419,1072,417,1063z M379,1043c-2-1,13-20,34-41c33-34,36-40,23-51s-17-9-26,14
		c-5,14-10,30-10,34s-9,16-20,26s-20,28-20,39c1,21,1,21,12,1C379,1054,382,1044,379,1043z M858,1004c-12-11-25,16-20,41l6,30l8-34
		C857,1023,860,1006,858,1004z M229,975c0-5-6,1-14,15s-14,30-14,35c0,6,6-1,14-15S229,981,229,975z M455,904c21-8,46-13,57-11
		c12,4,18,0,18-12c0-10,11-28,25-41c43-40,28-41-49-2c-43,21-79,46-85,60C408,924,408,924,455,904z M608,753c17-4,20-8,11-14
		c-25-15-19-47,16-85c49-53,46-69-8-41c-24,12-42,27-40,33c2,7-4,18-14,26c-24,18-47,58-32,58c5,0,8,4,5,9c-4,5,4,7,16,3
		c14-3,19-2,14,6C568,761,575,763,608,753z M351,708c16-29,2-21-22,15c-17,23-18,28-6,18C333,733,346,718,351,708z M411,627
		c12-22,12-22-10-3c-11,11-21,23-21,28C380,666,399,651,411,627z M780,590c8-5,11-10,5-10c-5,0-17,5-25,10s-10,10-5,10
		C761,600,772,595,780,590z M525,469c9-16,20-29,25-29s26-18,46-40c21-22,42-40,48-40s25-12,41-26l30-25l-29,6
		c-31,6-167,124-211,180l-25,33l30-15C497,505,517,485,525,469z M702,504c32-9,58-21,58-25c0-23-118,4-135,31
		C616,524,635,523,702,504z M849,474c14-12-19-1-35,12c-18,14-18,14,6,3C834,483,847,476,849,474z M1007,385c9-25-2-27-22-5
		c-17,18-17,20-1,20C993,400,1003,393,1007,385z M1411,167c-8-8-11-7-11,2c0,8-7,11-17,7c-12-4-9,2,7,15c23,19,25,20,28,4
		C1420,186,1417,173,1411,167z M1915,180l50-7l-45-1c-25,0-67,3-95,8l-50,7l45,1C1845,188,1888,185,1915,180z M1131,100
		c7,0,10-3,7-6c-13-12-174,41-181,60c-3,7,32-2,79-21C1082,115,1125,100,1131,100z M1197,114c-3-3-12-4-19-1c-8,3-5,6,6,6
		C1195,120,1201,117,1197,114z M1490,55c45-12,47-14,15-10c-22,3-65,5-95,6c-50,2-52,2-20,9c19,4,37,8,40,8C1433,69,1460,63,1490,55
		z M1623,53c-13-2-33-2-45,0c-13,2-3,4,22,4S1635,55,1623,53z"/>
	<path class="st0" d="M742,1688c-15-15-16-38-2-38c6,0,10,4,10,9s9,11,20,14s20,10,20,16C790,1704,757,1703,742,1688z"/>
	<path class="st0" d="M532,1363c5-25,28-28,28-4c0,12-6,21-16,21C535,1380,530,1373,532,1363z"/>
	<path class="st0" d="M710,1325c0-3,7-22,17-43c9-20,17-41,17-46c1-5,7-11,15-14c14-5,11,12-15,75C732,1325,710,1343,710,1325z"/>
	<path class="st0" d="M650,1171c0-17,12-41,21-41c5,0,9,11,9,25c0,16-6,25-15,25C657,1180,650,1176,650,1171z"/>
	<path class="st0" d="M706,1164c-18-46,18-151,48-141c12,5,10,108-3,117c-4,3-10,13-14,23C729,1184,714,1185,706,1164z"/>
	<path class="st0" d="M602,898c6-18,28-21,28-4c0,9-7,16-16,16S600,905,602,898z"/>
	<path class="st0" d="M692,889c2-7,10-15,17-17c8-3,12,1,9,9c-2,7-10,15-17,17C693,901,689,897,692,889z"/>
	<path class="st0" d="M974,655c3-9,6-19,6-21s7-4,16-4c22,0,13,34-10,38C972,671,969,668,974,655z"/>
	<path class="st0" d="M1010,600c0-11,4-20,8-20c5,0,16-16,25-35c16-34,42-54,53-42c9,8-25,66-46,80c-11,6-20,17-20,24s-4,13-10,13
		C1015,620,1010,611,1010,600z"/>
</g>
</svg>
