<?xml version="1.0" encoding="utf-8"?>
<!-- Generator: Adobe Illustrator 26.0.2, SVG Export Plug-In . SVG Version: 6.00 Build 0)  -->
<svg version="1.1" id="Layer_1" xmlns="http://www.w3.org/2000/svg" xmlns:xlink="http://www.w3.org/1999/xlink" x="0px" y="0px"
	 viewBox="0 0 64 64" style="enable-background:new 0 0 64 64;" xml:space="preserve">
<style type="text/css">
	.st0{fill:#1564BF;}
	.st1{fill:#0C56CC;}
</style>
<path class="st0" d="M23.24,49.48c0,0-2.46,1.5,1.71,1.92c5.02,0.64,7.69,0.53,13.25-0.53c1.12,0.68,2.3,1.26,3.53,1.71
	C29.23,57.92,13.41,52.26,23.24,49.48L23.24,49.48z M21.64,42.53c0,0-2.67,2.03,1.5,2.46c5.45,0.53,9.72,0.64,17.1-0.85
	c0.72,0.73,1.6,1.28,2.56,1.6C27.74,50.23,10.85,46.17,21.64,42.53L21.64,42.53z M51.14,54.71c0,0,1.82,1.5-2.03,2.67
	c-7.16,2.14-30.03,2.78-36.44,0c-2.24-0.96,2.03-2.35,3.4-2.56c1.39-0.32,2.14-0.32,2.14-0.32c-2.46-1.71-16.35,3.53-7.05,5.02
	c25.54,4.17,46.59-1.82,39.97-4.81L51.14,54.71z M24.4,35.27c0,0-11.65,2.78-4.17,3.74c3.21,0.43,9.51,0.32,15.39-0.11
	c4.81-0.43,9.62-1.28,9.62-1.28s-1.71,0.75-2.89,1.5c-11.86,3.1-34.62,1.71-28.1-1.5C19.81,34.95,24.4,35.27,24.4,35.27L24.4,35.27z
	 M45.24,46.91c11.97-6.2,6.41-12.18,2.56-11.43c-0.96,0.21-1.39,0.43-1.39,0.43s0.32-0.64,1.07-0.85
	c7.59-2.67,13.57,8.01-2.46,12.18C45.02,47.23,45.13,47.13,45.24,46.91L45.24,46.91z M25.58,63.8c11.54,0.75,29.17-0.43,29.6-5.88
	c0,0-0.85,2.14-9.51,3.74c-9.83,1.82-22.01,1.6-29.17,0.43C16.5,62.09,17.99,63.37,25.58,63.8L25.58,63.8z"/>
<path class="st1" d="M37.99,0c0,0,6.63,6.73-6.3,16.88c-10.37,8.23-2.35,12.93,0,18.27c-6.09-5.45-10.47-10.26-7.48-14.75
	C28.59,13.79,40.66,10.6,37.99,0z M34.59,30.67c3.1,3.53-0.85,6.73-0.85,6.73s7.91-4.06,4.27-9.08c-3.31-4.81-5.88-7.16,8.01-15.17
	C46.03,13.15,24.12,18.6,34.59,30.67z"/>
</svg>
