<?xml version="1.0" encoding="utf-8"?>
<!-- Generator: Adobe Illustrator 26.0.1, SVG Export Plug-In . SVG Version: 6.00 Build 0)  -->
<svg version="1.1" id="Layer_1" xmlns="http://www.w3.org/2000/svg" xmlns:xlink="http://www.w3.org/1999/xlink" x="0px" y="0px"
	 viewBox="0 0 64 64" style="enable-background:new 0 0 64 64;" xml:space="preserve">
<style type="text/css">
	.st0{fill:#1564BF;}
</style>
<path class="st0" d="M4.3,15.4c-5.7,8.1-5,18.7-0.6,27.4C3.8,43,3.9,43.2,4,43.4l0.2,0.4c0,0.1,0.1,0.2,0.1,0.2
	c0.1,0.1,0.2,0.3,0.2,0.4l0.4,0.7l0.2,0.4l0.5,0.8l0.2,0.3c0.2,0.3,0.5,0.7,0.7,1l0.1,0.2c0.2,0.3,0.4,0.6,0.6,0.8l0.2,0.3l0.6,0.7
	l0.2,0.3c0.3,0.3,0.5,0.6,0.8,0.9c0,0,0,0,0,0.1c0.3,0.3,0.5,0.6,0.8,0.9l0.3,0.3l0.7,0.6l0.3,0.3c0.3,0.3,0.6,0.6,0.9,0.8l1,0.8
	l0.3,0.3l0.7,0.5l0.4,0.3l0.8,0.6l0.4,0.3c0.2,0.2,0.5,0.3,0.7,0.5l0.3,0.2c0.4,0.2,0.8,0.5,1.2,0.7l0.3,0.2l0.9,0.5
	c0.2,0.1,0.3,0.2,0.5,0.2l0.6,0.3l0.1,0.1l0.3,0.1l1,0.5l0.2,0.1c0.4,0.2,0.8,0.3,1.2,0.5l0.3,0.1l1.1,0.4l0.1,0
	c0.4,0.1,0.8,0.3,1.2,0.4l0.3,0.1c0.4,0.1,0.8,0.3,1.3,0.4c27.4,5,35.3-16.5,35.3-16.5c-6.7,8.7-18.5,11-29.8,8.4
	c-0.4-0.1-0.8-0.2-1.3-0.4l-0.3-0.1c-0.4-0.1-0.8-0.3-1.2-0.4l-0.2-0.1c-0.4-0.1-0.7-0.3-1.1-0.4l-0.3-0.1c-0.4-0.2-0.8-0.3-1.1-0.5
	l-0.2-0.1l-1-0.5l-0.3-0.1c-0.3-0.1-0.5-0.3-0.8-0.4l-0.5-0.3c-0.3-0.2-0.6-0.3-0.9-0.5l-0.3-0.2c-0.4-0.2-0.8-0.5-1.2-0.7
	c-0.1-0.1-0.2-0.1-0.3-0.2l-0.8-0.6c-0.1-0.1-0.2-0.1-0.3-0.2l-0.8-0.6l-0.4-0.3L19,46.9l-0.3-0.3l-0.9-0.7c0,0-0.1-0.1-0.1-0.1
	l-0.9-0.8l-0.3-0.3L15.9,44l-0.3-0.3c-0.3-0.3-0.6-0.6-0.8-0.9c0,0,0,0,0,0c-0.3-0.3-0.6-0.6-0.8-0.9l-0.2-0.3l-0.6-0.7l-0.2-0.3
	l-0.7-0.9C6,31.2,3.7,19.4,8.7,9.8 M21.9,8.6c-4.1,5.9-3.9,13.8-0.7,20c0.5,1,1.1,2.1,1.8,3c0.6,0.9,1.3,1.9,2.1,2.6
	c0.3,0.3,0.6,0.6,0.9,1l0.2,0.2c0.3,0.3,0.6,0.6,0.9,0.9c0,0,0,0,0,0c0.4,0.3,0.7,0.6,1.1,0.9l0.2,0.2c0.4,0.3,0.8,0.6,1.1,0.8l0,0
	c0.2,0.1,0.3,0.2,0.5,0.3c0.1,0.1,0.2,0.1,0.2,0.2c0.3,0.2,0.6,0.4,0.9,0.5l0.1,0.1l0.8,0.4c0.1,0,0.2,0.1,0.3,0.1l0.5,0.3
	c0,0,0.1,0,0.1,0c0.4,0.2,0.7,0.3,1.1,0.5l0.2,0.1c0.3,0.1,0.6,0.2,0.9,0.4l0.4,0.1c0.3,0.1,0.5,0.2,0.8,0.3l0.4,0.1
	c0.4,0.1,0.8,0.3,1.2,0.3c21.1,3.5,26-12.8,26-12.8c-4.4,6.3-12.9,9.4-22,7c-0.4-0.1-0.8-0.2-1.2-0.3c-0.1,0-0.2-0.1-0.4-0.1
	l-0.8-0.3l-0.4-0.1c-0.3-0.1-0.6-0.2-0.9-0.4L38.2,35c-0.4-0.2-0.7-0.3-1.1-0.5l-0.6-0.3L36.3,34c-0.2-0.1-0.5-0.3-0.7-0.4l-0.2-0.1
	c-0.3-0.2-0.6-0.3-0.8-0.5c-0.1-0.1-0.2-0.1-0.3-0.2l-0.5-0.4c-0.4-0.3-0.8-0.5-1.1-0.8l-0.3-0.2c-4-3.1-7.1-7.4-8.6-12.3
	c-1.6-5.1-1.2-10.7,1.5-15.3 M36.7,3.4c-2.4,3.6-2.7,8-1,11.9c1.8,4.2,5.4,7.4,9.6,9l0.5,0.2l0.2,0.1l0.8,0.2
	c11.7,2.3,14.8-6,15.7-7.2c-2.8,4-7.4,5-13.2,3.6c-0.5-0.1-0.9-0.3-1.4-0.4c-0.6-0.2-1.1-0.4-1.6-0.7c-1-0.5-2-1.1-2.9-1.8
	c-5.1-3.9-8.3-11.3-5-17.3"/>
</svg>
