<?xml version="1.0" encoding="utf-8"?>
<!-- Generator: Adobe Illustrator 26.0.2, SVG Export Plug-In . SVG Version: 6.00 Build 0)  -->
<svg version="1.1" id="Layer_1" xmlns="http://www.w3.org/2000/svg" xmlns:xlink="http://www.w3.org/1999/xlink" x="0px" y="0px"
	 viewBox="0 0 162.7 162.6" style="enable-background:new 0 0 162.7 162.6;" xml:space="preserve">
<style type="text/css">
	.st0{fill-rule:evenodd;clip-rule:evenodd;fill:#1564BF;}
</style>
<g id="Layer_x0020_1">
	<g id="_1975445932016">
		<path id="path2394-4" class="st0" d="M74.8,124.5c-0.1-0.3-0.7-1.5-1.1-2.5c-0.5-1-0.9-2.2-1.1-2.4c-0.1-0.3-0.4-0.9-0.6-1.3
			s-0.4-0.9-0.5-1.1c-0.6-1.4-0.8-1.8-2.1-4.4c-0.7-1.4-3-5.8-3.9-7.3c-0.3-0.6-0.5-1-0.5-1.1c0.1,0,1.1-0.3,2.2-0.7
			c2.7-0.8,4.9-1.8,7-3.1c4.3-2.7,8-7,10.2-11.7c0.3-0.5,0.3-0.6,0.7-1.7c0.1-0.3,0.3-0.8,0.4-0.9s0.2-0.6,0.3-0.9
			c0.1-0.4,0.3-0.8,0.3-1.1c0.1-0.2,0.3-0.5,0.3-0.6c0.1-0.2,0.3-1,0.6-1.8c0.3-0.8,0.7-1.9,0.9-2.4c0.2-0.5,0.6-1.6,0.9-2.5
			s0.5-1.8,0.6-2c0.1-0.3,0.7-2.2,1.1-3.1c0.1-0.3,0.3-1.1,0.5-1.6s0.4-1.3,0.5-1.6c0.1-0.3,0.3-0.9,0.3-1.2
			c0.1-0.3,0.3-0.8,0.4-1.1c0.1-0.3,0.3-1.1,0.5-1.8c0.2-0.7,0.4-1.5,0.5-1.8s0.2-0.7,0.3-0.9c0.1-0.4,0.5-1.6,0.7-2.5
			c0.1-0.5,0.2-0.9,0.7-2.3c0.1-0.3,0.3-1.1,0.5-1.9c0.6-2.2,0.7-2.4,0.8-2.8c0.1-0.3,0.3-1.3,0.7-2.4c0.3-1,0.6-2.2,0.7-2.4
			c0.1-0.3,0.2-0.6,0.2-0.8c0.1-0.2,0.3-1.1,0.5-1.9c0.3-0.9,0.5-1.8,0.5-2.2c0.1-0.3,0.3-0.9,0.4-1.4c0.2-0.8,0.3-1.3,0.6-2.4
			c0.1-0.4,0.3-1.1,0.6-2.2c0.1-0.3,0.2-0.8,0.3-1.1c0.1-0.4,0.3-1.3,0.5-2.2c0.2-0.8,0.5-2.2,0.7-3s0.5-1.6,0.5-1.9
			c0.1-0.2,0.1-0.5,0.1-0.6c0-0.2,0.1-0.5,0.1-0.7c0.1-0.4,0.5-1.7,0.7-2.9c0.1-0.7,0.8-3.4,1-4.4c0.1-0.3,0.3-1.3,0.5-2.3
			c0.2-0.9,0.4-2,0.5-2.3s0.3-1.2,0.5-2c0.5-2,0.8-2.8,1.2-3.1c0.3-0.1,0.8,0.3,1.1,0.9c0.6,1.3,0.5,1.3,1.1,3.5
			c0.3,1,0.6,2.1,0.7,2.3c0.1,0.3,0.2,0.8,0.3,1.1c0.1,0.3,0.3,1.3,0.5,2.2c0.2,0.8,0.5,1.8,0.5,2c0.3,1.4,0.6,2.5,0.7,2.9
			c0.1,0.3,0.1,0.6,0.1,0.7s0.1,0.4,0.1,0.7c0.1,0.2,0.2,0.8,0.3,1.4c0.1,0.5,0.3,1.1,0.4,1.5s0.4,1.7,1,4.2
			c0.1,0.3,0.3,1.3,0.5,2.1s0.4,1.8,0.5,2.1s0.3,1.2,0.5,2s0.5,1.8,0.5,2.1c0.1,0.6,0.5,2.1,0.7,3c0.1,0.3,0.3,1.2,0.5,2.1
			c0.2,0.8,0.5,1.8,0.5,2.1c0.1,0.3,0.2,1,0.3,1.5c0.3,1.4,0.5,2.2,0.7,2.7c0.1,0.3,0.3,1.2,0.5,2.1c0.6,2.5,0.9,3.7,1.2,5.1
			c0.1,0.3,0.3,1.2,0.5,2.1c0.2,0.9,0.4,1.8,0.5,2.2c0.1,0.3,0.2,0.9,0.3,1.5c0.1,0.5,0.3,1.2,0.4,1.5s0.2,0.9,0.3,1.2
			c0.1,0.7,0.5,2.3,0.7,3c0.1,0.6,0.6,2.6,0.9,4.1c0.1,0.5,0.3,1.1,0.3,1.4c0.2,0.6,0.6,2.3,0.7,3c0.1,0.3,0.3,1,0.4,1.5
			c0.1,0.6,0.3,1.3,0.3,1.5c0.1,0.3,0.2,0.9,0.3,1.3c0.1,0.4,0.2,0.9,0.3,1.1c0.1,0.3,0.1,0.4,0.1,0.5c-0.1,0.1-0.5,0.1-0.9,0.1
			c-0.7,0-3,0.3-4.7,0.7c-1.3,0.3-4,1.2-5.3,1.8c-2.8,1.3-5.3,2.9-8.1,5.1c-1.4,1.1-4.9,4.4-6.9,6.5c-0.5,0.6-1.3,1.3-1.7,1.7
			c-0.3,0.4-1.1,1.1-1.6,1.7s-0.9,1.1-1,1.1s-0.5,0.4-0.9,0.9c-0.5,0.5-0.9,0.9-0.9,0.9c-0.1,0.1-0.7,0.8-1.6,1.6
			c-0.8,0.9-1.5,1.6-1.6,1.7c-0.1,0-0.5,0.4-0.9,0.9c-0.5,0.5-0.9,0.9-0.9,0.9c-0.1,0.1-0.7,0.7-1.4,1.5c-2,2-5.7,5.5-7.4,6.9
			c-1.6,1.2-1.9,1.5-3.2,2.5c-0.9,0.6-3,1.9-3.2,1.9C75.2,125.2,75,124.9,74.8,124.5L74.8,124.5z"/>
		<path id="path2349-4" class="st0" d="M67.9,66.6c0.7-1.1,1.3-2,1.4-2.2c0.1-0.1,0.3-0.5,0.5-0.8s0.4-0.6,0.4-0.7
			c0,0,0.3-0.4,0.6-1c0.3-0.5,0.9-1.4,1.3-2c0.3-0.6,0.7-1.1,0.7-1.2c0.1-0.2,0.5-0.9,1.3-2.2c0.3-0.6,0.8-1.5,1.1-2
			c1-1.8,6.6-12.4,6.6-12.6c0-0.1,0.3-0.7,0.7-1.5s0.7-1.5,0.7-1.5c0-0.1,0.2-0.4,0.4-0.9c0.2-0.4,0.4-0.9,0.5-1.1
			c0.1-0.1,0.3-0.5,0.4-0.8c0.7-1.5,2.1-4.8,2.1-5c0-0.3-0.2-0.2-0.9,0.7c-0.3,0.5-0.7,1-0.9,1.1s-0.4,0.5-0.7,0.8
			c-0.2,0.3-0.5,0.6-0.5,0.6c-0.1,0-0.6,0.6-1.2,1.3c-2.3,2.5-6.5,6.1-8.1,7c-0.8,0.4-1.9,0.8-4,1.6c-0.3,0.1-1.8,0.7-3.2,1.1
			c-3,1.1-5.6,2.7-8.4,5.3c-1.4,1.3-3.7,3.6-4.9,5.1c-0.3,0.4-0.6,0.7-0.7,0.8c-0.4,0.4-1.5,1.8-1.4,1.9c0.1,0.2,2.1,1.6,3.6,2.7
			c0.6,0.4,1.1,0.8,1.1,0.8c0.1,0.1,0.5,0.3,0.9,0.6c0.5,0.3,0.9,0.6,0.9,0.6c0.3,0.2,1.8,1.3,2.2,1.6c0.2,0.1,1.5,1,2.8,2
			c1.3,0.9,2.6,1.7,2.8,1.7C66.6,68.4,67,68,67.9,66.6L67.9,66.6z M37.7,95.8c0.5-0.2,0.8-0.4,0.9-0.5c0-0.1,0.1-0.1,0.1-0.1
			c0.3,0,4.5-2.7,5.5-3.5c0.1-0.1,0.8-0.6,1.5-1c3-2.2,6.8-5.5,10.1-8.9c2.5-2.5,7.4-8.4,7.4-8.8c0-0.1-1.6-1.3-3.5-2.7
			c-1.9-1.4-3.6-2.6-3.8-2.7c-0.2-0.2-2.1-1.5-4.2-3c-3.8-2.7-4.4-3-4.9-2.6c-0.1,0.1-0.3,0.2-0.7,0.3c-0.7,0.2-1.2,0.4-2.1,0.8
			c-0.3,0.2-0.7,0.3-0.7,0.3c-0.1,0-0.3,0.1-0.6,0.2c-0.3,0.1-0.7,0.3-1,0.4c-0.3,0.1-0.5,0.2-0.6,0.2c0,0-0.4,0.1-0.7,0.3
			c-0.7,0.3-0.9,0.3-1.9,0.8c-0.3,0.1-0.7,0.3-0.9,0.3c-0.1,0.1-0.3,0.1-0.4,0.1c-0.1,0-0.5,0.2-0.9,0.4s-1,0.4-1.1,0.4
			C28,69.2,20.9,72,20.3,72.3c-0.4,0.2-0.9,0.3-0.9,0.3s-0.3,0.1-0.4,0.1c-0.1,0.1-0.4,0.2-0.6,0.3c-0.9,0.4-1.6,0.6-1.9,0.8
			c-0.6,0.3-1.9,0.7-2.6,1c-0.3,0.1-0.5,0.2-0.5,0.2c-0.1,0-0.4,0.1-0.8,0.3C11.3,75.9,11,76,10.9,76s-0.4,0.1-0.8,0.3
			c-0.3,0.2-0.9,0.4-1.1,0.5c-0.3,0.1-0.5,0.2-0.5,0.3c0,0.1,0.9,0.7,2,1.5c1.1,0.7,2.1,1.4,2.3,1.5c0.1,0.1,0.3,0.3,0.3,0.3
			c0.1,0,0.3,0.1,0.4,0.3c0.1,0.1,1.3,0.9,2.6,1.8c5.4,3.6,9.1,6.1,9.7,6.5c0.1,0.1,1.3,0.9,2.7,1.8c1.4,0.9,2.7,1.8,2.8,1.9
			c0.9,0.7,5.5,3.7,5.7,3.7C36.9,96.2,37.3,96,37.7,95.8L37.7,95.8z M73.4,131.7c1.7-0.6,3.5-1.4,4.9-2.2c0.7-0.4,1.2-0.6,1.3-0.6
			c0.1,0,2.4-1.6,3.3-2.3c3.6-2.7,8.2-6.9,12.4-11.4c1.9-2.1,2.8-3,3.9-4.3c0.7-0.8,1.4-1.5,1.5-1.6s0.3-0.4,0.6-0.6
			c7.4-7.9,10.7-10.8,14.7-13.3c2.7-1.6,4.7-2.4,7.8-3.2c1.1-0.3,1.8-0.3,4.3-0.3c2.8,0,3,0.1,5.3,0.6c0.6,0.2,0.7,0.2,2,0.7
			c1.6,0.6,5.1,2.4,6.1,3.2c0.1,0.1,0.8,0.6,1.5,1.1c1.5,1.1,4,3.3,7.1,6.1c2.6,2.3,2.9,2.5,2.2,0.9c-0.7-1.3-0.9-2-1.5-3.2
			c-0.3-0.7-0.7-1.5-0.8-1.8s-0.7-1.4-1.1-2.5c-0.4-1.1-0.9-2.3-1.1-2.7c-0.2-0.4-0.4-0.8-0.4-0.9s0-0.2-0.1-0.4
			c-0.2-0.3-0.3-0.6-1.1-2.3c-0.3-0.8-0.7-1.6-0.7-1.7c-0.1-0.2-0.3-0.7-0.5-1.1c-0.1-0.4-0.4-1-0.5-1.2c-0.1-0.3-0.6-1.5-1.1-2.7
			c-0.5-1.3-1-2.4-1.1-2.5c-0.1-0.2-0.3-0.8-0.5-1.3c-0.3-0.6-0.5-1.1-0.5-1.3c-0.1-0.1-0.3-0.8-0.5-1.3c-0.7-1.9-1.1-2.9-1.2-3.2
			c-0.2-0.4-0.7-1.7-1.3-3.5c-0.3-0.9-0.7-1.8-0.7-2c-0.1-0.1-0.1-0.4-0.2-0.6c0-0.1-0.4-1.1-0.8-2.3c-0.4-1.1-0.9-2.5-1.2-3.2
			c-0.2-0.7-0.5-1.4-0.5-1.5s-0.1-0.4-0.2-0.6c-0.1-0.1-0.4-1.1-0.8-2.3c-0.4-1.1-0.9-2.3-1.1-2.7c-0.3-0.8-1.3-3.7-2.1-5.7
			c-0.2-0.6-0.5-1.3-0.6-1.6c-0.3-0.8-0.9-2.5-1.1-2.8c-0.1-0.1-0.3-0.6-0.4-1c-0.1-0.4-0.3-0.8-0.4-0.9c-0.1-0.1-0.1-0.3-0.1-0.4
			c0-0.1-0.1-0.4-0.1-0.5c-0.1-0.1-0.3-0.7-0.5-1.2c-0.8-2.2-1.1-3-1.3-3.3c-0.1-0.4-0.8-2.1-1.1-2.8c-0.1-0.3-0.3-0.8-0.4-1
			c-0.3-0.8-0.3-0.8-2-5.1c-0.5-1.1-1-2.5-1.4-3.4c-0.1-0.2-0.2-0.5-0.3-0.8c-0.1-0.3-0.3-0.7-0.4-0.9c-0.1-0.3-0.3-0.8-0.5-1.3
			c-0.5-1.1-0.6-1.5-1.1-2.5c-0.2-0.4-0.4-0.8-0.4-0.9s-0.1-0.3-0.1-0.4c-0.1-0.1-0.2-0.5-0.3-0.8c-2.5-5.5-5-9.7-6.7-11.5
			c-1.4-1.4-2.3-1.8-3.6-1.8c-2.1,0.1-3.7,1.8-6.2,6.5c-0.5,0.9-0.9,1.9-1.1,2.2c-0.1,0.3-0.3,0.8-0.5,1.1c-0.2,0.4-0.6,1.3-0.9,2.1
			c-0.3,0.8-0.7,1.6-0.7,1.7c-0.1,0.2-0.3,0.8-0.5,1.3s-0.4,1.1-0.5,1.3c-0.1,0.1-0.3,0.7-0.5,1.2c-0.2,0.6-0.5,1.2-0.6,1.4
			c-0.1,0.3-0.2,0.5-0.2,0.6c0,0-0.1,0.4-0.3,0.7c-0.2,0.4-0.4,0.8-0.5,0.9c-0.5,1-1,2.2-1.8,3.7c-0.2,0.4-0.9,2-1.6,3.4
			c-0.6,1.5-1.2,2.8-1.3,3c-0.1,0.3-0.5,1-0.7,1.7c-0.3,0.6-0.7,1.5-0.9,1.8c-0.1,0.3-0.3,0.8-0.5,1C88.5,41,88.2,41.5,88,42
			c-0.3,0.5-0.6,1.2-0.8,1.6c-0.1,0.4-0.5,1.1-0.7,1.6c-0.7,1.5-5.4,10.3-6,11.3c-0.3,0.6-0.9,1.5-1.1,2c-0.7,1.3-1.3,2.2-1.8,3
			c-0.2,0.4-0.4,0.7-0.4,0.8c0,0-0.3,0.4-0.5,0.8c-0.3,0.4-0.5,0.8-0.5,0.8s-0.3,0.6-0.7,1.1c-0.4,0.6-0.7,1.1-0.7,1.2
			c0,0-0.5,0.8-1,1.6c-0.6,0.8-1.1,1.5-1.1,1.6s-0.8,1.2-0.9,1.3c-0.1,0.1-0.1,0.1-0.1,0.2c0,0.3-3.3,4.9-5.4,7.6
			c-1.4,1.7-1.4,1.7-2.6,3.1c-0.5,0.5-1,1.1-1.2,1.3c-1.9,2.3-8,7.9-11.5,10.7c-0.4,0.3-1,0.7-1.3,0.9l-0.5,0.4l0.6,0.3
			c1.8,0.8,4.6,3.2,6.4,5.5c1.3,1.5,3,4.1,3.6,5.1c0.3,0.4,0.5,0.7,0.5,0.8c0.3,0.3,3.7,6.6,4.4,8c0.2,0.4,0.7,1.3,1,2
			s0.7,1.3,0.7,1.3c0,0.1,0.2,0.6,0.5,1.3c0.3,0.6,0.7,1.3,0.7,1.6c0.1,0.3,0.3,0.6,0.3,0.6s0.1,0.2,0.1,0.3c0,0.1,0.1,0.5,0.3,0.9
			c0.2,0.4,0.5,1.1,0.7,1.5s0.4,0.8,0.4,0.9s0,0.3,0.1,0.4c0.1,0.3,0.2,0.4,0.7,1.5c0.3,0.8,0.4,0.9,1.2,3c0.6,1.3,0.9,1.8,1.1,1.8
			C72.5,132,73,131.9,73.4,131.7L73.4,131.7z M69.6,137.4c-0.9-0.4-1.3-0.7-2-2.3c-0.1-0.2-0.2-0.4-0.3-0.6
			c-0.1-0.2-0.3-0.8-0.6-1.3c-0.2-0.5-0.5-1.1-0.5-1.4c-0.1-0.3-0.2-0.4-0.2-0.5s-0.2-0.4-0.3-0.8c-0.2-0.3-0.3-0.8-0.4-0.9
			c-0.1-0.2-0.3-0.6-0.4-0.9c-0.1-0.3-0.3-0.6-0.3-0.8c-0.1-0.3-0.5-1.1-0.8-1.7c-0.1-0.2-0.2-0.5-0.3-0.7c-0.3-0.8-0.4-0.9-0.7-1.7
			c-0.2-0.4-0.4-0.8-0.4-0.8c0-0.1-0.2-0.5-0.5-1.1s-0.5-1.1-0.5-1.1s-0.3-0.6-0.6-1.3c-0.3-0.7-0.8-1.6-1.1-2.1
			c-1-2.2-3.9-7.4-4.4-8c-0.1-0.2-0.3-0.4-0.3-0.4c0-0.1-0.2-0.4-0.5-0.9c-0.3-0.4-0.5-0.8-0.5-0.8s-0.1-0.1-0.2-0.3
			c-0.1-0.1-0.4-0.5-0.7-0.9c-2.4-3.4-4.3-5.3-6.3-6.2c-0.6-0.3-0.9-0.3-2.2-0.3c-2.1,0.1-3.5,0.5-6.5,2c-0.3,0.3-0.7,0.3-1.5,0.3
			c-1.2,0-0.9,0.2-5.3-2.8c-1.5-1.1-2.9-2-3.2-2.2c-0.2-0.2-1.6-1.1-3.2-2.2c-1.5-1-4-2.7-5.5-3.7s-4-2.7-5.5-3.7
			c-1.6-1-3-2-3.2-2.2C10.4,85,8.8,83.8,7,82.6s-4-2.7-4.9-3.3C0.3,78.1,0,77.6,0,76.4c0-0.9,0.3-1.5,1-2c0.3-0.2,2.2-0.9,4.5-1.8
			c2.2-0.8,4.3-1.6,4.7-1.8c0.3-0.1,0.9-0.3,1.2-0.4s1-0.4,1.4-0.6s0.8-0.3,0.9-0.3c0.1,0,0.2-0.1,0.3-0.1c0.2-0.1,0.5-0.3,0.9-0.4
			c0.3-0.1,0.7-0.3,0.9-0.3c0.1-0.1,0.5-0.2,0.6-0.3c0.3-0.1,0.9-0.4,1.9-0.8c0.2-0.1,0.5-0.2,0.6-0.3c0.2-0.1,0.3-0.1,0.4-0.1
			s1.6-0.6,2.2-0.8c0.1-0.1,0.3-0.1,0.3-0.1c0.1,0,0.5-0.2,0.9-0.4c0.4-0.1,3.9-1.5,7.7-3s7.2-2.7,7.4-2.8c0.3-0.1,0.8-0.3,1.3-0.5
			c0.4-0.2,1.1-0.4,1.6-0.6c0.4-0.2,0.9-0.3,0.9-0.3c0.1,0,0.3-0.1,0.4-0.1s0.4-0.2,0.6-0.3c1.1-0.4,1.6-0.6,1.8-0.8
			c1-0.3,2-0.9,2.1-1.1c0-0.1,0.2-0.4,0.3-0.5s0.6-0.7,1-1.3c2.4-3.2,6.1-7,8.7-9.1c0.7-0.6,1.4-1.1,1.6-1.3c0.1-0.1,1-0.7,1.9-1.2
			c1.8-1.1,3.6-2,5.4-2.6c0.3-0.1,0.7-0.2,0.8-0.3c0.3-0.1,1.3-0.5,1.9-0.7c1.8-0.6,3.2-1.2,3.7-1.5c1.5-0.8,4.9-3.9,7-6.1
			c4-4.5,12.4-16,16.3-22.3c0.5-0.8,2.3-3.3,3-4.1c1.5-1.8,3.8-3.8,5.5-4.6c0.9-0.5,2.7-0.9,3.5-0.9s2.8,0.3,3.5,0.6
			c2,0.6,3.8,2,5.4,3.9c0.7,0.8,2.2,2.8,2.2,3c0,0,0.2,0.4,0.5,0.8c0.4,0.6,2.2,3.9,2.8,5.3c0.1,0.3,0.5,0.9,0.7,1.4
			c0.5,1.1,0.8,1.8,1,2.2c0.1,0.2,0.2,0.6,0.3,0.8c0.1,0.3,0.3,0.7,0.4,0.8c0.1,0.2,0.2,0.5,0.3,0.8c0.1,0.3,0.6,1.5,1,2.6
			c0.5,1.1,0.9,2.2,1.1,2.5c0.1,0.3,0.3,0.6,0.3,0.9c0.1,0.3,0.3,0.6,0.3,0.8c0,0.2,0.2,0.5,0.3,0.8c0.1,0.3,0.3,0.7,0.4,0.9
			c0.1,0.3,0.3,0.7,0.4,1.1c0.1,0.3,0.3,0.8,0.3,1c0.4,0.8,0.5,1,0.8,2c0.3,0.6,0.5,1.1,0.5,1.3c0.1,0.3,0.7,1.8,1.1,2.8
			c0.1,0.3,0.2,0.6,0.3,0.8c0.1,0.3,0.3,0.9,0.5,1.5s0.7,1.8,1,2.6c0.3,0.9,0.7,1.9,0.8,2.2c0.1,0.4,0.3,0.8,0.3,0.9
			c0.1,0.1,0.2,0.6,0.3,0.9c0.1,0.4,0.3,0.8,0.4,0.9c0.1,0.3,0.8,2,1.1,2.8c0.1,0.3,0.4,1.1,0.6,1.6c0.9,2.5,1.9,5,2.4,6.6
			c0.3,0.9,0.7,1.8,0.7,1.9c0.1,0.1,0.1,0.4,0.2,0.6c0,0.1,0.4,1.1,0.8,2.3c0.4,1.1,1.1,2.8,1.4,3.8c0.3,0.9,0.9,2.7,1.4,3.8
			c0.4,1.1,0.9,2.3,1,2.7c0.3,1.1,1.3,3.7,1.6,4.4c0.1,0.3,0.5,1.2,0.8,2c0.5,1.3,0.8,2.2,1.1,2.7c0.1,0.2,0.5,1.2,0.9,2.3
			c0.7,1.8,1.7,4.1,2.2,5.1c0.1,0.1,0.3,0.7,0.5,1.3c0.2,0.5,0.5,1.2,0.7,1.5c0.1,0.3,0.3,0.6,0.3,0.7c0,0,0.1,0.3,0.2,0.5
			c0.1,0.3,0.3,0.7,0.5,0.9c0.1,0.3,0.2,0.5,0.2,0.6s0.1,0.4,0.3,0.8c0.1,0.3,0.4,0.8,0.5,1.1c0.1,0.3,0.3,0.6,0.4,0.8
			c0.1,0.2,0.2,0.4,0.3,0.6s0.2,0.6,0.3,0.9s0.3,0.6,0.4,0.8c0.1,0.1,0.3,0.6,0.4,0.9c0.2,0.4,0.4,0.9,0.5,1.1
			c0.1,0.3,0.3,0.8,0.5,1.2c0.2,0.4,0.4,0.9,0.4,0.9c0,0.1,0.2,0.6,0.5,1.1c0.3,0.6,0.5,1.1,0.5,1.1c0,0.1,0.2,0.4,0.4,0.9
			c0.3,0.4,0.6,1.1,0.8,1.5c0.7,1.5,1.9,4,2.8,5.6c0.3,0.6,0.3,1.8-0.1,2.5c-0.5,0.8-1.2,1.1-2.3,1.1c-0.8,0-0.9-0.1-2-0.6
			c-3-1.9-7.2-5.2-11.9-9.4c-2.9-2.7-4.7-4.2-5.5-4.8c-0.4-0.3-0.7-0.6-0.8-0.6c-0.4-0.6-5.3-3.5-5.8-3.5c-0.1,0-0.2,0-0.3-0.1
			c-0.2-0.1-2.1-0.7-3.2-0.9c-1.1-0.3-4-0.2-5.3,0.1c-5,0.9-9.2,3.8-15.9,10.8c-0.8,0.8-1.6,1.6-1.6,1.6c-0.2,0.2-3.2,3.4-3.7,4
			c-2.8,3-4.4,4.7-5.7,6.2c-1.9,2-7.2,7-8.6,8.2c-0.5,0.4-1.1,0.9-1.4,1.1c-0.7,0.6-3.5,2.7-4,2.9c-0.3,0.1-0.5,0.3-0.5,0.3
			c-0.3,0.3-3.1,1.9-5.1,2.8c-2.3,1.1-3.8,1.6-6.3,2.2C70.5,137.7,70.4,137.7,69.6,137.4L69.6,137.4z"/>
	</g>
</g>
</svg>
