<?xml version="1.0" encoding="utf-8"?>
<!-- Generator: Adobe Illustrator 26.0.1, SVG Export Plug-In . SVG Version: 6.00 Build 0)  -->
<svg version="1.1" id="Layer_1" xmlns="http://www.w3.org/2000/svg" xmlns:xlink="http://www.w3.org/1999/xlink" x="0px" y="0px"
	 viewBox="0 0 226 223" style="enable-background:new 0 0 226 223;" xml:space="preserve">
<style type="text/css">
	.st0{fill:#1564BF;}
</style>
<g transform="translate(0.000000,223.000000) scale(0.100000,-0.100000)">
	<path class="st0" d="M83,2219c-35-10-66-48-77-92c-12-48,12-101,94-213c69-95,84-124,116-219c46-139,94-241,139-295
		c25-30,33-46,26-58c-4-10-19-60-32-112c-19-74-24-121-23-210c0-162,36-273,112-352c40-42,76-54,115-39c34,13,52,54,69,156l14,80
		l43-82c46-88,114-164,251-283l75-65l-55,61c-96,105-204,282-276,453c-21,49-42,87-46,85c-4-3-21-25-38-49c-32-47-55-123-65-222
		c-4-35-10-63-14-63c-21,0-56,39-76,84c-64,145-67,314-10,478c33,95,32,120-8,165c-51,58-74,105-122,243c-52,153-67,184-136,275
		c-73,97-89,126-89,157c0,34,31,52,75,45c48-8,177-72,225-112c33-28,51-35,83-35c99-1,172-19,272-69c260-130,496-382,610-653
		c64-153,172-384,199-426c32-51,38-55,146-92c52-18,111-41,130-51c57-29,263-173,268-186c3-10-13-13-58-13c-73,0-193-24-255-50
		c-43-19-44-19-32-51c28-75,147-175,287-241c41-19,109-60,151-90c97-70,92-48-14,63c-55,57-116,108-184,152c-86,55-135,101-121,111
		c3,2,87,20,242,50c43,9,81,18,84,21c7,7-54,82-97,120c-78,69-221,167-295,202c-174,83-154,64-227,210c-37,73-93,195-125,270
		c-102,242-258,442-465,598c-185,139-286,184-451,200c-54,5-75,12-105,37c-52,41-141,85-210,103C139,2232,129,2232,83,2219z"/>
	<path class="st0" d="M471,1841c-11-7-8-17,17-47c16-22,33-49,37-61c8-28,21-29,35-4c17,33,11,61-19,92C510,1851,495,1856,471,1841z
		"/>
</g>
</svg>
