<?xml version="1.0" encoding="utf-8"?>
<!-- Generator: Adobe Illustrator 26.0.2, SVG Export Plug-In . SVG Version: 6.00 Build 0)  -->
<svg version="1.1" id="Layer_1" xmlns="http://www.w3.org/2000/svg" xmlns:xlink="http://www.w3.org/1999/xlink" x="0px" y="0px"
	 viewBox="0 0 64 64" style="enable-background:new 0 0 64 64;" xml:space="preserve">
<style type="text/css">
	.st0{fill:#1872D9;}
	.st1{fill:url(#SVGID_1_);}
	.st2{fill:#2B588C;}
</style>
<path class="st0" d="M48.43,2.83H8.27c-2.69,0-4.88,2.21-4.88,4.88V52c0,2.69,2.21,4.88,4.88,4.88h26.46
	c-0.29-13.16,4.2-38.7,13.71-54.09L48.43,2.83z"/>
<linearGradient id="SVGID_1_" gradientUnits="userSpaceOnUse" x1="-487.3802" y1="74.944" x2="-487.3802" y2="79.1581" gradientTransform="matrix(9.7635 0 0 9.7635 4784.8867 -725.9832)">
	<stop  offset="0" style="stop-color:#67B9E7"/>
	<stop  offset="0.8469" style="stop-color:#0F80CC"/>
	<stop  offset="1" style="stop-color:#1872D9"/>
</linearGradient>
<path class="st1" d="M47.43,4.81H8.74c-1.91,0-3.47,1.56-3.47,3.47v41.06c8.77-3.37,21.92-6.27,31.02-6.13
	C39.1,30.16,42.82,17.33,47.43,4.81L47.43,4.81z"/>
<path class="st2" d="M57.81,1.39c-2.75-2.44-6.08-1.46-9.37,1.45l-1.46,1.43c-5.62,5.96-10.74,17.01-12.46,25.45
	c0.61,1.34,1.1,2.73,1.45,4.16l0.21,0.98l0.21,1c0,0-0.05-0.2-0.25-0.78L36,34.69c-0.03-0.07-0.06-0.14-0.09-0.21
	c-0.37-0.85-1.37-2.66-1.83-3.44c-0.36,1.04-0.69,2.08-1.01,3.13c1.29,2.36,2.07,6.4,2.07,6.4s-0.07-0.26-0.39-1.17
	c-0.29-0.81-1.72-3.32-2.05-3.91c-0.59,2.15-0.81,3.59-0.61,3.94c0.39,0.68,0.78,1.95,1.12,3.16c0.53,2.15,0.96,4.32,1.29,6.5
	l0.05,0.61c-0.1,2.44-0.05,4.89,0.15,7.32c0.25,3.06,0.73,5.68,1.34,7.09l0.41-0.22c-0.88-2.77-1.25-6.4-1.09-10.58
	c0.24-6.4,1.71-14.11,4.43-22.14C44.41,18.92,50.78,9.18,56.61,4.53c-5.32,4.8-12.52,20.35-14.66,26.1
	c-2.41,6.44-4.12,12.5-5.16,18.29c1.78-5.43,7.52-7.77,7.52-7.77s2.83-3.48,6.11-8.45l-6.3,1.68l-2.03,0.9c0,0,5.17-3.15,9.64-4.59
	C57.85,21.05,64.52,7.35,57.81,1.39"/>
</svg>
